<svg width="620" height="670" viewBox="0 0 620 670" fill="none" xmlns="http://www.w3.org/2000/svg">
<g filter="url(#filter0_d)">
<path d="M40 80C40 57.9086 57.9086 40 80 40H540C562.091 40 580 57.9086 580 80V590C580 612.091 562.091 630 540 630H80C57.9086 630 40 612.091 40 590V80Z" fill="white"/>
</g>
<path d="M92.336 436V413.344H97.84V436H92.336ZM102.236 443.68V420.064H107.228V422.016H107.324C107.836 421.312 108.529 420.736 109.404 420.288C110.3 419.84 111.302 419.616 112.412 419.616C114.652 419.616 116.465 420.437 117.852 422.08C119.26 423.701 119.964 425.664 119.964 427.968C119.964 430.315 119.27 432.32 117.884 433.984C116.518 435.627 114.684 436.448 112.38 436.448C111.398 436.448 110.47 436.256 109.595 435.872C108.721 435.467 108.038 434.923 107.548 434.24H107.484V443.68H102.236ZM111.132 432.096C112.305 432.096 113.222 431.691 113.884 430.88C114.545 430.069 114.876 429.099 114.876 427.968C114.876 426.859 114.545 425.909 113.884 425.12C113.222 424.309 112.305 423.904 111.132 423.904C110.001 423.904 109.073 424.32 108.348 425.152C107.644 425.984 107.292 426.933 107.292 428C107.292 429.088 107.644 430.048 108.348 430.88C109.073 431.691 110.001 432.096 111.132 432.096ZM123.267 436V420.064H128.451V429.344H128.515L134.051 420.064H139.619V436H134.499V426.944H134.403L128.963 436H123.267ZM143.704 436V420.064H148.984V425.696H154.168V420.064H159.448V436H154.168V429.728H148.984V436H143.704ZM168.348 436.384C167.409 436.384 166.524 436.245 165.692 435.968C164.881 435.669 164.156 435.125 163.516 434.336C162.876 433.547 162.556 432.565 162.556 431.392C162.556 427.808 165.969 426.016 172.796 426.016V425.76C172.796 425.013 172.529 424.448 171.996 424.064C171.463 423.659 170.769 423.456 169.916 423.456C168.465 423.456 167.153 424 165.98 425.088L163.324 422.24C165.223 420.448 167.591 419.552 170.428 419.552C173.052 419.552 174.929 420.224 176.06 421.568C177.191 422.891 177.756 425.024 177.756 427.968V436H172.956V434.304H172.86C172.476 434.944 171.868 435.456 171.036 435.84C170.204 436.203 169.308 436.384 168.348 436.384ZM169.66 432.864C170.705 432.864 171.516 432.576 172.092 432C172.668 431.403 172.956 430.603 172.956 429.6V429.056H172.284C169.02 429.056 167.388 429.781 167.388 431.232C167.388 431.787 167.612 432.203 168.06 432.48C168.508 432.736 169.041 432.864 169.66 432.864ZM187.689 430.88L184.585 439.968H180.265L182.665 430.88H187.689ZM214.874 428.512C214.874 431.115 214.021 433.12 212.314 434.528C210.607 435.915 208.549 436.608 206.138 436.608C204.047 436.608 202.223 436.096 200.666 435.072C199.109 434.027 198.063 432.619 197.53 430.848L202.426 429.344C202.661 430.155 203.109 430.816 203.77 431.328C204.453 431.819 205.221 432.064 206.074 432.064C207.034 432.064 207.834 431.776 208.474 431.2C209.135 430.624 209.466 429.813 209.466 428.768C209.466 427.531 209.018 426.645 208.122 426.112C207.226 425.579 206.127 425.312 204.826 425.312C202.97 425.312 201.125 425.643 199.29 426.304L199.834 413.344H213.722V417.952H204.602L204.41 421.536C205.029 421.387 205.786 421.312 206.682 421.312C209.071 421.312 211.034 421.941 212.57 423.2C214.106 424.437 214.874 426.208 214.874 428.512ZM235.562 428.512C235.562 431.115 234.708 433.12 233.002 434.528C231.295 435.915 229.236 436.608 226.826 436.608C224.735 436.608 222.911 436.096 221.354 435.072C219.796 434.027 218.751 432.619 218.218 430.848L223.114 429.344C223.348 430.155 223.796 430.816 224.458 431.328C225.14 431.819 225.908 432.064 226.762 432.064C227.722 432.064 228.522 431.776 229.162 431.2C229.823 430.624 230.154 429.813 230.154 428.768C230.154 427.531 229.706 426.645 228.81 426.112C227.914 425.579 226.815 425.312 225.514 425.312C223.658 425.312 221.812 425.643 219.978 426.304L220.522 413.344H234.41V417.952H225.29L225.098 421.536C225.716 421.387 226.474 421.312 227.37 421.312C229.759 421.312 231.722 421.941 233.258 423.2C234.794 424.437 235.562 426.208 235.562 428.512ZM247.673 443.68V420.064H252.665V422.016H252.761C253.273 421.312 253.966 420.736 254.841 420.288C255.737 419.84 256.74 419.616 257.849 419.616C260.089 419.616 261.902 420.437 263.289 422.08C264.697 423.701 265.401 425.664 265.401 427.968C265.401 430.315 264.708 432.32 263.321 433.984C261.956 435.627 260.121 436.448 257.817 436.448C256.836 436.448 255.908 436.256 255.033 435.872C254.158 435.467 253.476 434.923 252.985 434.24H252.921V443.68H247.673ZM256.569 432.096C257.742 432.096 258.66 431.691 259.321 430.88C259.982 430.069 260.313 429.099 260.313 427.968C260.313 426.859 259.982 425.909 259.321 425.12C258.66 424.309 257.742 423.904 256.569 423.904C255.438 423.904 254.51 424.32 253.785 425.152C253.081 425.984 252.729 426.933 252.729 428C252.729 429.088 253.081 430.048 253.785 430.88C254.51 431.691 255.438 432.096 256.569 432.096ZM276.736 436.512C274.262 436.512 272.171 435.723 270.464 434.144C268.758 432.565 267.904 430.507 267.904 427.968C267.904 425.429 268.758 423.392 270.464 421.856C272.171 420.32 274.262 419.552 276.736 419.552C279.232 419.552 281.334 420.32 283.04 421.856C284.747 423.392 285.6 425.429 285.6 427.968C285.6 430.507 284.747 432.565 283.04 434.144C281.334 435.723 279.232 436.512 276.736 436.512ZM273.984 430.88C274.667 431.691 275.595 432.096 276.768 432.096C277.942 432.096 278.859 431.691 279.52 430.88C280.203 430.048 280.544 429.077 280.544 427.968C280.544 426.88 280.203 425.931 279.52 425.12C278.838 424.309 277.91 423.904 276.736 423.904C275.563 423.904 274.646 424.309 273.984 425.12C273.323 425.909 272.992 426.859 272.992 427.968C272.992 429.077 273.323 430.048 273.984 430.88ZM288.923 436V420.064H294.203V426.816H294.299L299.515 420.064H305.883L299.643 427.52L306.171 436H299.739L294.299 428.8H294.203V436H288.923ZM308.143 436V420.064H313.391V436H308.143ZM312.879 417.024C312.303 417.579 311.599 417.856 310.767 417.856C309.935 417.856 309.221 417.579 308.623 417.024C308.047 416.448 307.759 415.765 307.759 414.976C307.759 414.208 308.047 413.536 308.623 412.96C309.221 412.384 309.935 412.096 310.767 412.096C311.599 412.096 312.303 412.384 312.879 412.96C313.477 413.515 313.775 414.187 313.775 414.976C313.775 415.787 313.477 416.469 312.879 417.024ZM317.548 436V420.064H326.38C330.284 420.064 332.236 421.461 332.236 424.256C332.236 425.067 332.001 425.771 331.532 426.368C331.084 426.965 330.476 427.381 329.708 427.616V427.68C330.625 427.851 331.393 428.267 332.012 428.928C332.631 429.589 332.94 430.421 332.94 431.424C332.94 432.939 332.364 434.08 331.212 434.848C330.06 435.616 328.588 436 326.796 436H317.548ZM322.668 432.768H325.26C325.964 432.768 326.54 432.619 326.988 432.32C327.457 432 327.692 431.552 327.692 430.976C327.692 429.803 326.86 429.216 325.196 429.216H322.668V432.768ZM322.668 426.496H325.228C325.783 426.496 326.252 426.357 326.636 426.08C327.041 425.803 327.244 425.387 327.244 424.832C327.244 423.787 326.497 423.264 325.004 423.264H322.668V426.496Z" fill="#8E9AD5"/>
<path d="M92.976 473.168C92.448 473.168 91.992 473.12 91.608 473.024L91.848 471.752C92.184 471.864 92.56 471.92 92.976 471.92C93.984 471.92 94.832 471.288 95.52 470.024L96.792 467.672L90.168 456.008H91.752L97.56 466.28L103.176 456.008H104.688L96.696 470.504C96.2 471.4 95.672 472.072 95.112 472.52C94.552 472.952 93.84 473.168 92.976 473.168ZM113.115 473V461.816H115.059L119.499 471.08L123.963 461.816H125.859V473H124.563V463.328H124.515L119.835 473H119.139L114.435 463.328V473H113.115ZM130.893 466.64H139.053C139.005 465.44 138.621 464.472 137.901 463.736C137.197 462.984 136.245 462.608 135.045 462.608C133.861 462.608 132.885 463.032 132.117 463.88C131.349 464.712 130.941 465.632 130.893 466.64ZM135.189 473.312C133.557 473.312 132.205 472.752 131.133 471.632C130.061 470.512 129.525 469.096 129.525 467.384C129.525 465.704 130.053 464.312 131.109 463.208C132.181 462.088 133.501 461.528 135.069 461.528C136.749 461.528 138.045 462.056 138.957 463.112C139.885 464.152 140.349 465.448 140.349 467V467.672H130.869C130.901 468.904 131.317 469.968 132.117 470.864C132.917 471.744 133.957 472.184 135.237 472.184C136.725 472.184 138.005 471.552 139.077 470.288L139.941 470.984C138.741 472.536 137.157 473.312 135.189 473.312ZM144.006 473V461.816H145.326V466.64H152.19V461.816H153.486V473H152.19V467.744H145.326V473H144.006ZM158.526 466.64H166.686C166.638 465.44 166.254 464.472 165.534 463.736C164.83 462.984 163.878 462.608 162.678 462.608C161.494 462.608 160.518 463.032 159.75 463.88C158.982 464.712 158.574 465.632 158.526 466.64ZM162.822 473.312C161.19 473.312 159.838 472.752 158.766 471.632C157.694 470.512 157.158 469.096 157.158 467.384C157.158 465.704 157.686 464.312 158.742 463.208C159.814 462.088 161.134 461.528 162.702 461.528C164.382 461.528 165.678 462.056 166.59 463.112C167.518 464.152 167.982 465.448 167.982 467V467.672H158.502C158.534 468.904 158.95 469.968 159.75 470.864C160.55 471.744 161.59 472.184 162.87 472.184C164.358 472.184 165.638 471.552 166.71 470.288L167.574 470.984C166.374 472.536 164.79 473.312 162.822 473.312ZM184.407 473V468.272C183.271 468.576 182.127 468.728 180.975 468.728C178.479 468.728 177.231 467.568 177.231 465.248V461.816H178.551V465.104C178.551 466.08 178.767 466.744 179.199 467.096C179.647 467.448 180.327 467.624 181.239 467.624C182.135 467.624 183.191 467.472 184.407 467.168V461.816H185.703V473H184.407ZM193.224 473.312C192.232 473.312 191.344 473.032 190.56 472.472C189.776 471.912 189.384 471.08 189.384 469.976C189.384 469.336 189.52 468.784 189.792 468.32C190.08 467.856 190.44 467.496 190.872 467.24C191.304 466.968 191.84 466.76 192.48 466.616C193.136 466.456 193.768 466.352 194.376 466.304C194.984 466.256 195.68 466.232 196.464 466.232H197.304V465.728C197.304 463.648 196.248 462.608 194.136 462.608C192.824 462.608 191.712 463.048 190.8 463.928L190.08 463.064C191.136 462.04 192.528 461.528 194.256 461.528C195.552 461.528 196.592 461.872 197.376 462.56C198.16 463.248 198.552 464.256 198.552 465.584V470.48C198.552 471.488 198.616 472.328 198.744 473H197.568C197.44 472.232 197.376 471.544 197.376 470.936H197.328C196.448 472.52 195.08 473.312 193.224 473.312ZM193.536 472.232C194.752 472.232 195.68 471.84 196.32 471.056C196.976 470.256 197.304 469.296 197.304 468.176V467.264H196.464C192.64 467.264 190.728 468.144 190.728 469.904C190.728 470.704 191 471.296 191.544 471.68C192.104 472.048 192.768 472.232 193.536 472.232ZM211.832 463.28L210.968 464.072C210.632 463.64 210.184 463.296 209.624 463.04C209.064 462.784 208.48 462.656 207.872 462.656C206.544 462.656 205.464 463.112 204.632 464.024C203.816 464.92 203.408 466.048 203.408 467.408C203.408 468.768 203.816 469.896 204.632 470.792C205.448 471.688 206.512 472.136 207.824 472.136C209.136 472.136 210.224 471.688 211.088 470.792L211.904 471.536C210.88 472.72 209.52 473.312 207.824 473.312C206.096 473.312 204.704 472.76 203.648 471.656C202.592 470.552 202.064 469.136 202.064 467.408C202.064 465.696 202.6 464.288 203.672 463.184C204.76 462.08 206.152 461.528 207.848 461.528C209.576 461.528 210.904 462.112 211.832 463.28ZM217.562 473V462.92H213.434V461.816H222.986V462.92H218.858V473H217.562ZM230.538 473.312C228.826 473.312 227.41 472.752 226.29 471.632C225.186 470.512 224.634 469.104 224.634 467.408C224.634 465.696 225.186 464.288 226.29 463.184C227.394 462.08 228.81 461.528 230.538 461.528C232.266 461.528 233.682 462.08 234.786 463.184C235.906 464.288 236.466 465.696 236.466 467.408C236.466 469.104 235.906 470.512 234.786 471.632C233.682 472.752 232.266 473.312 230.538 473.312ZM230.538 472.184C231.914 472.184 233.018 471.728 233.85 470.816C234.682 469.904 235.098 468.768 235.098 467.408C235.098 466.048 234.682 464.912 233.85 464C233.018 463.072 231.914 462.608 230.538 462.608C229.178 462.608 228.082 463.072 227.25 464C226.418 464.912 226.002 466.048 226.002 467.408C226.002 468.768 226.418 469.904 227.25 470.816C228.082 471.728 229.178 472.184 230.538 472.184ZM246.123 473V461.816H247.443V466.64H254.307V461.816H255.603V473H254.307V467.744H247.443V473H246.123ZM260.643 466.64H268.803C268.755 465.44 268.371 464.472 267.651 463.736C266.947 462.984 265.995 462.608 264.795 462.608C263.611 462.608 262.635 463.032 261.867 463.88C261.099 464.712 260.691 465.632 260.643 466.64ZM264.939 473.312C263.307 473.312 261.955 472.752 260.883 471.632C259.811 470.512 259.275 469.096 259.275 467.384C259.275 465.704 259.803 464.312 260.859 463.208C261.931 462.088 263.251 461.528 264.819 461.528C266.499 461.528 267.795 462.056 268.707 463.112C269.635 464.152 270.099 465.448 270.099 467V467.672H260.619C260.651 468.904 261.067 469.968 261.867 470.864C262.667 471.744 263.707 472.184 264.987 472.184C266.475 472.184 267.755 471.552 268.827 470.288L269.691 470.984C268.491 472.536 266.907 473.312 264.939 473.312ZM273.756 473V461.816H278.772C279.764 461.816 280.604 462.032 281.292 462.464C281.98 462.896 282.324 463.616 282.324 464.624C282.324 465.248 282.132 465.776 281.748 466.208C281.364 466.64 280.876 466.928 280.284 467.072V467.096C281.02 467.192 281.636 467.488 282.132 467.984C282.628 468.464 282.876 469.112 282.876 469.928C282.876 470.904 282.508 471.664 281.772 472.208C281.036 472.736 280.076 473 278.892 473H273.756ZM275.076 471.872H278.7C279.548 471.872 280.228 471.704 280.74 471.368C281.268 471.032 281.532 470.52 281.532 469.832C281.532 469.128 281.284 468.6 280.788 468.248C280.292 467.896 279.652 467.72 278.868 467.72H275.076V471.872ZM275.076 466.64H278.724C279.348 466.64 279.892 466.488 280.356 466.184C280.82 465.864 281.052 465.392 281.052 464.768C281.052 464.128 280.812 463.664 280.332 463.376C279.868 463.072 279.26 462.92 278.508 462.92H275.076V466.64ZM287.825 470.84V478.76H286.529V461.816H287.825V464.048H287.897C288.361 463.216 288.985 462.592 289.769 462.176C290.569 461.744 291.425 461.528 292.337 461.528C294.033 461.528 295.409 462.088 296.465 463.208C297.537 464.312 298.073 465.712 298.073 467.408C298.073 469.104 297.545 470.512 296.489 471.632C295.449 472.752 294.081 473.312 292.385 473.312C291.457 473.312 290.585 473.104 289.769 472.688C288.953 472.256 288.329 471.64 287.897 470.84H287.825ZM295.457 470.816C296.273 469.904 296.681 468.768 296.681 467.408C296.681 466.048 296.273 464.912 295.457 464C294.657 463.072 293.577 462.608 292.217 462.608C290.921 462.608 289.841 463.072 288.977 464C288.129 464.912 287.705 466.048 287.705 467.408C287.705 468.768 288.129 469.904 288.977 470.816C289.841 471.728 290.921 472.184 292.217 472.184C293.577 472.184 294.657 471.728 295.457 470.816ZM304.67 473.312C303.678 473.312 302.79 473.032 302.006 472.472C301.222 471.912 300.83 471.08 300.83 469.976C300.83 469.336 300.966 468.784 301.238 468.32C301.526 467.856 301.886 467.496 302.318 467.24C302.75 466.968 303.286 466.76 303.926 466.616C304.582 466.456 305.214 466.352 305.822 466.304C306.43 466.256 307.126 466.232 307.91 466.232H308.75V465.728C308.75 463.648 307.694 462.608 305.582 462.608C304.27 462.608 303.158 463.048 302.246 463.928L301.526 463.064C302.582 462.04 303.974 461.528 305.702 461.528C306.998 461.528 308.038 461.872 308.822 462.56C309.606 463.248 309.998 464.256 309.998 465.584V470.48C309.998 471.488 310.062 472.328 310.19 473H309.014C308.886 472.232 308.822 471.544 308.822 470.936H308.774C307.894 472.52 306.526 473.312 304.67 473.312ZM304.982 472.232C306.198 472.232 307.126 471.84 307.766 471.056C308.422 470.256 308.75 469.296 308.75 468.176V467.264H307.91C304.086 467.264 302.174 468.144 302.174 469.904C302.174 470.704 302.446 471.296 302.99 471.68C303.55 472.048 304.214 472.232 304.982 472.232ZM313.486 473.12C313.07 473.12 312.702 473.072 312.382 472.976L312.55 471.848C312.758 471.928 313.006 471.968 313.294 471.968C314.238 471.968 314.926 471.464 315.358 470.456C315.806 469.432 316.03 467.848 316.03 465.704V461.816H323.782V473H322.486V462.92H317.302V466.112C317.302 470.784 316.03 473.12 313.486 473.12ZM328.295 473V461.816H335.567V462.92H329.615V473H328.295ZM338.35 473V461.816H339.67V473H338.35ZM339.67 458.072C339.478 458.264 339.254 458.36 338.998 458.36C338.742 458.36 338.518 458.264 338.326 458.072C338.134 457.88 338.038 457.648 338.038 457.376C338.038 457.104 338.134 456.872 338.326 456.68C338.518 456.488 338.742 456.392 338.998 456.392C339.254 456.392 339.478 456.488 339.67 456.68C339.878 456.872 339.982 457.104 339.982 457.376C339.982 457.648 339.878 457.88 339.67 458.072ZM341.642 457.376C341.642 457.104 341.738 456.864 341.93 456.656C342.138 456.448 342.386 456.344 342.674 456.344C342.962 456.344 343.202 456.448 343.394 456.656C343.602 456.864 343.706 457.104 343.706 457.376C343.706 457.664 343.602 457.912 343.394 458.12C343.202 458.328 342.962 458.432 342.674 458.432C342.386 458.432 342.138 458.328 341.93 458.12C341.738 457.912 341.642 457.664 341.642 457.376ZM345.986 457.376C345.986 457.104 346.082 456.864 346.274 456.656C346.482 456.448 346.73 456.344 347.018 456.344C347.306 456.344 347.546 456.448 347.738 456.656C347.93 456.864 348.026 457.104 348.026 457.376C348.026 457.664 347.93 457.912 347.738 458.12C347.546 458.328 347.306 458.432 347.018 458.432C346.73 458.432 346.482 458.328 346.274 458.12C346.082 457.912 345.986 457.664 345.986 457.376ZM345.506 461.816V473H344.186V461.816H345.506ZM351.942 470.744L350.118 476.336H349.038L350.574 470.744H351.942ZM360.525 473.12C360.109 473.12 359.741 473.072 359.421 472.976L359.589 471.848C359.797 471.928 360.045 471.968 360.333 471.968C361.277 471.968 361.965 471.464 362.397 470.456C362.845 469.432 363.069 467.848 363.069 465.704V461.816H370.821V473H369.525V462.92H364.341V466.112C364.341 470.784 363.069 473.12 360.525 473.12ZM375.334 473V461.816H376.654V473H375.334ZM376.654 458.072C376.462 458.264 376.238 458.36 375.982 458.36C375.726 458.36 375.502 458.264 375.31 458.072C375.118 457.88 375.022 457.648 375.022 457.376C375.022 457.104 375.118 456.872 375.31 456.68C375.502 456.488 375.726 456.392 375.982 456.392C376.238 456.392 376.462 456.488 376.654 456.68C376.862 456.872 376.966 457.104 376.966 457.376C376.966 457.648 376.862 457.88 376.654 458.072ZM381.218 473V461.816H382.514V467.096H382.586L388.034 461.816H389.906L384.074 467.144L390.506 473H388.586L382.586 467.312H382.514V473H381.218ZM396.052 473.312C395.06 473.312 394.172 473.032 393.388 472.472C392.604 471.912 392.212 471.08 392.212 469.976C392.212 469.336 392.348 468.784 392.62 468.32C392.908 467.856 393.268 467.496 393.7 467.24C394.132 466.968 394.668 466.76 395.308 466.616C395.964 466.456 396.596 466.352 397.204 466.304C397.812 466.256 398.508 466.232 399.292 466.232H400.132V465.728C400.132 463.648 399.076 462.608 396.964 462.608C395.652 462.608 394.54 463.048 393.628 463.928L392.908 463.064C393.964 462.04 395.356 461.528 397.084 461.528C398.38 461.528 399.42 461.872 400.204 462.56C400.988 463.248 401.38 464.256 401.38 465.584V470.48C401.38 471.488 401.444 472.328 401.572 473H400.396C400.268 472.232 400.204 471.544 400.204 470.936H400.156C399.276 472.52 397.908 473.312 396.052 473.312ZM396.364 472.232C397.58 472.232 398.508 471.84 399.148 471.056C399.804 470.256 400.132 469.296 400.132 468.176V467.264H399.292C395.468 467.264 393.556 468.144 393.556 469.904C393.556 470.704 393.828 471.296 394.372 471.68C394.932 472.048 395.596 472.232 396.364 472.232ZM407.029 470.84V478.76H405.733V461.816H407.029V464.048H407.101C407.565 463.216 408.189 462.592 408.973 462.176C409.773 461.744 410.629 461.528 411.541 461.528C413.237 461.528 414.613 462.088 415.669 463.208C416.741 464.312 417.277 465.712 417.277 467.408C417.277 469.104 416.749 470.512 415.693 471.632C414.653 472.752 413.285 473.312 411.589 473.312C410.661 473.312 409.789 473.104 408.973 472.688C408.157 472.256 407.533 471.64 407.101 470.84H407.029ZM414.661 470.816C415.477 469.904 415.885 468.768 415.885 467.408C415.885 466.048 415.477 464.912 414.661 464C413.861 463.072 412.781 462.608 411.421 462.608C410.125 462.608 409.045 463.072 408.181 464C407.333 464.912 406.909 466.048 406.909 467.408C406.909 468.768 407.333 469.904 408.181 470.816C409.045 471.728 410.125 472.184 411.421 472.184C412.781 472.184 413.861 471.728 414.661 470.816ZM92.256 502V490.816H101.568V502H100.272V491.92H93.576V502H92.256ZM107.404 499.84V507.76H106.108V490.816H107.404V493.048H107.476C107.94 492.216 108.564 491.592 109.348 491.176C110.148 490.744 111.004 490.528 111.916 490.528C113.612 490.528 114.988 491.088 116.044 492.208C117.116 493.312 117.652 494.712 117.652 496.408C117.652 498.104 117.124 499.512 116.068 500.632C115.028 501.752 113.66 502.312 111.964 502.312C111.036 502.312 110.164 502.104 109.348 501.688C108.532 501.256 107.908 500.64 107.476 499.84H107.404ZM115.036 499.816C115.852 498.904 116.26 497.768 116.26 496.408C116.26 495.048 115.852 493.912 115.036 493C114.236 492.072 113.156 491.608 111.796 491.608C110.5 491.608 109.42 492.072 108.556 493C107.708 493.912 107.284 495.048 107.284 496.408C107.284 497.768 107.708 498.904 108.556 499.816C109.42 500.728 110.5 501.184 111.796 501.184C113.156 501.184 114.236 500.728 115.036 499.816ZM121.272 502V490.816H122.592V500.176L129.624 490.816H131.04V502H129.768V492.568H129.72L122.688 502H121.272ZM138.713 502.312C136.713 502.312 135.225 501.624 134.249 500.248L135.209 499.48C136.025 500.616 137.185 501.184 138.689 501.184C139.537 501.184 140.249 500.992 140.825 500.608C141.401 500.224 141.689 499.64 141.689 498.856C141.689 498.152 141.377 497.616 140.753 497.248C140.129 496.88 139.337 496.696 138.377 496.696H137.441V495.64H138.281C139.177 495.64 139.913 495.456 140.489 495.088C141.065 494.704 141.353 494.168 141.353 493.48C141.353 492.856 141.097 492.392 140.585 492.088C140.089 491.768 139.425 491.608 138.593 491.608C138.001 491.608 137.433 491.744 136.889 492.016C136.361 492.288 135.945 492.664 135.641 493.144L134.633 492.424C135.001 491.816 135.537 491.352 136.241 491.032C136.961 490.696 137.761 490.528 138.641 490.528C139.841 490.528 140.809 490.784 141.545 491.296C142.281 491.808 142.649 492.536 142.649 493.48C142.649 494.136 142.425 494.704 141.977 495.184C141.545 495.648 140.977 495.952 140.273 496.096V496.144C141.089 496.256 141.745 496.56 142.241 497.056C142.737 497.552 142.985 498.168 142.985 498.904C142.985 499.96 142.585 500.792 141.785 501.4C141.001 502.008 139.977 502.312 138.713 502.312ZM146.701 502V490.816H148.021V495.64H154.885V490.816H156.181V502H154.885V496.744H148.021V502H146.701ZM163.693 502.312C162.701 502.312 161.813 502.032 161.029 501.472C160.245 500.912 159.853 500.08 159.853 498.976C159.853 498.336 159.989 497.784 160.261 497.32C160.549 496.856 160.909 496.496 161.341 496.24C161.773 495.968 162.309 495.76 162.949 495.616C163.605 495.456 164.237 495.352 164.845 495.304C165.453 495.256 166.149 495.232 166.933 495.232H167.773V494.728C167.773 492.648 166.717 491.608 164.605 491.608C163.293 491.608 162.181 492.048 161.269 492.928L160.549 492.064C161.605 491.04 162.997 490.528 164.725 490.528C166.021 490.528 167.061 490.872 167.845 491.56C168.629 492.248 169.021 493.256 169.021 494.584V499.48C169.021 500.488 169.085 501.328 169.213 502H168.037C167.909 501.232 167.845 500.544 167.845 499.936H167.797C166.917 501.52 165.549 502.312 163.693 502.312ZM164.005 501.232C165.221 501.232 166.149 500.84 166.789 500.056C167.445 499.256 167.773 498.296 167.773 497.176V496.264H166.933C163.109 496.264 161.197 497.144 161.197 498.904C161.197 499.704 161.469 500.296 162.013 500.68C162.573 501.048 163.237 501.232 164.005 501.232ZM180.141 502V497.272C179.005 497.576 177.861 497.728 176.709 497.728C174.213 497.728 172.965 496.568 172.965 494.248V490.816H174.285V494.104C174.285 495.08 174.501 495.744 174.933 496.096C175.381 496.448 176.061 496.624 176.973 496.624C177.869 496.624 178.925 496.472 180.141 496.168V490.816H181.437V502H180.141ZM185.983 502V490.816H187.303V500.176L194.335 490.816H195.751V502H194.479V492.568H194.431L187.399 502H185.983ZM200.279 502V490.816H205.295C206.287 490.816 207.127 491.032 207.815 491.464C208.503 491.896 208.847 492.616 208.847 493.624C208.847 494.248 208.655 494.776 208.271 495.208C207.887 495.64 207.399 495.928 206.807 496.072V496.096C207.543 496.192 208.159 496.488 208.655 496.984C209.151 497.464 209.399 498.112 209.399 498.928C209.399 499.904 209.031 500.664 208.295 501.208C207.559 501.736 206.599 502 205.415 502H200.279ZM201.599 500.872H205.223C206.071 500.872 206.751 500.704 207.263 500.368C207.791 500.032 208.055 499.52 208.055 498.832C208.055 498.128 207.807 497.6 207.311 497.248C206.815 496.896 206.175 496.72 205.391 496.72H201.599V500.872ZM201.599 495.64H205.247C205.871 495.64 206.415 495.488 206.879 495.184C207.343 494.864 207.575 494.392 207.575 493.768C207.575 493.128 207.335 492.664 206.855 492.376C206.391 492.072 205.783 491.92 205.031 491.92H201.599V495.64ZM219.053 502V490.816H224.069C225.061 490.816 225.901 491.032 226.589 491.464C227.277 491.896 227.621 492.616 227.621 493.624C227.621 494.248 227.429 494.776 227.045 495.208C226.661 495.64 226.173 495.928 225.581 496.072V496.096C226.317 496.192 226.933 496.488 227.429 496.984C227.925 497.464 228.173 498.112 228.173 498.928C228.173 499.904 227.805 500.664 227.069 501.208C226.333 501.736 225.373 502 224.189 502H219.053ZM220.373 500.872H223.997C224.845 500.872 225.525 500.704 226.037 500.368C226.565 500.032 226.829 499.52 226.829 498.832C226.829 498.128 226.581 497.6 226.085 497.248C225.589 496.896 224.949 496.72 224.165 496.72H220.373V500.872ZM220.373 495.64H224.021C224.645 495.64 225.189 495.488 225.653 495.184C226.117 494.864 226.349 494.392 226.349 493.768C226.349 493.128 226.109 492.664 225.629 492.376C225.165 492.072 224.557 491.92 223.805 491.92H220.373V495.64ZM231.826 502V490.816H233.146V502H231.826ZM233.146 487.072C232.954 487.264 232.73 487.36 232.474 487.36C232.218 487.36 231.994 487.264 231.802 487.072C231.61 486.88 231.514 486.648 231.514 486.376C231.514 486.104 231.61 485.872 231.802 485.68C231.994 485.488 232.218 485.392 232.474 485.392C232.73 485.392 232.954 485.488 233.146 485.68C233.354 485.872 233.458 486.104 233.458 486.376C233.458 486.648 233.354 486.88 233.146 487.072ZM240.038 502V491.92H235.91V490.816H245.462V491.92H241.334V502H240.038ZM251.232 502.312C250.24 502.312 249.352 502.032 248.568 501.472C247.784 500.912 247.392 500.08 247.392 498.976C247.392 498.336 247.528 497.784 247.8 497.32C248.088 496.856 248.448 496.496 248.88 496.24C249.312 495.968 249.848 495.76 250.488 495.616C251.144 495.456 251.776 495.352 252.384 495.304C252.992 495.256 253.688 495.232 254.472 495.232H255.312V494.728C255.312 492.648 254.256 491.608 252.144 491.608C250.832 491.608 249.72 492.048 248.808 492.928L248.088 492.064C249.144 491.04 250.536 490.528 252.264 490.528C253.56 490.528 254.6 490.872 255.384 491.56C256.168 492.248 256.56 493.256 256.56 494.584V499.48C256.56 500.488 256.624 501.328 256.752 502H255.576C255.448 501.232 255.384 500.544 255.384 499.936H255.336C254.456 501.52 253.088 502.312 251.232 502.312ZM251.544 501.232C252.76 501.232 253.688 500.84 254.328 500.056C254.984 499.256 255.312 498.296 255.312 497.176V496.264H254.472C250.648 496.264 248.736 497.144 248.736 498.904C248.736 499.704 249.008 500.296 249.552 500.68C250.112 501.048 250.776 501.232 251.544 501.232ZM260.912 502V490.816H262.856L267.296 500.08L271.76 490.816H273.656V502H272.36V492.328H272.312L267.632 502H266.936L262.232 492.328V502H260.912ZM278.186 502V490.816H279.506V502H278.186ZM279.506 487.072C279.314 487.264 279.09 487.36 278.834 487.36C278.578 487.36 278.354 487.264 278.162 487.072C277.97 486.88 277.874 486.648 277.874 486.376C277.874 486.104 277.97 485.872 278.162 485.68C278.354 485.488 278.578 485.392 278.834 485.392C279.09 485.392 279.314 485.488 279.506 485.68C279.714 485.872 279.818 486.104 279.818 486.376C279.818 486.648 279.714 486.88 279.506 487.072ZM284.022 502V490.816H285.342V495.64H292.206V490.816H293.502V502H292.206V496.744H285.342V502H284.022ZM298.037 502V490.816H299.357V500.176L306.389 490.816H307.805V502H306.533V492.568H306.485L299.453 502H298.037ZM318.334 502V490.816H325.606V491.92H319.654V502H318.334ZM329.685 499.84V507.76H328.389V490.816H329.685V493.048H329.757C330.221 492.216 330.845 491.592 331.629 491.176C332.429 490.744 333.285 490.528 334.197 490.528C335.893 490.528 337.269 491.088 338.325 492.208C339.397 493.312 339.933 494.712 339.933 496.408C339.933 498.104 339.405 499.512 338.349 500.632C337.309 501.752 335.941 502.312 334.245 502.312C333.317 502.312 332.445 502.104 331.629 501.688C330.813 501.256 330.189 500.64 329.757 499.84H329.685ZM337.317 499.816C338.133 498.904 338.541 497.768 338.541 496.408C338.541 495.048 338.133 493.912 337.317 493C336.517 492.072 335.437 491.608 334.077 491.608C332.781 491.608 331.701 492.072 330.837 493C329.989 493.912 329.565 495.048 329.565 496.408C329.565 497.768 329.989 498.904 330.837 499.816C331.701 500.728 332.781 501.184 334.077 501.184C335.437 501.184 336.517 500.728 337.317 499.816ZM343.313 507.784C342.913 507.784 342.473 507.728 341.993 507.616L342.161 506.44C342.497 506.568 342.865 506.632 343.265 506.632C343.809 506.632 344.241 506.456 344.561 506.104C344.897 505.768 345.193 505.264 345.449 504.592L346.409 502.072L341.729 490.816H343.193L347.081 500.656L350.729 490.816H352.145L346.577 505.12C346.225 506 345.801 506.664 345.305 507.112C344.809 507.56 344.145 507.784 343.313 507.784ZM354.826 502V490.816H364.138V502H362.842V491.92H356.146V502H354.826ZM368.678 502V490.816H369.998V500.176L377.03 490.816H378.446V502H377.174V492.568H377.126L370.094 502H368.678ZM389.071 502V485.008H393.991C394.695 485.008 395.343 485.08 395.935 485.224C396.543 485.352 397.119 485.568 397.663 485.872C398.207 486.176 398.631 486.616 398.935 487.192C399.255 487.768 399.415 488.456 399.415 489.256C399.415 490.216 399.119 491.032 398.527 491.704C397.951 492.36 397.199 492.792 396.271 493V493.048C397.375 493.16 398.311 493.592 399.079 494.344C399.847 495.096 400.231 496.096 400.231 497.344C400.231 498.832 399.663 499.984 398.527 500.8C397.407 501.6 395.951 502 394.159 502H389.071ZM390.439 500.824H394.015C395.439 500.824 396.599 500.536 397.495 499.96C398.391 499.384 398.839 498.496 398.839 497.296C398.839 496.096 398.423 495.2 397.591 494.608C396.759 494 395.663 493.696 394.303 493.696H390.439V500.824ZM390.439 492.544H394.087C395.159 492.544 396.079 492.288 396.847 491.776C397.631 491.248 398.023 490.44 398.023 489.352C398.023 488.264 397.623 487.464 396.823 486.952C396.023 486.44 394.991 486.184 393.727 486.184H390.439V492.544ZM405.941 501.04C405.941 501.344 405.837 501.608 405.629 501.832C405.421 502.04 405.165 502.144 404.861 502.144C404.557 502.144 404.301 502.04 404.093 501.832C403.885 501.608 403.781 501.344 403.781 501.04C403.781 500.752 403.885 500.504 404.093 500.296C404.301 500.072 404.557 499.96 404.861 499.96C405.165 499.96 405.421 500.072 405.629 500.296C405.837 500.504 405.941 500.752 405.941 501.04ZM415.532 502V485.008H417.644L423.908 499.72L430.124 485.008H432.236V502H430.868V486.76H430.82L424.268 502H423.5L416.948 486.76H416.9V502H415.532ZM437.338 495.64H445.498C445.45 494.44 445.066 493.472 444.346 492.736C443.642 491.984 442.69 491.608 441.49 491.608C440.306 491.608 439.33 492.032 438.562 492.88C437.794 493.712 437.386 494.632 437.338 495.64ZM441.634 502.312C440.002 502.312 438.65 501.752 437.578 500.632C436.506 499.512 435.97 498.096 435.97 496.384C435.97 494.704 436.498 493.312 437.554 492.208C438.626 491.088 439.946 490.528 441.514 490.528C443.194 490.528 444.49 491.056 445.402 492.112C446.33 493.152 446.794 494.448 446.794 496V496.672H437.314C437.346 497.904 437.762 498.968 438.562 499.864C439.362 500.744 440.402 501.184 441.682 501.184C443.17 501.184 444.45 500.552 445.522 499.288L446.386 499.984C445.186 501.536 443.602 502.312 441.634 502.312ZM450.451 502V490.816H451.771V495.64H458.635V490.816H459.931V502H458.635V496.744H451.771V502H450.451ZM464.467 502V490.816H465.787V502H464.467ZM465.787 487.072C465.595 487.264 465.371 487.36 465.115 487.36C464.859 487.36 464.635 487.264 464.443 487.072C464.251 486.88 464.155 486.648 464.155 486.376C464.155 486.104 464.251 485.872 464.443 485.68C464.635 485.488 464.859 485.392 465.115 485.392C465.371 485.392 465.595 485.488 465.787 485.68C465.995 485.872 466.099 486.104 466.099 486.376C466.099 486.648 465.995 486.88 465.787 487.072ZM92.256 531V519.816H101.568V531H100.272V520.92H93.576V531H92.256ZM111.148 531.312C109.436 531.312 108.02 530.752 106.9 529.632C105.796 528.512 105.244 527.104 105.244 525.408C105.244 523.696 105.796 522.288 106.9 521.184C108.004 520.08 109.42 519.528 111.148 519.528C112.876 519.528 114.292 520.08 115.396 521.184C116.516 522.288 117.076 523.696 117.076 525.408C117.076 527.104 116.516 528.512 115.396 529.632C114.292 530.752 112.876 531.312 111.148 531.312ZM111.148 530.184C112.524 530.184 113.628 529.728 114.46 528.816C115.292 527.904 115.708 526.768 115.708 525.408C115.708 524.048 115.292 522.912 114.46 522C113.628 521.072 112.524 520.608 111.148 520.608C109.788 520.608 108.692 521.072 107.86 522C107.028 522.912 106.612 524.048 106.612 525.408C106.612 526.768 107.028 527.904 107.86 528.816C108.692 529.728 109.788 530.184 111.148 530.184ZM122.827 531V520.92H118.699V519.816H128.251V520.92H124.123V531H122.827ZM132.341 528.84V536.76H131.045V519.816H132.341V522.048H132.413C132.877 521.216 133.501 520.592 134.285 520.176C135.085 519.744 135.941 519.528 136.853 519.528C138.549 519.528 139.925 520.088 140.981 521.208C142.053 522.312 142.589 523.712 142.589 525.408C142.589 527.104 142.061 528.512 141.005 529.632C139.965 530.752 138.597 531.312 136.901 531.312C135.973 531.312 135.101 531.104 134.285 530.688C133.469 530.256 132.845 529.64 132.413 528.84H132.341ZM139.973 528.816C140.789 527.904 141.197 526.768 141.197 525.408C141.197 524.048 140.789 522.912 139.973 522C139.173 521.072 138.093 520.608 136.733 520.608C135.437 520.608 134.357 521.072 133.493 522C132.645 522.912 132.221 524.048 132.221 525.408C132.221 526.768 132.645 527.904 133.493 528.816C134.357 529.728 135.437 530.184 136.733 530.184C138.093 530.184 139.173 529.728 139.973 528.816ZM146.209 531V519.816H147.529V531H146.209ZM147.529 516.072C147.337 516.264 147.113 516.36 146.857 516.36C146.601 516.36 146.377 516.264 146.185 516.072C145.993 515.88 145.897 515.648 145.897 515.376C145.897 515.104 145.993 514.872 146.185 514.68C146.377 514.488 146.601 514.392 146.857 514.392C147.113 514.392 147.337 514.488 147.529 514.68C147.737 514.872 147.841 515.104 147.841 515.376C147.841 515.648 147.737 515.88 147.529 516.072ZM157.253 531.312C155.301 531.312 153.829 530.664 152.837 529.368C151.893 528.296 151.421 526.568 151.421 524.184C151.421 523.176 151.437 522.312 151.469 521.592C151.517 520.856 151.597 520.096 151.709 519.312C151.821 518.528 151.989 517.864 152.213 517.32C152.453 516.776 152.749 516.272 153.101 515.808C153.453 515.328 153.901 514.952 154.445 514.68C155.005 514.408 155.653 514.224 156.389 514.128L159.989 513.696C161.125 513.552 161.789 513.184 161.981 512.592L162.917 512.88C162.645 513.952 161.797 514.576 160.373 514.752L156.941 515.184C155.309 515.392 154.173 516.04 153.533 517.128C152.893 518.216 152.557 520.008 152.525 522.504H152.597C153.589 520.536 155.261 519.552 157.613 519.552C159.261 519.552 160.597 520.112 161.621 521.232C162.645 522.352 163.157 523.752 163.157 525.432C163.157 527.128 162.605 528.536 161.501 529.656C160.397 530.76 158.981 531.312 157.253 531.312ZM153.989 528.84C154.821 529.736 155.909 530.184 157.253 530.184C158.597 530.184 159.685 529.736 160.517 528.84C161.365 527.944 161.789 526.816 161.789 525.456C161.789 524.08 161.381 522.936 160.565 522.024C159.749 521.112 158.669 520.656 157.325 520.656C155.997 520.656 154.901 521.12 154.037 522.048C153.189 522.96 152.765 524.096 152.765 525.456C152.765 526.816 153.173 527.944 153.989 528.84ZM167.315 524.64H175.475C175.427 523.44 175.043 522.472 174.323 521.736C173.619 520.984 172.667 520.608 171.467 520.608C170.283 520.608 169.307 521.032 168.539 521.88C167.771 522.712 167.363 523.632 167.315 524.64ZM171.611 531.312C169.979 531.312 168.627 530.752 167.555 529.632C166.483 528.512 165.947 527.096 165.947 525.384C165.947 523.704 166.475 522.312 167.531 521.208C168.603 520.088 169.923 519.528 171.491 519.528C173.171 519.528 174.467 520.056 175.379 521.112C176.307 522.152 176.771 523.448 176.771 525V525.672H167.291C167.323 526.904 167.739 527.968 168.539 528.864C169.339 529.744 170.379 530.184 171.659 530.184C173.147 530.184 174.427 529.552 175.499 528.288L176.363 528.984C175.163 530.536 173.579 531.312 171.611 531.312ZM180.428 531V519.816H181.748V524.64H188.612V519.816H189.908V531H188.612V525.744H181.748V531H180.428ZM199.7 531L202.748 526.392C200.86 525.992 199.916 524.912 199.916 523.152C199.916 522.096 200.292 521.28 201.044 520.704C201.796 520.112 202.82 519.816 204.116 519.816H208.748V531H207.428V526.488H204.164L201.284 531H199.7ZM204.116 525.384H207.428V520.92H204.188C203.244 520.92 202.516 521.112 202.004 521.496C201.492 521.88 201.236 522.432 201.236 523.152C201.236 523.84 201.484 524.384 201.98 524.784C202.492 525.184 203.204 525.384 204.116 525.384ZM213.312 531V519.816H214.608V525.096H214.68L220.128 519.816H222L216.168 525.144L222.6 531H220.68L214.68 525.312H214.608V531H213.312ZM225.17 531V519.816H226.49V531H225.17ZM226.49 516.072C226.298 516.264 226.074 516.36 225.818 516.36C225.562 516.36 225.338 516.264 225.146 516.072C224.954 515.88 224.858 515.648 224.858 515.376C224.858 515.104 224.954 514.872 225.146 514.68C225.338 514.488 225.562 514.392 225.818 514.392C226.074 514.392 226.298 514.488 226.49 514.68C226.698 514.872 226.802 515.104 226.802 515.376C226.802 515.648 226.698 515.88 226.49 516.072ZM239.934 521.28L239.07 522.072C238.734 521.64 238.286 521.296 237.726 521.04C237.166 520.784 236.582 520.656 235.974 520.656C234.646 520.656 233.566 521.112 232.734 522.024C231.918 522.92 231.51 524.048 231.51 525.408C231.51 526.768 231.918 527.896 232.734 528.792C233.55 529.688 234.614 530.136 235.926 530.136C237.238 530.136 238.326 529.688 239.19 528.792L240.006 529.536C238.982 530.72 237.622 531.312 235.926 531.312C234.198 531.312 232.806 530.76 231.75 529.656C230.694 528.552 230.166 527.136 230.166 525.408C230.166 523.696 230.702 522.288 231.774 521.184C232.862 520.08 234.254 519.528 235.95 519.528C237.678 519.528 239.006 520.112 239.934 521.28ZM242.865 531V519.816H244.185V524.64H251.049V519.816H252.345V531H251.049V525.744H244.185V531H242.865ZM256.881 531V519.816H258.201V529.176L265.233 519.816H266.649V531H265.377V521.568H265.329L258.297 531H256.881ZM278.33 516.384C277.738 516.928 276.978 517.2 276.05 517.2C275.122 517.2 274.354 516.928 273.746 516.384C273.154 515.824 272.802 515.096 272.69 514.2L273.602 514.032C273.714 514.704 273.994 515.224 274.442 515.592C274.89 515.96 275.426 516.144 276.05 516.144C276.674 516.144 277.21 515.96 277.658 515.592C278.106 515.224 278.386 514.704 278.498 514.032L279.41 514.2C279.298 515.096 278.938 515.824 278.33 516.384ZM271.178 531V519.816H272.498V529.176L279.53 519.816H280.946V531H279.674V521.568H279.626L272.594 531H271.178ZM294.451 531.312C293.459 531.312 292.571 531.032 291.787 530.472C291.003 529.912 290.611 529.08 290.611 527.976C290.611 527.336 290.747 526.784 291.019 526.32C291.307 525.856 291.667 525.496 292.099 525.24C292.531 524.968 293.067 524.76 293.707 524.616C294.363 524.456 294.995 524.352 295.603 524.304C296.211 524.256 296.907 524.232 297.691 524.232H298.531V523.728C298.531 521.648 297.475 520.608 295.363 520.608C294.051 520.608 292.939 521.048 292.027 521.928L291.307 521.064C292.363 520.04 293.755 519.528 295.483 519.528C296.779 519.528 297.819 519.872 298.603 520.56C299.387 521.248 299.779 522.256 299.779 523.584V528.48C299.779 529.488 299.843 530.328 299.971 531H298.795C298.667 530.232 298.603 529.544 298.603 528.936H298.555C297.675 530.52 296.307 531.312 294.451 531.312ZM294.763 530.232C295.979 530.232 296.907 529.84 297.547 529.056C298.203 528.256 298.531 527.296 298.531 526.176V525.264H297.691C293.867 525.264 291.955 526.144 291.955 527.904C291.955 528.704 292.227 529.296 292.771 529.68C293.331 530.048 293.995 530.232 294.763 530.232ZM304.131 531V519.816H305.451V524.64H312.315V519.816H313.611V531H312.315V525.744H305.451V531H304.131ZM321.123 531.312C320.131 531.312 319.243 531.032 318.459 530.472C317.675 529.912 317.283 529.08 317.283 527.976C317.283 527.336 317.419 526.784 317.691 526.32C317.979 525.856 318.339 525.496 318.771 525.24C319.203 524.968 319.739 524.76 320.379 524.616C321.035 524.456 321.667 524.352 322.275 524.304C322.883 524.256 323.579 524.232 324.363 524.232H325.203V523.728C325.203 521.648 324.147 520.608 322.035 520.608C320.723 520.608 319.611 521.048 318.699 521.928L317.979 521.064C319.035 520.04 320.427 519.528 322.155 519.528C323.451 519.528 324.491 519.872 325.275 520.56C326.059 521.248 326.451 522.256 326.451 523.584V528.48C326.451 529.488 326.515 530.328 326.643 531H325.467C325.339 530.232 325.275 529.544 325.275 528.936H325.227C324.347 530.52 322.979 531.312 321.123 531.312ZM321.435 530.232C322.651 530.232 323.579 529.84 324.219 529.056C324.875 528.256 325.203 527.296 325.203 526.176V525.264H324.363C320.539 525.264 318.627 526.144 318.627 527.904C318.627 528.704 318.899 529.296 319.443 529.68C320.003 530.048 320.667 530.232 321.435 530.232ZM329.939 531.12C329.523 531.12 329.155 531.072 328.835 530.976L329.003 529.848C329.211 529.928 329.459 529.968 329.747 529.968C330.691 529.968 331.379 529.464 331.811 528.456C332.259 527.432 332.483 525.848 332.483 523.704V519.816H340.235V531H338.939V520.92H333.755V524.112C333.755 528.784 332.483 531.12 329.939 531.12ZM349.788 531.312C348.076 531.312 346.66 530.752 345.54 529.632C344.436 528.512 343.884 527.104 343.884 525.408C343.884 523.696 344.436 522.288 345.54 521.184C346.644 520.08 348.06 519.528 349.788 519.528C351.516 519.528 352.932 520.08 354.036 521.184C355.156 522.288 355.716 523.696 355.716 525.408C355.716 527.104 355.156 528.512 354.036 529.632C352.932 530.752 351.516 531.312 349.788 531.312ZM349.788 530.184C351.164 530.184 352.268 529.728 353.1 528.816C353.932 527.904 354.348 526.768 354.348 525.408C354.348 524.048 353.932 522.912 353.1 522C352.268 521.072 351.164 520.608 349.788 520.608C348.428 520.608 347.332 521.072 346.5 522C345.668 522.912 345.252 524.048 345.252 525.408C345.252 526.768 345.668 527.904 346.5 528.816C347.332 529.728 348.428 530.184 349.788 530.184ZM359.373 531V519.816H366.645V520.92H360.693V531H359.373ZM378.572 531.312C376.572 531.312 375.084 530.624 374.108 529.248L375.068 528.48C375.884 529.616 377.044 530.184 378.548 530.184C379.396 530.184 380.108 529.992 380.684 529.608C381.26 529.224 381.548 528.64 381.548 527.856C381.548 527.152 381.236 526.616 380.612 526.248C379.988 525.88 379.196 525.696 378.236 525.696H377.3V524.64H378.14C379.036 524.64 379.772 524.456 380.348 524.088C380.924 523.704 381.212 523.168 381.212 522.48C381.212 521.856 380.956 521.392 380.444 521.088C379.948 520.768 379.284 520.608 378.452 520.608C377.86 520.608 377.292 520.744 376.748 521.016C376.22 521.288 375.804 521.664 375.5 522.144L374.492 521.424C374.86 520.816 375.396 520.352 376.1 520.032C376.82 519.696 377.62 519.528 378.5 519.528C379.7 519.528 380.668 519.784 381.404 520.296C382.14 520.808 382.508 521.536 382.508 522.48C382.508 523.136 382.284 523.704 381.836 524.184C381.404 524.648 380.836 524.952 380.132 525.096V525.144C380.948 525.256 381.604 525.56 382.1 526.056C382.596 526.552 382.844 527.168 382.844 527.904C382.844 528.96 382.444 529.792 381.644 530.4C380.86 531.008 379.836 531.312 378.572 531.312ZM389.537 531.312C388.545 531.312 387.657 531.032 386.873 530.472C386.089 529.912 385.697 529.08 385.697 527.976C385.697 527.336 385.833 526.784 386.105 526.32C386.393 525.856 386.753 525.496 387.185 525.24C387.617 524.968 388.153 524.76 388.793 524.616C389.449 524.456 390.081 524.352 390.689 524.304C391.297 524.256 391.993 524.232 392.777 524.232H393.617V523.728C393.617 521.648 392.561 520.608 390.449 520.608C389.137 520.608 388.025 521.048 387.113 521.928L386.393 521.064C387.449 520.04 388.841 519.528 390.569 519.528C391.865 519.528 392.905 519.872 393.689 520.56C394.473 521.248 394.865 522.256 394.865 523.584V528.48C394.865 529.488 394.929 530.328 395.057 531H393.881C393.753 530.232 393.689 529.544 393.689 528.936H393.641C392.761 530.52 391.393 531.312 389.537 531.312ZM389.849 530.232C391.065 530.232 391.993 529.84 392.633 529.056C393.289 528.256 393.617 527.296 393.617 526.176V525.264H392.777C388.953 525.264 387.041 526.144 387.041 527.904C387.041 528.704 387.313 529.296 387.857 529.68C388.417 530.048 389.081 530.232 389.849 530.232ZM92.256 561V549.816H101.568V561H100.272V550.92H93.576V561H92.256ZM107.404 558.84V566.76H106.108V549.816H107.404V552.048H107.476C107.94 551.216 108.564 550.592 109.348 550.176C110.148 549.744 111.004 549.528 111.916 549.528C113.612 549.528 114.988 550.088 116.044 551.208C117.116 552.312 117.652 553.712 117.652 555.408C117.652 557.104 117.124 558.512 116.068 559.632C115.028 560.752 113.66 561.312 111.964 561.312C111.036 561.312 110.164 561.104 109.348 560.688C108.532 560.256 107.908 559.64 107.476 558.84H107.404ZM115.036 558.816C115.852 557.904 116.26 556.768 116.26 555.408C116.26 554.048 115.852 552.912 115.036 552C114.236 551.072 113.156 550.608 111.796 550.608C110.5 550.608 109.42 551.072 108.556 552C107.708 552.912 107.284 554.048 107.284 555.408C107.284 556.768 107.708 557.904 108.556 558.816C109.42 559.728 110.5 560.184 111.796 560.184C113.156 560.184 114.236 559.728 115.036 558.816ZM121.272 561V549.816H122.592V559.176L129.624 549.816H131.04V561H129.768V551.568H129.72L122.688 561H121.272ZM142.721 546.384C142.129 546.928 141.369 547.2 140.441 547.2C139.513 547.2 138.745 546.928 138.137 546.384C137.545 545.824 137.193 545.096 137.081 544.2L137.993 544.032C138.105 544.704 138.385 545.224 138.833 545.592C139.281 545.96 139.817 546.144 140.441 546.144C141.065 546.144 141.601 545.96 142.049 545.592C142.497 545.224 142.777 544.704 142.889 544.032L143.801 544.2C143.689 545.096 143.329 545.824 142.721 546.384ZM135.569 561V549.816H136.889V559.176L143.921 549.816H145.337V561H144.065V551.568H144.017L136.985 561H135.569ZM149.865 561V549.816H151.185V554.64H158.049V549.816H159.345V561H158.049V555.744H151.185V561H149.865ZM163.137 561L166.185 556.392C164.297 555.992 163.353 554.912 163.353 553.152C163.353 552.096 163.729 551.28 164.481 550.704C165.233 550.112 166.257 549.816 167.553 549.816H172.185V561H170.865V556.488H167.601L164.721 561H163.137ZM167.553 555.384H170.865V550.92H167.625C166.681 550.92 165.953 551.112 165.441 551.496C164.929 551.88 164.673 552.432 164.673 553.152C164.673 553.84 164.921 554.384 165.417 554.784C165.929 555.184 166.641 555.384 167.553 555.384ZM179.077 561V550.92H174.949V549.816H184.501V550.92H180.373V561H179.077ZM187.295 561V549.816H188.615V554.64H195.479V549.816H196.775V561H195.479V555.744H188.615V561H187.295ZM206.351 561.312C204.639 561.312 203.223 560.752 202.103 559.632C200.999 558.512 200.447 557.104 200.447 555.408C200.447 553.696 200.999 552.288 202.103 551.184C203.207 550.08 204.623 549.528 206.351 549.528C208.079 549.528 209.495 550.08 210.599 551.184C211.719 552.288 212.279 553.696 212.279 555.408C212.279 557.104 211.719 558.512 210.599 559.632C209.495 560.752 208.079 561.312 206.351 561.312ZM206.351 560.184C207.727 560.184 208.831 559.728 209.663 558.816C210.495 557.904 210.911 556.768 210.911 555.408C210.911 554.048 210.495 552.912 209.663 552C208.831 551.072 207.727 550.608 206.351 550.608C204.991 550.608 203.895 551.072 203.063 552C202.231 552.912 201.815 554.048 201.815 555.408C201.815 556.768 202.231 557.904 203.063 558.816C203.895 559.728 204.991 560.184 206.351 560.184ZM215.936 561V549.816H217.256V554.64H219.968C220.144 553.152 220.744 551.928 221.768 550.968C222.808 550.008 224.096 549.528 225.632 549.528C227.312 549.528 228.68 550.088 229.736 551.208C230.792 552.328 231.32 553.736 231.32 555.432C231.32 557.128 230.784 558.536 229.712 559.656C228.656 560.776 227.296 561.336 225.632 561.336C224.016 561.336 222.68 560.808 221.624 559.752C220.584 558.696 220.024 557.368 219.944 555.768L217.256 555.744V561H215.936ZM225.632 560.232C226.928 560.232 227.968 559.776 228.752 558.864C229.552 557.936 229.952 556.792 229.952 555.432C229.952 554.072 229.552 552.936 228.752 552.024C227.968 551.096 226.928 550.632 225.632 550.632C224.32 550.632 223.272 551.088 222.488 552C221.704 552.912 221.312 554.056 221.312 555.432C221.312 556.808 221.704 557.952 222.488 558.864C223.272 559.776 224.32 560.232 225.632 560.232ZM250.879 564.672V561H240.967V549.816H242.287V559.872H248.983V549.816H250.279V559.872H252.103V564.672H250.879ZM255.217 561V549.816H256.537V561H255.217ZM256.537 546.072C256.345 546.264 256.121 546.36 255.865 546.36C255.609 546.36 255.385 546.264 255.193 546.072C255.001 545.88 254.905 545.648 254.905 545.376C254.905 545.104 255.001 544.872 255.193 544.68C255.385 544.488 255.609 544.392 255.865 544.392C256.121 544.392 256.345 544.488 256.537 544.68C256.745 544.872 256.849 545.104 256.849 545.376C256.849 545.648 256.745 545.88 256.537 546.072ZM261.053 561V549.816H262.373V554.64H269.237V549.816H270.533V561H269.237V555.744H262.373V561H261.053ZM280.109 561.312C278.397 561.312 276.981 560.752 275.861 559.632C274.757 558.512 274.205 557.104 274.205 555.408C274.205 553.696 274.757 552.288 275.861 551.184C276.965 550.08 278.381 549.528 280.109 549.528C281.837 549.528 283.253 550.08 284.357 551.184C285.477 552.288 286.036 553.696 286.036 555.408C286.036 557.104 285.477 558.512 284.357 559.632C283.253 560.752 281.837 561.312 280.109 561.312ZM280.109 560.184C281.485 560.184 282.589 559.728 283.421 558.816C284.253 557.904 284.669 556.768 284.669 555.408C284.669 554.048 284.253 552.912 283.421 552C282.589 551.072 281.485 550.608 280.109 550.608C278.749 550.608 277.653 551.072 276.821 552C275.989 552.912 275.573 554.048 275.573 555.408C275.573 556.768 275.989 557.904 276.821 558.816C277.653 559.728 278.749 560.184 280.109 560.184ZM289.694 561V549.816H291.014V554.64H293.726C293.902 553.152 294.502 551.928 295.526 550.968C296.566 550.008 297.854 549.528 299.39 549.528C301.07 549.528 302.438 550.088 303.494 551.208C304.55 552.328 305.078 553.736 305.078 555.432C305.078 557.128 304.542 558.536 303.47 559.656C302.414 560.776 301.054 561.336 299.39 561.336C297.774 561.336 296.438 560.808 295.382 559.752C294.342 558.696 293.782 557.368 293.702 555.768L291.014 555.744V561H289.694ZM299.39 560.232C300.686 560.232 301.726 559.776 302.51 558.864C303.31 557.936 303.71 556.792 303.71 555.432C303.71 554.072 303.31 552.936 302.51 552.024C301.726 551.096 300.686 550.632 299.39 550.632C298.078 550.632 297.03 551.088 296.246 552C295.462 552.912 295.07 554.056 295.07 555.432C295.07 556.808 295.462 557.952 296.246 558.864C297.03 559.776 298.078 560.232 299.39 560.232ZM310.597 560.04C310.597 560.344 310.493 560.608 310.285 560.832C310.077 561.04 309.821 561.144 309.517 561.144C309.213 561.144 308.957 561.04 308.749 560.832C308.541 560.608 308.437 560.344 308.437 560.04C308.437 559.752 308.541 559.504 308.749 559.296C308.957 559.072 309.213 558.96 309.517 558.96C309.821 558.96 310.077 559.072 310.285 559.296C310.493 559.504 310.597 559.752 310.597 560.04Z" fill="#424242"/>
<mask id="mask0" mask-type="alpha" maskUnits="userSpaceOnUse" x="40" y="40" width="540" height="350">
<path d="M40 80C40 57.9086 57.9086 40 80 40H540C562.091 40 580 57.9086 580 80V390H40V80Z" fill="#CDCDCD"/>
</mask>
<g mask="url(#mask0)">
<rect x="-29.3203" y="-45.4521" width="887.157" height="592.427" transform="rotate(7.82712 -29.3203 -45.4521)"/>
<path opacity="0.2" d="M40 80C40 57.9086 57.9086 40 80 40H540C562.091 40 580 57.9086 580 80V390H40V80Z" fill="url(#paint0_linear)"/>
</g>
<defs>
<filter id="filter0_d" x="0" y="0" width="620" height="670" filterUnits="userSpaceOnUse" color-interpolation-filters="sRGB">
<feFlood flood-opacity="0" result="BackgroundImageFix"/>
<feColorMatrix in="SourceAlpha" type="matrix" values="0 0 0 0 0 0 0 0 0 0 0 0 0 0 0 0 0 0 127 0"/>
<feOffset/>
<feGaussianBlur stdDeviation="20"/>
<feColorMatrix type="matrix" values="0 0 0 0 0.497817 0 0 0 0 0.497817 0 0 0 0 0.497817 0 0 0 0.4 0"/>
<feBlend mode="normal" in2="BackgroundImageFix" result="effect1_dropShadow"/>
<feBlend mode="normal" in="SourceGraphic" in2="effect1_dropShadow" result="shape"/>
</filter>
<linearGradient id="paint0_linear" x1="40" y1="215" x2="379.545" y2="-45.8898" gradientUnits="userSpaceOnUse">
<stop stop-color="#2D8550"/>
<stop offset="1" stop-color="#5E6EC2"/>
</linearGradient>
</defs>
</svg>
