<svg width="620" height="670" viewBox="0 0 620 670" fill="none" xmlns="http://www.w3.org/2000/svg">
<g filter="url(#filter0_d)">
<path d="M40 80C40 57.9086 57.9086 40 80 40H540C562.091 40 580 57.9086 580 80V590C580 612.091 562.091 630 540 630H80C57.9086 630 40 612.091 40 590V80Z" fill="white"/>
</g>
<path d="M92.336 436V413.344H100.112L105.264 427.872H105.392L110.32 413.344H118.224V436H112.88L113.008 419.968H112.912L107.024 436H103.184L97.456 419.968H97.36L97.488 436H92.336ZM127.411 436.384C126.472 436.384 125.587 436.245 124.755 435.968C123.944 435.669 123.219 435.125 122.579 434.336C121.939 433.547 121.618 432.565 121.618 431.392C121.618 427.808 125.032 426.016 131.859 426.016V425.76C131.859 425.013 131.592 424.448 131.059 424.064C130.525 423.659 129.832 423.456 128.979 423.456C127.528 423.456 126.216 424 125.043 425.088L122.387 422.24C124.285 420.448 126.653 419.552 129.491 419.552C132.115 419.552 133.992 420.224 135.123 421.568C136.253 422.891 136.819 425.024 136.819 427.968V436H132.019V434.304H131.923C131.539 434.944 130.931 435.456 130.099 435.84C129.267 436.203 128.371 436.384 127.411 436.384ZM128.723 432.864C129.768 432.864 130.579 432.576 131.155 432C131.731 431.403 132.019 430.603 132.019 429.6V429.056H131.347C128.083 429.056 126.451 429.781 126.451 431.232C126.451 431.787 126.675 432.203 127.123 432.48C127.571 432.736 128.104 432.864 128.723 432.864ZM140.736 443.68V420.064H145.728V422.016H145.824C146.336 421.312 147.029 420.736 147.904 420.288C148.8 419.84 149.802 419.616 150.912 419.616C153.152 419.616 154.965 420.437 156.352 422.08C157.76 423.701 158.464 425.664 158.464 427.968C158.464 430.315 157.77 432.32 156.384 433.984C155.018 435.627 153.184 436.448 150.88 436.448C149.898 436.448 148.97 436.256 148.095 435.872C147.221 435.467 146.538 434.923 146.048 434.24H145.984V443.68H140.736ZM149.632 432.096C150.805 432.096 151.722 431.691 152.384 430.88C153.045 430.069 153.376 429.099 153.376 427.968C153.376 426.859 153.045 425.909 152.384 425.12C151.722 424.309 150.805 423.904 149.632 423.904C148.501 423.904 147.573 424.32 146.848 425.152C146.144 425.984 145.792 426.933 145.792 428C145.792 429.088 146.144 430.048 146.848 430.88C147.573 431.691 148.501 432.096 149.632 432.096ZM161.831 436V420.064H167.079V436H161.831ZM166.567 417.024C165.991 417.579 165.287 417.856 164.455 417.856C163.623 417.856 162.908 417.579 162.311 417.024C161.735 416.448 161.447 415.765 161.447 414.976C161.447 414.208 161.735 413.536 162.311 412.96C162.908 412.384 163.623 412.096 164.455 412.096C165.287 412.096 165.991 412.384 166.567 412.96C167.164 413.515 167.463 414.187 167.463 414.976C167.463 415.787 167.164 416.469 166.567 417.024ZM170.148 436L173.891 430.144C171.737 429.376 170.66 427.797 170.66 425.408C170.66 423.637 171.278 422.304 172.516 421.408C173.753 420.512 175.31 420.064 177.188 420.064H186.083V436H180.804V430.72H178.852L176.132 436H170.148ZM178.276 427.424H180.804V423.392H178.276C177.486 423.392 176.846 423.563 176.356 423.904C175.865 424.245 175.62 424.747 175.62 425.408C175.62 426.752 176.505 427.424 178.276 427.424ZM196.47 430.88L193.366 439.968H189.046L191.446 430.88H196.47ZM219.463 436H214.087V419.36L209.863 422.624L207.079 418.816L214.535 413.344H219.463V436ZM244.983 420.832C244.983 422.987 244.14 425.323 242.455 427.84L236.983 436H230.487L236.119 428.192L236.183 428.096C235.713 428.267 235.18 428.352 234.583 428.352C232.535 428.352 230.775 427.659 229.303 426.272C227.852 424.885 227.127 423.115 227.127 420.96C227.127 418.464 227.98 416.469 229.687 414.976C231.393 413.483 233.516 412.736 236.055 412.736C238.593 412.736 240.716 413.483 242.423 414.976C244.129 416.448 244.983 418.4 244.983 420.832ZM239.607 420.768C239.607 419.765 239.276 418.912 238.615 418.208C237.975 417.504 237.132 417.152 236.087 417.152C235.02 417.152 234.156 417.493 233.495 418.176C232.833 418.859 232.503 419.733 232.503 420.8C232.503 421.824 232.823 422.677 233.463 423.36C234.124 424.021 234.977 424.352 236.023 424.352C237.089 424.352 237.953 424.021 238.615 423.36C239.276 422.699 239.607 421.835 239.607 420.768ZM256.454 443.68V420.064H261.446V422.016H261.542C262.054 421.312 262.748 420.736 263.622 420.288C264.518 419.84 265.521 419.616 266.63 419.616C268.87 419.616 270.684 420.437 272.07 422.08C273.478 423.701 274.182 425.664 274.182 427.968C274.182 430.315 273.489 432.32 272.102 433.984C270.737 435.627 268.902 436.448 266.598 436.448C265.617 436.448 264.689 436.256 263.814 435.872C262.94 435.467 262.257 434.923 261.766 434.24H261.702V443.68H256.454ZM265.35 432.096C266.524 432.096 267.441 431.691 268.102 430.88C268.764 430.069 269.094 429.099 269.094 427.968C269.094 426.859 268.764 425.909 268.102 425.12C267.441 424.309 266.524 423.904 265.35 423.904C264.22 423.904 263.292 424.32 262.566 425.152C261.862 425.984 261.51 426.933 261.51 428C261.51 429.088 261.862 430.048 262.566 430.88C263.292 431.691 264.22 432.096 265.35 432.096ZM285.518 436.512C283.043 436.512 280.952 435.723 279.246 434.144C277.539 432.565 276.686 430.507 276.686 427.968C276.686 425.429 277.539 423.392 279.246 421.856C280.952 420.32 283.043 419.552 285.518 419.552C288.014 419.552 290.115 420.32 291.822 421.856C293.528 423.392 294.382 425.429 294.382 427.968C294.382 430.507 293.528 432.565 291.822 434.144C290.115 435.723 288.014 436.512 285.518 436.512ZM282.766 430.88C283.448 431.691 284.376 432.096 285.55 432.096C286.723 432.096 287.64 431.691 288.302 430.88C288.984 430.048 289.326 429.077 289.326 427.968C289.326 426.88 288.984 425.931 288.302 425.12C287.619 424.309 286.691 423.904 285.518 423.904C284.344 423.904 283.427 424.309 282.766 425.12C282.104 425.909 281.774 426.859 281.774 427.968C281.774 429.077 282.104 430.048 282.766 430.88ZM297.704 436V420.064H302.984V426.816H303.08L308.296 420.064H314.664L308.424 427.52L314.952 436H308.52L303.08 428.8H302.984V436H297.704ZM316.924 436V420.064H322.173V436H316.924ZM321.661 417.024C321.085 417.579 320.381 417.856 319.549 417.856C318.717 417.856 318.002 417.579 317.405 417.024C316.829 416.448 316.541 415.765 316.541 414.976C316.541 414.208 316.829 413.536 317.405 412.96C318.002 412.384 318.717 412.096 319.549 412.096C320.381 412.096 321.085 412.384 321.661 412.96C322.258 413.515 322.557 414.187 322.557 414.976C322.557 415.787 322.258 416.469 321.661 417.024ZM326.329 436V420.064H335.161C339.065 420.064 341.017 421.461 341.017 424.256C341.017 425.067 340.783 425.771 340.313 426.368C339.865 426.965 339.257 427.381 338.489 427.616V427.68C339.407 427.851 340.175 428.267 340.793 428.928C341.412 429.589 341.721 430.421 341.721 431.424C341.721 432.939 341.145 434.08 339.993 434.848C338.841 435.616 337.369 436 335.577 436H326.329ZM331.449 432.768H334.041C334.745 432.768 335.321 432.619 335.769 432.32C336.239 432 336.473 431.552 336.473 430.976C336.473 429.803 335.641 429.216 333.977 429.216H331.449V432.768ZM331.449 426.496H334.009C334.564 426.496 335.033 426.357 335.417 426.08C335.823 425.803 336.025 425.387 336.025 424.832C336.025 423.787 335.279 423.264 333.785 423.264H331.449V426.496Z" fill="#8E9AD5"/>
<path d="M92.352 473V456.008H102.192V457.232H93.72V463.496H97.488C99.232 463.496 100.64 463.904 101.712 464.72C102.8 465.536 103.344 466.728 103.344 468.296C103.344 469.864 102.8 471.04 101.712 471.824C100.624 472.608 99.192 473 97.416 473H92.352ZM93.72 471.824H97.296C98.72 471.824 99.848 471.544 100.68 470.984C101.528 470.408 101.952 469.52 101.952 468.32C101.952 467.136 101.544 466.24 100.728 465.632C99.912 465.008 98.8 464.696 97.392 464.696H93.72V471.824ZM110.162 473.312C109.17 473.312 108.282 473.032 107.498 472.472C106.714 471.912 106.322 471.08 106.322 469.976C106.322 469.336 106.458 468.784 106.73 468.32C107.018 467.856 107.378 467.496 107.81 467.24C108.242 466.968 108.778 466.76 109.418 466.616C110.074 466.456 110.706 466.352 111.314 466.304C111.922 466.256 112.618 466.232 113.402 466.232H114.242V465.728C114.242 463.648 113.186 462.608 111.074 462.608C109.762 462.608 108.65 463.048 107.738 463.928L107.018 463.064C108.074 462.04 109.466 461.528 111.194 461.528C112.49 461.528 113.53 461.872 114.314 462.56C115.098 463.248 115.49 464.256 115.49 465.584V470.48C115.49 471.488 115.554 472.328 115.682 473H114.506C114.378 472.232 114.314 471.544 114.314 470.936H114.266C113.386 472.52 112.018 473.312 110.162 473.312ZM110.474 472.232C111.69 472.232 112.618 471.84 113.258 471.056C113.914 470.256 114.242 469.296 114.242 468.176V467.264H113.402C109.578 467.264 107.666 468.144 107.666 469.904C107.666 470.704 107.938 471.296 108.482 471.68C109.042 472.048 109.706 472.232 110.474 472.232ZM125.05 473.312C123.098 473.312 121.626 472.664 120.634 471.368C119.69 470.296 119.218 468.568 119.218 466.184C119.218 465.176 119.234 464.312 119.266 463.592C119.314 462.856 119.394 462.096 119.506 461.312C119.618 460.528 119.786 459.864 120.01 459.32C120.25 458.776 120.546 458.272 120.898 457.808C121.25 457.328 121.698 456.952 122.242 456.68C122.802 456.408 123.45 456.224 124.186 456.128L127.786 455.696C128.922 455.552 129.586 455.184 129.778 454.592L130.714 454.88C130.442 455.952 129.594 456.576 128.17 456.752L124.738 457.184C123.106 457.392 121.97 458.04 121.33 459.128C120.69 460.216 120.354 462.008 120.322 464.504H120.394C121.386 462.536 123.058 461.552 125.41 461.552C127.058 461.552 128.394 462.112 129.418 463.232C130.442 464.352 130.954 465.752 130.954 467.432C130.954 469.128 130.402 470.536 129.298 471.656C128.194 472.76 126.778 473.312 125.05 473.312ZM121.786 470.84C122.618 471.736 123.706 472.184 125.05 472.184C126.394 472.184 127.482 471.736 128.314 470.84C129.162 469.944 129.586 468.816 129.586 467.456C129.586 466.08 129.178 464.936 128.362 464.024C127.546 463.112 126.466 462.656 125.122 462.656C123.794 462.656 122.698 463.12 121.834 464.048C120.986 464.96 120.562 466.096 120.562 467.456C120.562 468.816 120.97 469.944 121.786 470.84ZM134.133 478.784C133.733 478.784 133.293 478.728 132.813 478.616L132.981 477.44C133.317 477.568 133.685 477.632 134.085 477.632C134.629 477.632 135.061 477.456 135.381 477.104C135.717 476.768 136.013 476.264 136.269 475.592L137.229 473.072L132.549 461.816H134.013L137.901 471.656L141.549 461.816H142.965L137.397 476.12C137.045 477 136.621 477.664 136.125 478.112C135.629 478.56 134.965 478.784 134.133 478.784ZM154.575 463.28L153.711 464.072C153.375 463.64 152.927 463.296 152.367 463.04C151.807 462.784 151.223 462.656 150.615 462.656C149.287 462.656 148.207 463.112 147.375 464.024C146.559 464.92 146.151 466.048 146.151 467.408C146.151 468.768 146.559 469.896 147.375 470.792C148.191 471.688 149.255 472.136 150.567 472.136C151.879 472.136 152.967 471.688 153.831 470.792L154.647 471.536C153.623 472.72 152.263 473.312 150.567 473.312C148.839 473.312 147.447 472.76 146.391 471.656C145.335 470.552 144.807 469.136 144.807 467.408C144.807 465.696 145.343 464.288 146.415 463.184C147.503 462.08 148.895 461.528 150.591 461.528C152.319 461.528 153.647 462.112 154.575 463.28ZM156.762 473L159.81 468.392C157.922 467.992 156.978 466.912 156.978 465.152C156.978 464.096 157.354 463.28 158.106 462.704C158.858 462.112 159.882 461.816 161.178 461.816H165.81V473H164.49V468.488H161.226L158.346 473H156.762ZM161.178 467.384H164.49V462.92H161.25C160.306 462.92 159.578 463.112 159.066 463.496C158.554 463.88 158.298 464.432 158.298 465.152C158.298 465.84 158.546 466.384 159.042 466.784C159.554 467.184 160.266 467.384 161.178 467.384ZM176.326 473V461.816H185.638V473H184.342V462.92H177.646V473H176.326ZM191.474 470.84V478.76H190.178V461.816H191.474V464.048H191.546C192.01 463.216 192.634 462.592 193.418 462.176C194.218 461.744 195.074 461.528 195.986 461.528C197.682 461.528 199.058 462.088 200.114 463.208C201.186 464.312 201.722 465.712 201.722 467.408C201.722 469.104 201.194 470.512 200.138 471.632C199.098 472.752 197.73 473.312 196.034 473.312C195.106 473.312 194.234 473.104 193.418 472.688C192.602 472.256 191.978 471.64 191.546 470.84H191.474ZM199.106 470.816C199.922 469.904 200.33 468.768 200.33 467.408C200.33 466.048 199.922 464.912 199.106 464C198.306 463.072 197.226 462.608 195.866 462.608C194.57 462.608 193.49 463.072 192.626 464C191.778 464.912 191.354 466.048 191.354 467.408C191.354 468.768 191.778 469.904 192.626 470.816C193.49 471.728 194.57 472.184 195.866 472.184C197.226 472.184 198.306 471.728 199.106 470.816ZM205.342 473V461.816H206.662V471.176L213.694 461.816H215.11V473H213.838V463.568H213.79L206.758 473H205.342ZM226.791 458.384C226.199 458.928 225.439 459.2 224.511 459.2C223.583 459.2 222.815 458.928 222.207 458.384C221.615 457.824 221.263 457.096 221.151 456.2L222.063 456.032C222.175 456.704 222.455 457.224 222.903 457.592C223.351 457.96 223.887 458.144 224.511 458.144C225.135 458.144 225.671 457.96 226.119 457.592C226.567 457.224 226.847 456.704 226.959 456.032L227.871 456.2C227.759 457.096 227.399 457.824 226.791 458.384ZM219.639 473V461.816H220.959V471.176L227.991 461.816H229.407V473H228.135V463.568H228.087L221.055 473H219.639ZM233.936 473V461.816H235.88L240.32 471.08L244.784 461.816H246.68V473H245.384V463.328H245.336L240.656 473H239.96L235.256 463.328V473H233.936ZM254.185 473.312C253.193 473.312 252.305 473.032 251.521 472.472C250.737 471.912 250.345 471.08 250.345 469.976C250.345 469.336 250.481 468.784 250.753 468.32C251.041 467.856 251.401 467.496 251.833 467.24C252.265 466.968 252.801 466.76 253.441 466.616C254.097 466.456 254.729 466.352 255.337 466.304C255.945 466.256 256.641 466.232 257.425 466.232H258.265V465.728C258.265 463.648 257.209 462.608 255.097 462.608C253.785 462.608 252.673 463.048 251.761 463.928L251.041 463.064C252.097 462.04 253.489 461.528 255.217 461.528C256.513 461.528 257.553 461.872 258.337 462.56C259.121 463.248 259.513 464.256 259.513 465.584V470.48C259.513 471.488 259.577 472.328 259.705 473H258.529C258.401 472.232 258.337 471.544 258.337 470.936H258.289C257.409 472.52 256.041 473.312 254.185 473.312ZM254.497 472.232C255.713 472.232 256.641 471.84 257.281 471.056C257.937 470.256 258.265 469.296 258.265 468.176V467.264H257.425C253.601 467.264 251.689 468.144 251.689 469.904C251.689 470.704 251.961 471.296 252.505 471.68C253.065 472.048 253.729 472.232 254.497 472.232ZM268.881 473.312C267.137 473.312 265.721 472.768 264.633 471.68C263.545 470.576 263.001 469.152 263.001 467.408C263.001 465.664 263.537 464.248 264.609 463.16C265.681 462.072 267.097 461.528 268.857 461.528C270.617 461.528 271.977 462.096 272.937 463.232L272.049 464.048C271.169 463.072 270.105 462.584 268.857 462.584C267.641 462.584 266.633 462.96 265.833 463.712C265.033 464.464 264.553 465.44 264.393 466.64H270.225V467.744H264.345C264.409 469.024 264.849 470.096 265.665 470.96C266.497 471.808 267.569 472.232 268.881 472.232C270.177 472.232 271.249 471.752 272.097 470.792L273.033 471.56C272.025 472.728 270.641 473.312 268.881 473.312ZM286.98 473.312C285.028 473.312 283.556 472.664 282.564 471.368C281.62 470.296 281.148 468.568 281.148 466.184C281.148 465.176 281.164 464.312 281.196 463.592C281.244 462.856 281.324 462.096 281.436 461.312C281.548 460.528 281.716 459.864 281.94 459.32C282.18 458.776 282.476 458.272 282.828 457.808C283.18 457.328 283.628 456.952 284.172 456.68C284.732 456.408 285.38 456.224 286.116 456.128L289.716 455.696C290.852 455.552 291.516 455.184 291.708 454.592L292.644 454.88C292.372 455.952 291.524 456.576 290.1 456.752L286.668 457.184C285.036 457.392 283.9 458.04 283.26 459.128C282.62 460.216 282.284 462.008 282.252 464.504H282.324C283.316 462.536 284.988 461.552 287.34 461.552C288.988 461.552 290.324 462.112 291.348 463.232C292.372 464.352 292.884 465.752 292.884 467.432C292.884 469.128 292.332 470.536 291.228 471.656C290.124 472.76 288.708 473.312 286.98 473.312ZM283.716 470.84C284.548 471.736 285.636 472.184 286.98 472.184C288.324 472.184 289.412 471.736 290.244 470.84C291.092 469.944 291.516 468.816 291.516 467.456C291.516 466.08 291.108 464.936 290.292 464.024C289.476 463.112 288.396 462.656 287.052 462.656C285.724 462.656 284.628 463.12 283.764 464.048C282.916 464.96 282.492 466.096 282.492 467.456C282.492 468.816 282.9 469.944 283.716 470.84ZM297.833 470.84V478.76H296.537V461.816H297.833V464.048H297.905C298.369 463.216 298.993 462.592 299.777 462.176C300.577 461.744 301.433 461.528 302.345 461.528C304.041 461.528 305.417 462.088 306.473 463.208C307.545 464.312 308.081 465.712 308.081 467.408C308.081 469.104 307.553 470.512 306.497 471.632C305.457 472.752 304.089 473.312 302.393 473.312C301.465 473.312 300.593 473.104 299.777 472.688C298.961 472.256 298.337 471.64 297.905 470.84H297.833ZM305.465 470.816C306.281 469.904 306.689 468.768 306.689 467.408C306.689 466.048 306.281 464.912 305.465 464C304.665 463.072 303.585 462.608 302.225 462.608C300.929 462.608 299.849 463.072 298.985 464C298.137 464.912 297.713 466.048 297.713 467.408C297.713 468.768 298.137 469.904 298.985 470.816C299.849 471.728 300.929 472.184 302.225 472.184C303.585 472.184 304.665 471.728 305.465 470.816ZM312.205 466.64H320.365C320.317 465.44 319.933 464.472 319.213 463.736C318.509 462.984 317.557 462.608 316.357 462.608C315.173 462.608 314.197 463.032 313.429 463.88C312.661 464.712 312.253 465.632 312.205 466.64ZM316.501 473.312C314.869 473.312 313.517 472.752 312.445 471.632C311.373 470.512 310.837 469.096 310.837 467.384C310.837 465.704 311.365 464.312 312.421 463.208C313.493 462.088 314.813 461.528 316.381 461.528C318.061 461.528 319.357 462.056 320.269 463.112C321.197 464.152 321.661 465.448 321.661 467V467.672H312.181C312.213 468.904 312.629 469.968 313.429 470.864C314.229 471.744 315.269 472.184 316.549 472.184C318.037 472.184 319.317 471.552 320.389 470.288L321.253 470.984C320.053 472.536 318.469 473.312 316.501 473.312ZM325.319 473V461.816H326.639V466.64H333.503V461.816H334.799V473H333.503V467.744H326.639V473H325.319ZM337.678 476.672V471.872H338.998C339.542 471.184 339.99 470.232 340.342 469.016C340.694 467.8 340.87 466.408 340.87 464.84V461.816H348.766V471.872H350.59V476.672H349.366V473H338.902V476.672H337.678ZM340.486 471.872H347.494V462.92H342.142V465.176C342.142 467.816 341.59 470.048 340.486 471.872ZM358.741 473.312C357.029 473.312 355.613 472.752 354.493 471.632C353.389 470.512 352.837 469.104 352.837 467.408C352.837 465.696 353.389 464.288 354.493 463.184C355.597 462.08 357.013 461.528 358.741 461.528C360.469 461.528 361.885 462.08 362.989 463.184C364.109 464.288 364.669 465.696 364.669 467.408C364.669 469.104 364.109 470.512 362.989 471.632C361.885 472.752 360.469 473.312 358.741 473.312ZM358.741 472.184C360.117 472.184 361.221 471.728 362.053 470.816C362.885 469.904 363.301 468.768 363.301 467.408C363.301 466.048 362.885 464.912 362.053 464C361.221 463.072 360.117 462.608 358.741 462.608C357.381 462.608 356.285 463.072 355.453 464C354.621 464.912 354.205 466.048 354.205 467.408C354.205 468.768 354.621 469.904 355.453 470.816C356.285 471.728 357.381 472.184 358.741 472.184ZM368.326 473V461.816H373.342C374.334 461.816 375.174 462.032 375.862 462.464C376.55 462.896 376.894 463.616 376.894 464.624C376.894 465.248 376.702 465.776 376.318 466.208C375.934 466.64 375.446 466.928 374.854 467.072V467.096C375.59 467.192 376.206 467.488 376.702 467.984C377.198 468.464 377.446 469.112 377.446 469.928C377.446 470.904 377.078 471.664 376.342 472.208C375.606 472.736 374.646 473 373.462 473H368.326ZM369.646 471.872H373.27C374.118 471.872 374.798 471.704 375.31 471.368C375.838 471.032 376.102 470.52 376.102 469.832C376.102 469.128 375.854 468.6 375.358 468.248C374.862 467.896 374.222 467.72 373.438 467.72H369.646V471.872ZM369.646 466.64H373.294C373.918 466.64 374.462 466.488 374.926 466.184C375.39 465.864 375.622 465.392 375.622 464.768C375.622 464.128 375.382 463.664 374.902 463.376C374.438 463.072 373.83 462.92 373.078 462.92H369.646V466.64ZM381.1 473V461.816H382.42V471.176L389.452 461.816H390.868V473H389.596V463.568H389.548L382.516 473H381.1ZM402.549 458.384C401.957 458.928 401.197 459.2 400.269 459.2C399.341 459.2 398.573 458.928 397.965 458.384C397.373 457.824 397.021 457.096 396.909 456.2L397.821 456.032C397.933 456.704 398.213 457.224 398.661 457.592C399.109 457.96 399.645 458.144 400.269 458.144C400.893 458.144 401.429 457.96 401.877 457.592C402.325 457.224 402.605 456.704 402.717 456.032L403.629 456.2C403.517 457.096 403.157 457.824 402.549 458.384ZM395.397 473V461.816H396.717V471.176L403.749 461.816H405.165V473H403.893V463.568H403.845L396.813 473H395.397ZM415.694 473V461.816H425.006V473H423.71V462.92H417.014V473H415.694ZM430.841 470.84V478.76H429.545V461.816H430.841V464.048H430.913C431.377 463.216 432.001 462.592 432.785 462.176C433.585 461.744 434.441 461.528 435.353 461.528C437.049 461.528 438.425 462.088 439.481 463.208C440.553 464.312 441.089 465.712 441.089 467.408C441.089 469.104 440.561 470.512 439.505 471.632C438.465 472.752 437.097 473.312 435.401 473.312C434.473 473.312 433.601 473.104 432.785 472.688C431.969 472.256 431.345 471.64 430.913 470.84H430.841ZM438.473 470.816C439.289 469.904 439.697 468.768 439.697 467.408C439.697 466.048 439.289 464.912 438.473 464C437.673 463.072 436.593 462.608 435.233 462.608C433.937 462.608 432.857 463.072 431.993 464C431.145 464.912 430.721 466.048 430.721 467.408C430.721 468.768 431.145 469.904 431.993 470.816C432.857 471.728 433.937 472.184 435.233 472.184C436.593 472.184 437.673 471.728 438.473 470.816ZM445.213 466.64H453.373C453.325 465.44 452.941 464.472 452.221 463.736C451.517 462.984 450.565 462.608 449.365 462.608C448.181 462.608 447.205 463.032 446.437 463.88C445.669 464.712 445.261 465.632 445.213 466.64ZM449.509 473.312C447.877 473.312 446.525 472.752 445.453 471.632C444.381 470.512 443.845 469.096 443.845 467.384C443.845 465.704 444.373 464.312 445.429 463.208C446.501 462.088 447.821 461.528 449.389 461.528C451.069 461.528 452.365 462.056 453.277 463.112C454.205 464.152 454.669 465.448 454.669 467V467.672H445.189C445.221 468.904 445.637 469.968 446.437 470.864C447.237 471.744 448.277 472.184 449.557 472.184C451.045 472.184 452.325 471.552 453.397 470.288L454.261 470.984C453.061 472.536 451.477 473.312 449.509 473.312ZM458.326 473V461.816H467.638V473H466.342V462.92H459.646V473H458.326ZM475.154 473.312C474.162 473.312 473.274 473.032 472.49 472.472C471.706 471.912 471.314 471.08 471.314 469.976C471.314 469.336 471.45 468.784 471.722 468.32C472.01 467.856 472.37 467.496 472.802 467.24C473.234 466.968 473.77 466.76 474.41 466.616C475.066 466.456 475.698 466.352 476.306 466.304C476.914 466.256 477.61 466.232 478.394 466.232H479.234V465.728C479.234 463.648 478.178 462.608 476.066 462.608C474.754 462.608 473.642 463.048 472.73 463.928L472.01 463.064C473.066 462.04 474.458 461.528 476.186 461.528C477.482 461.528 478.522 461.872 479.306 462.56C480.09 463.248 480.482 464.256 480.482 465.584V470.48C480.482 471.488 480.546 472.328 480.674 473H479.498C479.37 472.232 479.306 471.544 479.306 470.936H479.258C478.378 472.52 477.01 473.312 475.154 473.312ZM475.466 472.232C476.682 472.232 477.61 471.84 478.25 471.056C478.906 470.256 479.234 469.296 479.234 468.176V467.264H478.394C474.57 467.264 472.658 468.144 472.658 469.904C472.658 470.704 472.93 471.296 473.474 471.68C474.034 472.048 474.698 472.232 475.466 472.232ZM486.13 470.84V478.76H484.834V461.816H486.13V464.048H486.202C486.666 463.216 487.29 462.592 488.074 462.176C488.874 461.744 489.73 461.528 490.642 461.528C492.338 461.528 493.714 462.088 494.77 463.208C495.842 464.312 496.378 465.712 496.378 467.408C496.378 469.104 495.85 470.512 494.794 471.632C493.754 472.752 492.386 473.312 490.69 473.312C489.762 473.312 488.89 473.104 488.074 472.688C487.258 472.256 486.634 471.64 486.202 470.84H486.13ZM493.762 470.816C494.578 469.904 494.986 468.768 494.986 467.408C494.986 466.048 494.578 464.912 493.762 464C492.962 463.072 491.882 462.608 490.522 462.608C489.226 462.608 488.146 463.072 487.282 464C486.434 464.912 486.01 466.048 486.01 467.408C486.01 468.768 486.434 469.904 487.282 470.816C488.146 471.728 489.226 472.184 490.522 472.184C491.882 472.184 492.962 471.728 493.762 470.816ZM502.974 473.312C501.982 473.312 501.094 473.032 500.31 472.472C499.526 471.912 499.134 471.08 499.134 469.976C499.134 469.336 499.27 468.784 499.542 468.32C499.83 467.856 500.19 467.496 500.622 467.24C501.054 466.968 501.59 466.76 502.23 466.616C502.886 466.456 503.518 466.352 504.126 466.304C504.734 466.256 505.43 466.232 506.214 466.232H507.054V465.728C507.054 463.648 505.998 462.608 503.886 462.608C502.574 462.608 501.462 463.048 500.55 463.928L499.83 463.064C500.886 462.04 502.278 461.528 504.006 461.528C505.302 461.528 506.342 461.872 507.126 462.56C507.91 463.248 508.302 464.256 508.302 465.584V470.48C508.302 471.488 508.366 472.328 508.494 473H507.318C507.19 472.232 507.126 471.544 507.126 470.936H507.078C506.198 472.52 504.83 473.312 502.974 473.312ZM503.286 472.232C504.502 472.232 505.43 471.84 506.07 471.056C506.726 470.256 507.054 469.296 507.054 468.176V467.264H506.214C502.39 467.264 500.478 468.144 500.478 469.904C500.478 470.704 500.75 471.296 501.294 471.68C501.854 472.048 502.518 472.232 503.286 472.232ZM515.03 473V462.92H510.902V461.816H520.454V462.92H516.326V473H515.03ZM92.256 502V490.816H97.272C98.264 490.816 99.104 491.032 99.792 491.464C100.48 491.896 100.824 492.616 100.824 493.624C100.824 494.248 100.632 494.776 100.248 495.208C99.864 495.64 99.376 495.928 98.784 496.072V496.096C99.52 496.192 100.136 496.488 100.632 496.984C101.128 497.464 101.376 498.112 101.376 498.928C101.376 499.904 101.008 500.664 100.272 501.208C99.536 501.736 98.576 502 97.392 502H92.256ZM93.576 500.872H97.2C98.048 500.872 98.728 500.704 99.24 500.368C99.768 500.032 100.032 499.52 100.032 498.832C100.032 498.128 99.784 497.6 99.288 497.248C98.792 496.896 98.152 496.72 97.368 496.72H93.576V500.872ZM93.576 495.64H97.224C97.848 495.64 98.392 495.488 98.856 495.184C99.32 494.864 99.552 494.392 99.552 493.768C99.552 493.128 99.312 492.664 98.832 492.376C98.368 492.072 97.76 491.92 97.008 491.92H93.576V495.64ZM105.029 502V490.816H106.349V502H105.029ZM106.349 487.072C106.157 487.264 105.933 487.36 105.677 487.36C105.421 487.36 105.197 487.264 105.005 487.072C104.813 486.88 104.717 486.648 104.717 486.376C104.717 486.104 104.813 485.872 105.005 485.68C105.197 485.488 105.421 485.392 105.677 485.392C105.933 485.392 106.157 485.488 106.349 485.68C106.557 485.872 106.661 486.104 106.661 486.376C106.661 486.648 106.557 486.88 106.349 487.072ZM109.209 505.672V500.872H110.529C111.073 500.184 111.521 499.232 111.873 498.016C112.225 496.8 112.401 495.408 112.401 493.84V490.816H120.297V500.872H122.121V505.672H120.897V502H110.433V505.672H109.209ZM112.017 500.872H119.025V491.92H113.673V494.176C113.673 496.816 113.121 499.048 112.017 500.872ZM136.441 502.312C134.489 502.312 133.017 501.664 132.025 500.368C131.081 499.296 130.609 497.568 130.609 495.184C130.609 494.176 130.625 493.312 130.657 492.592C130.705 491.856 130.785 491.096 130.897 490.312C131.009 489.528 131.177 488.864 131.401 488.32C131.641 487.776 131.937 487.272 132.289 486.808C132.641 486.328 133.089 485.952 133.633 485.68C134.193 485.408 134.841 485.224 135.577 485.128L139.177 484.696C140.313 484.552 140.977 484.184 141.169 483.592L142.105 483.88C141.833 484.952 140.985 485.576 139.561 485.752L136.129 486.184C134.497 486.392 133.361 487.04 132.721 488.128C132.081 489.216 131.745 491.008 131.713 493.504H131.785C132.777 491.536 134.449 490.552 136.801 490.552C138.449 490.552 139.785 491.112 140.809 492.232C141.833 493.352 142.345 494.752 142.345 496.432C142.345 498.128 141.793 499.536 140.689 500.656C139.585 501.76 138.169 502.312 136.441 502.312ZM133.177 499.84C134.009 500.736 135.097 501.184 136.441 501.184C137.785 501.184 138.873 500.736 139.705 499.84C140.553 498.944 140.977 497.816 140.977 496.456C140.977 495.08 140.569 493.936 139.753 493.024C138.937 492.112 137.857 491.656 136.513 491.656C135.185 491.656 134.089 492.12 133.225 493.048C132.377 493.96 131.953 495.096 131.953 496.456C131.953 497.816 132.361 498.944 133.177 499.84ZM151.038 502.312C149.326 502.312 147.91 501.752 146.79 500.632C145.686 499.512 145.134 498.104 145.134 496.408C145.134 494.696 145.686 493.288 146.79 492.184C147.894 491.08 149.31 490.528 151.038 490.528C152.766 490.528 154.182 491.08 155.286 492.184C156.406 493.288 156.966 494.696 156.966 496.408C156.966 498.104 156.406 499.512 155.286 500.632C154.182 501.752 152.766 502.312 151.038 502.312ZM151.038 501.184C152.414 501.184 153.518 500.728 154.35 499.816C155.182 498.904 155.598 497.768 155.598 496.408C155.598 495.048 155.182 493.912 154.35 493C153.518 492.072 152.414 491.608 151.038 491.608C149.678 491.608 148.582 492.072 147.75 493C146.918 493.912 146.502 495.048 146.502 496.408C146.502 497.768 146.918 498.904 147.75 499.816C148.582 500.728 149.678 501.184 151.038 501.184ZM159.478 502.12C159.062 502.12 158.694 502.072 158.374 501.976L158.542 500.848C158.75 500.928 158.998 500.968 159.286 500.968C160.23 500.968 160.918 500.464 161.35 499.456C161.798 498.432 162.022 496.848 162.022 494.704V490.816H169.774V502H168.478V491.92H163.294V495.112C163.294 499.784 162.022 502.12 159.478 502.12ZM174.287 502V490.816H175.607V495.64H178.319C178.495 494.152 179.095 492.928 180.119 491.968C181.159 491.008 182.447 490.528 183.983 490.528C185.663 490.528 187.031 491.088 188.087 492.208C189.143 493.328 189.671 494.736 189.671 496.432C189.671 498.128 189.135 499.536 188.063 500.656C187.007 501.776 185.647 502.336 183.983 502.336C182.367 502.336 181.031 501.808 179.975 500.752C178.935 499.696 178.375 498.368 178.295 496.768L175.607 496.744V502H174.287ZM183.983 501.232C185.279 501.232 186.319 500.776 187.103 499.864C187.903 498.936 188.303 497.792 188.303 496.432C188.303 495.072 187.903 493.936 187.103 493.024C186.319 492.096 185.279 491.632 183.983 491.632C182.671 491.632 181.623 492.088 180.839 493C180.055 493.912 179.663 495.056 179.663 496.432C179.663 497.808 180.055 498.952 180.839 499.864C181.623 500.776 182.671 501.232 183.983 501.232ZM199.319 502V490.816H204.335C205.327 490.816 206.167 491.032 206.855 491.464C207.543 491.896 207.887 492.616 207.887 493.624C207.887 494.248 207.695 494.776 207.311 495.208C206.927 495.64 206.439 495.928 205.847 496.072V496.096C206.583 496.192 207.199 496.488 207.695 496.984C208.191 497.464 208.439 498.112 208.439 498.928C208.439 499.904 208.071 500.664 207.335 501.208C206.599 501.736 205.639 502 204.455 502H199.319ZM200.639 500.872H204.263C205.111 500.872 205.791 500.704 206.303 500.368C206.831 500.032 207.095 499.52 207.095 498.832C207.095 498.128 206.847 497.6 206.351 497.248C205.855 496.896 205.215 496.72 204.431 496.72H200.639V500.872ZM200.639 495.64H204.287C204.911 495.64 205.455 495.488 205.919 495.184C206.383 494.864 206.615 494.392 206.615 493.768C206.615 493.128 206.375 492.664 205.895 492.376C205.431 492.072 204.823 491.92 204.071 491.92H200.639V495.64ZM227.02 492.28L226.156 493.072C225.82 492.64 225.372 492.296 224.812 492.04C224.252 491.784 223.668 491.656 223.06 491.656C221.732 491.656 220.652 492.112 219.82 493.024C219.004 493.92 218.596 495.048 218.596 496.408C218.596 497.768 219.004 498.896 219.82 499.792C220.636 500.688 221.7 501.136 223.012 501.136C224.324 501.136 225.412 500.688 226.276 499.792L227.092 500.536C226.068 501.72 224.708 502.312 223.012 502.312C221.284 502.312 219.892 501.76 218.836 500.656C217.78 499.552 217.252 498.136 217.252 496.408C217.252 494.696 217.788 493.288 218.86 492.184C219.948 491.08 221.34 490.528 223.036 490.528C224.764 490.528 226.092 491.112 227.02 492.28ZM230.133 507.784C229.733 507.784 229.293 507.728 228.813 507.616L228.981 506.44C229.317 506.568 229.685 506.632 230.085 506.632C230.629 506.632 231.061 506.456 231.381 506.104C231.717 505.768 232.013 505.264 232.269 504.592L233.229 502.072L228.549 490.816H230.013L233.901 500.656L237.549 490.816H238.965L233.397 505.12C233.045 506 232.621 506.664 232.125 507.112C231.629 507.56 230.965 507.784 230.133 507.784ZM241.647 502V490.816H248.919V491.92H242.967V502H241.647ZM250.369 502.12C249.953 502.12 249.585 502.072 249.265 501.976L249.433 500.848C249.641 500.928 249.889 500.968 250.177 500.968C251.121 500.968 251.809 500.464 252.241 499.456C252.689 498.432 252.913 496.848 252.913 494.704V490.816H260.665V502H259.369V491.92H254.185V495.112C254.185 499.784 252.913 502.12 250.369 502.12ZM270.218 502.312C268.506 502.312 267.09 501.752 265.97 500.632C264.866 499.512 264.314 498.104 264.314 496.408C264.314 494.696 264.866 493.288 265.97 492.184C267.074 491.08 268.49 490.528 270.218 490.528C271.946 490.528 273.362 491.08 274.466 492.184C275.586 493.288 276.146 494.696 276.146 496.408C276.146 498.104 275.586 499.512 274.466 500.632C273.362 501.752 271.946 502.312 270.218 502.312ZM270.218 501.184C271.594 501.184 272.698 500.728 273.53 499.816C274.362 498.904 274.778 497.768 274.778 496.408C274.778 495.048 274.362 493.912 273.53 493C272.698 492.072 271.594 491.608 270.218 491.608C268.858 491.608 267.762 492.072 266.93 493C266.098 493.912 265.682 495.048 265.682 496.408C265.682 497.768 266.098 498.904 266.93 499.816C267.762 500.728 268.858 501.184 270.218 501.184ZM285.011 502.312C283.059 502.312 281.587 501.664 280.595 500.368C279.651 499.296 279.179 497.568 279.179 495.184C279.179 494.176 279.195 493.312 279.227 492.592C279.275 491.856 279.355 491.096 279.467 490.312C279.579 489.528 279.747 488.864 279.971 488.32C280.211 487.776 280.507 487.272 280.859 486.808C281.211 486.328 281.659 485.952 282.203 485.68C282.763 485.408 283.411 485.224 284.147 485.128L287.747 484.696C288.883 484.552 289.547 484.184 289.739 483.592L290.675 483.88C290.403 484.952 289.555 485.576 288.131 485.752L284.699 486.184C283.067 486.392 281.931 487.04 281.291 488.128C280.651 489.216 280.315 491.008 280.283 493.504H280.355C281.347 491.536 283.019 490.552 285.371 490.552C287.019 490.552 288.355 491.112 289.379 492.232C290.403 493.352 290.915 494.752 290.915 496.432C290.915 498.128 290.363 499.536 289.259 500.656C288.155 501.76 286.739 502.312 285.011 502.312ZM281.747 499.84C282.579 500.736 283.667 501.184 285.011 501.184C286.355 501.184 287.443 500.736 288.275 499.84C289.123 498.944 289.547 497.816 289.547 496.456C289.547 495.08 289.139 493.936 288.323 493.024C287.507 492.112 286.427 491.656 285.083 491.656C283.755 491.656 282.659 492.12 281.795 493.048C280.947 493.96 280.523 495.096 280.523 496.456C280.523 497.816 280.931 498.944 281.747 499.84ZM297.545 502.312C296.553 502.312 295.665 502.032 294.881 501.472C294.097 500.912 293.705 500.08 293.705 498.976C293.705 498.336 293.841 497.784 294.113 497.32C294.401 496.856 294.761 496.496 295.193 496.24C295.625 495.968 296.161 495.76 296.801 495.616C297.457 495.456 298.089 495.352 298.697 495.304C299.305 495.256 300.001 495.232 300.785 495.232H301.625V494.728C301.625 492.648 300.569 491.608 298.457 491.608C297.145 491.608 296.033 492.048 295.121 492.928L294.401 492.064C295.457 491.04 296.849 490.528 298.577 490.528C299.873 490.528 300.913 490.872 301.697 491.56C302.481 492.248 302.873 493.256 302.873 494.584V499.48C302.873 500.488 302.937 501.328 303.065 502H301.889C301.761 501.232 301.697 500.544 301.697 499.936H301.649C300.769 501.52 299.401 502.312 297.545 502.312ZM297.857 501.232C299.073 501.232 300.001 500.84 300.641 500.056C301.297 499.256 301.625 498.296 301.625 497.176V496.264H300.785C296.961 496.264 295.049 497.144 295.049 498.904C295.049 499.704 295.321 500.296 295.865 500.68C296.425 501.048 297.089 501.232 297.857 501.232ZM305.449 502L309.841 496.192L305.785 490.816H307.465L310.657 495.28L313.849 490.816H315.433L311.425 496.144L315.889 502H314.185L310.633 497.08L307.009 502H305.449ZM320.512 499.744L318.688 505.336H317.608L319.144 499.744H320.512ZM329.959 502V490.816H334.975C335.967 490.816 336.807 491.032 337.495 491.464C338.183 491.896 338.527 492.616 338.527 493.624C338.527 494.248 338.335 494.776 337.951 495.208C337.567 495.64 337.079 495.928 336.487 496.072V496.096C337.223 496.192 337.839 496.488 338.335 496.984C338.831 497.464 339.079 498.112 339.079 498.928C339.079 499.904 338.711 500.664 337.975 501.208C337.239 501.736 336.279 502 335.095 502H329.959ZM331.279 500.872H334.903C335.751 500.872 336.431 500.704 336.943 500.368C337.471 500.032 337.735 499.52 337.735 498.832C337.735 498.128 337.487 497.6 336.991 497.248C336.495 496.896 335.855 496.72 335.071 496.72H331.279V500.872ZM331.279 495.64H334.927C335.551 495.64 336.095 495.488 336.559 495.184C337.023 494.864 337.255 494.392 337.255 493.768C337.255 493.128 337.015 492.664 336.535 492.376C336.071 492.072 335.463 491.92 334.711 491.92H331.279V495.64ZM342.733 502V490.816H344.053V502H342.733ZM344.053 487.072C343.861 487.264 343.637 487.36 343.381 487.36C343.125 487.36 342.901 487.264 342.709 487.072C342.517 486.88 342.421 486.648 342.421 486.376C342.421 486.104 342.517 485.872 342.709 485.68C342.901 485.488 343.125 485.392 343.381 485.392C343.637 485.392 343.861 485.488 344.053 485.68C344.261 485.872 344.365 486.104 344.365 486.376C344.365 486.648 344.261 486.88 344.053 487.072ZM348.569 502V490.816H349.889V495.64H356.753V490.816H358.049V502H356.753V496.744H349.889V502H348.569ZM366.928 505.672V500.872H368.248C368.792 500.184 369.24 499.232 369.592 498.016C369.944 496.8 370.12 495.408 370.12 493.84V490.816H378.016V500.872H379.84V505.672H378.616V502H368.152V505.672H366.928ZM369.736 500.872H376.744V491.92H371.392V494.176C371.392 496.816 370.84 499.048 369.736 500.872ZM387.991 502.312C386.279 502.312 384.863 501.752 383.743 500.632C382.639 499.512 382.087 498.104 382.087 496.408C382.087 494.696 382.639 493.288 383.743 492.184C384.847 491.08 386.263 490.528 387.991 490.528C389.719 490.528 391.135 491.08 392.239 492.184C393.359 493.288 393.919 494.696 393.919 496.408C393.919 498.104 393.359 499.512 392.239 500.632C391.135 501.752 389.719 502.312 387.991 502.312ZM387.991 501.184C389.367 501.184 390.471 500.728 391.303 499.816C392.135 498.904 392.551 497.768 392.551 496.408C392.551 495.048 392.135 493.912 391.303 493C390.471 492.072 389.367 491.608 387.991 491.608C386.631 491.608 385.535 492.072 384.703 493C383.871 493.912 383.455 495.048 383.455 496.408C383.455 497.768 383.871 498.904 384.703 499.816C385.535 500.728 386.631 501.184 387.991 501.184ZM397.576 502V490.816H406.888V502H405.592V491.92H398.896V502H397.576ZM416.468 502.312C414.756 502.312 413.34 501.752 412.22 500.632C411.116 499.512 410.564 498.104 410.564 496.408C410.564 494.696 411.116 493.288 412.22 492.184C413.324 491.08 414.74 490.528 416.468 490.528C418.196 490.528 419.612 491.08 420.716 492.184C421.836 493.288 422.396 494.696 422.396 496.408C422.396 498.104 421.836 499.512 420.716 500.632C419.612 501.752 418.196 502.312 416.468 502.312ZM416.468 501.184C417.844 501.184 418.948 500.728 419.78 499.816C420.612 498.904 421.028 497.768 421.028 496.408C421.028 495.048 420.612 493.912 419.78 493C418.948 492.072 417.844 491.608 416.468 491.608C415.108 491.608 414.012 492.072 413.18 493C412.348 493.912 411.932 495.048 411.932 496.408C411.932 497.768 412.348 498.904 413.18 499.816C414.012 500.728 415.108 501.184 416.468 501.184ZM426.053 502V490.816H427.997L432.437 500.08L436.901 490.816H438.797V502H437.501V492.328H437.453L432.773 502H432.077L427.373 492.328V502H426.053ZM446.302 502.312C445.31 502.312 444.422 502.032 443.638 501.472C442.854 500.912 442.462 500.08 442.462 498.976C442.462 498.336 442.598 497.784 442.87 497.32C443.158 496.856 443.518 496.496 443.95 496.24C444.382 495.968 444.918 495.76 445.558 495.616C446.214 495.456 446.846 495.352 447.454 495.304C448.062 495.256 448.758 495.232 449.542 495.232H450.382V494.728C450.382 492.648 449.326 491.608 447.214 491.608C445.902 491.608 444.79 492.048 443.878 492.928L443.158 492.064C444.214 491.04 445.606 490.528 447.334 490.528C448.63 490.528 449.67 490.872 450.454 491.56C451.238 492.248 451.63 493.256 451.63 494.584V499.48C451.63 500.488 451.694 501.328 451.822 502H450.646C450.518 501.232 450.454 500.544 450.454 499.936H450.406C449.526 501.52 448.158 502.312 446.302 502.312ZM446.614 501.232C447.83 501.232 448.758 500.84 449.398 500.056C450.054 499.256 450.382 498.296 450.382 497.176V496.264H449.542C445.718 496.264 443.806 497.144 443.806 498.904C443.806 499.704 444.078 500.296 444.622 500.68C445.182 501.048 445.846 501.232 446.614 501.232ZM455.983 502V490.816H463.255V491.92H457.303V502H455.983ZM469.013 502.312C468.021 502.312 467.133 502.032 466.349 501.472C465.565 500.912 465.173 500.08 465.173 498.976C465.173 498.336 465.309 497.784 465.581 497.32C465.869 496.856 466.229 496.496 466.661 496.24C467.093 495.968 467.629 495.76 468.269 495.616C468.925 495.456 469.557 495.352 470.165 495.304C470.773 495.256 471.469 495.232 472.253 495.232H473.093V494.728C473.093 492.648 472.037 491.608 469.925 491.608C468.613 491.608 467.501 492.048 466.589 492.928L465.869 492.064C466.925 491.04 468.317 490.528 470.045 490.528C471.341 490.528 472.381 490.872 473.165 491.56C473.949 492.248 474.341 493.256 474.341 494.584V499.48C474.341 500.488 474.405 501.328 474.533 502H473.357C473.229 501.232 473.165 500.544 473.165 499.936H473.117C472.237 501.52 470.869 502.312 469.013 502.312ZM469.325 501.232C470.541 501.232 471.469 500.84 472.109 500.056C472.765 499.256 473.093 498.296 473.093 497.176V496.264H472.253C468.429 496.264 466.517 497.144 466.517 498.904C466.517 499.704 466.789 500.296 467.333 500.68C467.893 501.048 468.557 501.232 469.325 501.232ZM483.71 502.312C481.966 502.312 480.55 501.768 479.462 500.68C478.374 499.576 477.83 498.152 477.83 496.408C477.83 494.664 478.366 493.248 479.438 492.16C480.51 491.072 481.926 490.528 483.686 490.528C485.446 490.528 486.806 491.096 487.766 492.232L486.878 493.048C485.998 492.072 484.934 491.584 483.686 491.584C482.47 491.584 481.462 491.96 480.662 492.712C479.862 493.464 479.382 494.44 479.222 495.64H485.054V496.744H479.174C479.238 498.024 479.678 499.096 480.494 499.96C481.326 500.808 482.398 501.232 483.71 501.232C485.006 501.232 486.078 500.752 486.926 499.792L487.862 500.56C486.854 501.728 485.47 502.312 483.71 502.312ZM492.52 499.744L490.696 505.336H489.616L491.152 499.744H492.52ZM95.232 531.312C94.24 531.312 93.352 531.032 92.568 530.472C91.784 529.912 91.392 529.08 91.392 527.976C91.392 527.336 91.528 526.784 91.8 526.32C92.088 525.856 92.448 525.496 92.88 525.24C93.312 524.968 93.848 524.76 94.488 524.616C95.144 524.456 95.776 524.352 96.384 524.304C96.992 524.256 97.688 524.232 98.472 524.232H99.312V523.728C99.312 521.648 98.256 520.608 96.144 520.608C94.832 520.608 93.72 521.048 92.808 521.928L92.088 521.064C93.144 520.04 94.536 519.528 96.264 519.528C97.56 519.528 98.6 519.872 99.384 520.56C100.168 521.248 100.56 522.256 100.56 523.584V528.48C100.56 529.488 100.624 530.328 100.752 531H99.576C99.448 530.232 99.384 529.544 99.384 528.936H99.336C98.456 530.52 97.088 531.312 95.232 531.312ZM95.544 530.232C96.76 530.232 97.688 529.84 98.328 529.056C98.984 528.256 99.312 527.296 99.312 526.176V525.264H98.472C94.648 525.264 92.736 526.144 92.736 527.904C92.736 528.704 93.008 529.296 93.552 529.68C94.112 530.048 94.776 530.232 95.544 530.232ZM104.048 531.12C103.632 531.12 103.264 531.072 102.944 530.976L103.112 529.848C103.32 529.928 103.568 529.968 103.856 529.968C104.8 529.968 105.488 529.464 105.92 528.456C106.368 527.432 106.592 525.848 106.592 523.704V519.816H114.344V531H113.048V520.92H107.864V524.112C107.864 528.784 106.592 531.12 104.048 531.12ZM119.362 524.64H127.522C127.474 523.44 127.09 522.472 126.37 521.736C125.666 520.984 124.714 520.608 123.514 520.608C122.33 520.608 121.354 521.032 120.586 521.88C119.818 522.712 119.41 523.632 119.362 524.64ZM123.658 531.312C122.026 531.312 120.674 530.752 119.602 529.632C118.53 528.512 117.994 527.096 117.994 525.384C117.994 523.704 118.522 522.312 119.578 521.208C120.65 520.088 121.97 519.528 123.538 519.528C125.218 519.528 126.514 520.056 127.426 521.112C128.354 522.152 128.818 523.448 128.818 525V525.672H119.338C119.37 526.904 119.786 527.968 120.586 528.864C121.386 529.744 122.426 530.184 123.706 530.184C125.194 530.184 126.474 529.552 127.546 528.288L128.41 528.984C127.21 530.536 125.626 531.312 123.658 531.312ZM141.619 531.312C139.619 531.312 138.131 530.624 137.155 529.248L138.115 528.48C138.931 529.616 140.091 530.184 141.595 530.184C142.443 530.184 143.155 529.992 143.731 529.608C144.307 529.224 144.595 528.64 144.595 527.856C144.595 527.152 144.283 526.616 143.659 526.248C143.035 525.88 142.243 525.696 141.283 525.696H140.347V524.64H141.187C142.083 524.64 142.819 524.456 143.395 524.088C143.971 523.704 144.259 523.168 144.259 522.48C144.259 521.856 144.003 521.392 143.491 521.088C142.995 520.768 142.331 520.608 141.499 520.608C140.907 520.608 140.339 520.744 139.795 521.016C139.267 521.288 138.851 521.664 138.547 522.144L137.539 521.424C137.907 520.816 138.443 520.352 139.147 520.032C139.867 519.696 140.667 519.528 141.547 519.528C142.747 519.528 143.715 519.784 144.451 520.296C145.187 520.808 145.555 521.536 145.555 522.48C145.555 523.136 145.331 523.704 144.883 524.184C144.451 524.648 143.883 524.952 143.179 525.096V525.144C143.995 525.256 144.651 525.56 145.147 526.056C145.643 526.552 145.891 527.168 145.891 527.904C145.891 528.96 145.491 529.792 144.691 530.4C143.907 531.008 142.883 531.312 141.619 531.312ZM152.584 531.312C151.592 531.312 150.704 531.032 149.92 530.472C149.136 529.912 148.744 529.08 148.744 527.976C148.744 527.336 148.88 526.784 149.152 526.32C149.44 525.856 149.8 525.496 150.232 525.24C150.664 524.968 151.2 524.76 151.84 524.616C152.496 524.456 153.128 524.352 153.736 524.304C154.344 524.256 155.04 524.232 155.824 524.232H156.664V523.728C156.664 521.648 155.608 520.608 153.496 520.608C152.184 520.608 151.072 521.048 150.16 521.928L149.44 521.064C150.496 520.04 151.888 519.528 153.616 519.528C154.912 519.528 155.952 519.872 156.736 520.56C157.52 521.248 157.912 522.256 157.912 523.584V528.48C157.912 529.488 157.976 530.328 158.104 531H156.928C156.8 530.232 156.736 529.544 156.736 528.936H156.688C155.808 530.52 154.44 531.312 152.584 531.312ZM152.896 530.232C154.112 530.232 155.04 529.84 155.68 529.056C156.336 528.256 156.664 527.296 156.664 526.176V525.264H155.824C152 525.264 150.088 526.144 150.088 527.904C150.088 528.704 150.36 529.296 150.904 529.68C151.464 530.048 152.128 530.232 152.896 530.232ZM162.264 531V519.816H163.584V524.64H170.448V519.816H171.744V531H170.448V525.744H163.584V531H162.264ZM179.255 531.312C178.263 531.312 177.375 531.032 176.591 530.472C175.807 529.912 175.415 529.08 175.415 527.976C175.415 527.336 175.551 526.784 175.823 526.32C176.111 525.856 176.471 525.496 176.903 525.24C177.335 524.968 177.871 524.76 178.511 524.616C179.167 524.456 179.799 524.352 180.407 524.304C181.015 524.256 181.711 524.232 182.495 524.232H183.335V523.728C183.335 521.648 182.279 520.608 180.167 520.608C178.855 520.608 177.743 521.048 176.831 521.928L176.111 521.064C177.167 520.04 178.559 519.528 180.287 519.528C181.583 519.528 182.623 519.872 183.407 520.56C184.191 521.248 184.583 522.256 184.583 523.584V528.48C184.583 529.488 184.647 530.328 184.775 531H183.599C183.471 530.232 183.407 529.544 183.407 528.936H183.359C182.479 530.52 181.111 531.312 179.255 531.312ZM179.567 530.232C180.783 530.232 181.711 529.84 182.351 529.056C183.007 528.256 183.335 527.296 183.335 526.176V525.264H182.495C178.671 525.264 176.759 526.144 176.759 527.904C176.759 528.704 177.031 529.296 177.575 529.68C178.135 530.048 178.799 530.232 179.567 530.232ZM187.28 534.672V529.872H188.6C189.144 529.184 189.592 528.232 189.944 527.016C190.296 525.8 190.472 524.408 190.472 522.84V519.816H198.368V529.872H200.192V534.672H198.968V531H188.504V534.672H187.28ZM190.088 529.872H197.096V520.92H191.744V523.176C191.744 525.816 191.192 528.048 190.088 529.872ZM205.679 531V520.92H201.551V519.816H211.103V520.92H206.975V531H205.679ZM218.655 531.312C216.943 531.312 215.527 530.752 214.407 529.632C213.303 528.512 212.751 527.104 212.751 525.408C212.751 523.696 213.303 522.288 214.407 521.184C215.511 520.08 216.927 519.528 218.655 519.528C220.383 519.528 221.799 520.08 222.903 521.184C224.023 522.288 224.583 523.696 224.583 525.408C224.583 527.104 224.023 528.512 222.903 529.632C221.799 530.752 220.383 531.312 218.655 531.312ZM218.655 530.184C220.031 530.184 221.135 529.728 221.967 528.816C222.799 527.904 223.215 526.768 223.215 525.408C223.215 524.048 222.799 522.912 221.967 522C221.135 521.072 220.031 520.608 218.655 520.608C217.295 520.608 216.199 521.072 215.367 522C214.535 522.912 214.119 524.048 214.119 525.408C214.119 526.768 214.535 527.904 215.367 528.816C216.199 529.728 217.295 530.184 218.655 530.184ZM232.584 534.672V529.872H233.904C234.448 529.184 234.896 528.232 235.248 527.016C235.6 525.8 235.776 524.408 235.776 522.84V519.816H243.672V529.872H245.496V534.672H244.272V531H233.808V534.672H232.584ZM235.392 529.872H242.4V520.92H237.048V523.176C237.048 525.816 236.496 528.048 235.392 529.872ZM253.648 531.312C251.936 531.312 250.52 530.752 249.4 529.632C248.296 528.512 247.744 527.104 247.744 525.408C247.744 523.696 248.296 522.288 249.4 521.184C250.504 520.08 251.92 519.528 253.648 519.528C255.376 519.528 256.792 520.08 257.896 521.184C259.016 522.288 259.576 523.696 259.576 525.408C259.576 527.104 259.016 528.512 257.896 529.632C256.792 530.752 255.376 531.312 253.648 531.312ZM253.648 530.184C255.024 530.184 256.128 529.728 256.96 528.816C257.792 527.904 258.208 526.768 258.208 525.408C258.208 524.048 257.792 522.912 256.96 522C256.128 521.072 255.024 520.608 253.648 520.608C252.288 520.608 251.192 521.072 250.36 522C249.528 522.912 249.112 524.048 249.112 525.408C249.112 526.768 249.528 527.904 250.36 528.816C251.192 529.728 252.288 530.184 253.648 530.184ZM264.529 528.84V536.76H263.233V519.816H264.529V522.048H264.601C265.065 521.216 265.689 520.592 266.473 520.176C267.273 519.744 268.129 519.528 269.041 519.528C270.737 519.528 272.113 520.088 273.169 521.208C274.241 522.312 274.777 523.712 274.777 525.408C274.777 527.104 274.249 528.512 273.193 529.632C272.153 530.752 270.785 531.312 269.089 531.312C268.161 531.312 267.289 531.104 266.473 530.688C265.657 530.256 265.033 529.64 264.601 528.84H264.529ZM272.161 528.816C272.977 527.904 273.385 526.768 273.385 525.408C273.385 524.048 272.977 522.912 272.161 522C271.361 521.072 270.281 520.608 268.921 520.608C267.625 520.608 266.545 521.072 265.681 522C264.833 522.912 264.409 524.048 264.409 525.408C264.409 526.768 264.833 527.904 265.681 528.816C266.545 529.728 267.625 530.184 268.921 530.184C270.281 530.184 271.361 529.728 272.161 528.816ZM283.437 531.312C281.725 531.312 280.309 530.752 279.189 529.632C278.085 528.512 277.533 527.104 277.533 525.408C277.533 523.696 278.085 522.288 279.189 521.184C280.293 520.08 281.709 519.528 283.437 519.528C285.165 519.528 286.581 520.08 287.685 521.184C288.805 522.288 289.365 523.696 289.365 525.408C289.365 527.104 288.805 528.512 287.685 529.632C286.581 530.752 285.165 531.312 283.437 531.312ZM283.437 530.184C284.813 530.184 285.917 529.728 286.749 528.816C287.581 527.904 287.997 526.768 287.997 525.408C287.997 524.048 287.581 522.912 286.749 522C285.917 521.072 284.813 520.608 283.437 520.608C282.077 520.608 280.981 521.072 280.149 522C279.317 522.912 278.901 524.048 278.901 525.408C278.901 526.768 279.317 527.904 280.149 528.816C280.981 529.728 282.077 530.184 283.437 530.184ZM293.022 531V519.816H300.294V520.92H294.342V531H293.022ZM303.076 531V519.816H304.396V529.176L311.428 519.816H312.844V531H311.572V521.568H311.524L304.492 531H303.076ZM324.525 516.384C323.933 516.928 323.173 517.2 322.245 517.2C321.317 517.2 320.549 516.928 319.941 516.384C319.349 515.824 318.997 515.096 318.885 514.2L319.797 514.032C319.909 514.704 320.189 515.224 320.637 515.592C321.085 515.96 321.621 516.144 322.245 516.144C322.869 516.144 323.405 515.96 323.853 515.592C324.301 515.224 324.581 514.704 324.693 514.032L325.605 514.2C325.493 515.096 325.133 515.824 324.525 516.384ZM317.373 531V519.816H318.693V529.176L325.725 519.816H327.141V531H325.869V521.568H325.821L318.789 531H317.373ZM333.542 530.04C333.542 530.344 333.438 530.608 333.23 530.832C333.022 531.04 332.766 531.144 332.462 531.144C332.158 531.144 331.902 531.04 331.694 530.832C331.486 530.608 331.382 530.344 331.382 530.04C331.382 529.752 331.486 529.504 331.694 529.296C331.902 529.072 332.158 528.96 332.462 528.96C332.766 528.96 333.022 529.072 333.23 529.296C333.438 529.504 333.542 529.752 333.542 530.04ZM343.757 531.168C343.229 531.168 342.773 531.12 342.389 531.024L342.629 529.752C342.965 529.864 343.341 529.92 343.757 529.92C344.765 529.92 345.613 529.288 346.301 528.024L347.573 525.672L340.949 514.008H342.533L348.341 524.28L353.957 514.008H355.469L347.477 528.504C346.981 529.4 346.453 530.072 345.893 530.52C345.333 530.952 344.621 531.168 343.757 531.168ZM363.993 531V514.008H368.913C369.617 514.008 370.265 514.08 370.857 514.224C371.465 514.352 372.041 514.568 372.585 514.872C373.129 515.176 373.553 515.616 373.857 516.192C374.177 516.768 374.337 517.456 374.337 518.256C374.337 519.216 374.041 520.032 373.449 520.704C372.873 521.36 372.121 521.792 371.193 522V522.048C372.297 522.16 373.233 522.592 374.001 523.344C374.769 524.096 375.153 525.096 375.153 526.344C375.153 527.832 374.585 528.984 373.449 529.8C372.329 530.6 370.873 531 369.081 531H363.993ZM365.361 529.824H368.937C370.361 529.824 371.521 529.536 372.417 528.96C373.313 528.384 373.761 527.496 373.761 526.296C373.761 525.096 373.345 524.2 372.513 523.608C371.681 523 370.585 522.696 369.225 522.696H365.361V529.824ZM365.361 521.544H369.009C370.081 521.544 371.001 521.288 371.769 520.776C372.553 520.248 372.945 519.44 372.945 518.352C372.945 517.264 372.545 516.464 371.745 515.952C370.945 515.44 369.913 515.184 368.649 515.184H365.361V521.544ZM381.966 531.312C380.974 531.312 380.086 531.032 379.302 530.472C378.518 529.912 378.126 529.08 378.126 527.976C378.126 527.336 378.262 526.784 378.534 526.32C378.822 525.856 379.182 525.496 379.614 525.24C380.046 524.968 380.582 524.76 381.222 524.616C381.878 524.456 382.51 524.352 383.118 524.304C383.726 524.256 384.422 524.232 385.206 524.232H386.046V523.728C386.046 521.648 384.99 520.608 382.878 520.608C381.566 520.608 380.454 521.048 379.542 521.928L378.822 521.064C379.878 520.04 381.27 519.528 382.998 519.528C384.294 519.528 385.334 519.872 386.118 520.56C386.902 521.248 387.294 522.256 387.294 523.584V528.48C387.294 529.488 387.358 530.328 387.486 531H386.31C386.182 530.232 386.118 529.544 386.118 528.936H386.07C385.19 530.52 383.822 531.312 381.966 531.312ZM382.278 530.232C383.494 530.232 384.422 529.84 385.062 529.056C385.718 528.256 386.046 527.296 386.046 526.176V525.264H385.206C381.382 525.264 379.47 526.144 379.47 527.904C379.47 528.704 379.742 529.296 380.286 529.68C380.846 530.048 381.51 530.232 382.278 530.232ZM400.575 521.28L399.711 522.072C399.375 521.64 398.927 521.296 398.367 521.04C397.807 520.784 397.223 520.656 396.615 520.656C395.287 520.656 394.207 521.112 393.375 522.024C392.559 522.92 392.151 524.048 392.151 525.408C392.151 526.768 392.559 527.896 393.375 528.792C394.191 529.688 395.255 530.136 396.567 530.136C397.879 530.136 398.967 529.688 399.831 528.792L400.647 529.536C399.623 530.72 398.263 531.312 396.567 531.312C394.839 531.312 393.447 530.76 392.391 529.656C391.335 528.552 390.807 527.136 390.807 525.408C390.807 523.696 391.343 522.288 392.415 521.184C393.503 520.08 394.895 519.528 396.591 519.528C398.319 519.528 399.647 520.112 400.575 521.28ZM414.522 531.312C412.778 531.312 411.362 530.768 410.274 529.68C409.186 528.576 408.642 527.152 408.642 525.408C408.642 523.664 409.178 522.248 410.25 521.16C411.322 520.072 412.738 519.528 414.498 519.528C416.258 519.528 417.618 520.096 418.578 521.232L417.69 522.048C416.81 521.072 415.746 520.584 414.498 520.584C413.282 520.584 412.274 520.96 411.474 521.712C410.674 522.464 410.194 523.44 410.034 524.64H415.866V525.744H409.986C410.05 527.024 410.49 528.096 411.306 528.96C412.138 529.808 413.21 530.232 414.522 530.232C415.818 530.232 416.89 529.752 417.738 528.792L418.674 529.56C417.666 530.728 416.282 531.312 414.522 531.312ZM426.668 531L429.716 526.392C427.828 525.992 426.884 524.912 426.884 523.152C426.884 522.096 427.26 521.28 428.012 520.704C428.764 520.112 429.788 519.816 431.084 519.816H435.716V531H434.396V526.488H431.132L428.252 531H426.668ZM431.084 525.384H434.396V520.92H431.156C430.212 520.92 429.484 521.112 428.972 521.496C428.46 521.88 428.204 522.432 428.204 523.152C428.204 523.84 428.452 524.384 428.948 524.784C429.46 525.184 430.172 525.384 431.084 525.384ZM440.281 531V519.816H441.577V525.096H441.649L447.097 519.816H448.969L443.137 525.144L449.569 531H447.649L441.649 525.312H441.577V531H440.281ZM452.139 531V519.816H453.459V531H452.139ZM453.459 516.072C453.267 516.264 453.043 516.36 452.787 516.36C452.531 516.36 452.307 516.264 452.115 516.072C451.923 515.88 451.827 515.648 451.827 515.376C451.827 515.104 451.923 514.872 452.115 514.68C452.307 514.488 452.531 514.392 452.787 514.392C453.043 514.392 453.267 514.488 453.459 514.68C453.667 514.872 453.771 515.104 453.771 515.376C453.771 515.648 453.667 515.88 453.459 516.072ZM466.903 521.28L466.039 522.072C465.703 521.64 465.255 521.296 464.695 521.04C464.135 520.784 463.551 520.656 462.943 520.656C461.615 520.656 460.535 521.112 459.703 522.024C458.887 522.92 458.479 524.048 458.479 525.408C458.479 526.768 458.887 527.896 459.703 528.792C460.519 529.688 461.583 530.136 462.895 530.136C464.207 530.136 465.295 529.688 466.159 528.792L466.975 529.536C465.951 530.72 464.591 531.312 462.895 531.312C461.167 531.312 459.775 530.76 458.719 529.656C457.663 528.552 457.135 527.136 457.135 525.408C457.135 523.696 457.671 522.288 458.743 521.184C459.831 520.08 461.223 519.528 462.919 519.528C464.647 519.528 465.975 520.112 466.903 521.28ZM469.834 531V519.816H471.154V524.64H478.018V519.816H479.314V531H478.018V525.744H471.154V531H469.834ZM483.85 531V519.816H485.17V529.176L492.202 519.816H493.618V531H492.346V521.568H492.298L485.266 531H483.85ZM505.299 516.384C504.707 516.928 503.947 517.2 503.019 517.2C502.091 517.2 501.323 516.928 500.715 516.384C500.123 515.824 499.771 515.096 499.659 514.2L500.571 514.032C500.683 514.704 500.963 515.224 501.411 515.592C501.859 515.96 502.395 516.144 503.019 516.144C503.643 516.144 504.179 515.96 504.627 515.592C505.075 515.224 505.355 514.704 505.467 514.032L506.379 514.2C506.267 515.096 505.907 515.824 505.299 516.384ZM498.147 531V519.816H499.467V529.176L506.499 519.816H507.915V531H506.643V521.568H506.595L499.563 531H498.147ZM95.232 561.312C94.24 561.312 93.352 561.032 92.568 560.472C91.784 559.912 91.392 559.08 91.392 557.976C91.392 557.336 91.528 556.784 91.8 556.32C92.088 555.856 92.448 555.496 92.88 555.24C93.312 554.968 93.848 554.76 94.488 554.616C95.144 554.456 95.776 554.352 96.384 554.304C96.992 554.256 97.688 554.232 98.472 554.232H99.312V553.728C99.312 551.648 98.256 550.608 96.144 550.608C94.832 550.608 93.72 551.048 92.808 551.928L92.088 551.064C93.144 550.04 94.536 549.528 96.264 549.528C97.56 549.528 98.6 549.872 99.384 550.56C100.168 551.248 100.56 552.256 100.56 553.584V558.48C100.56 559.488 100.624 560.328 100.752 561H99.576C99.448 560.232 99.384 559.544 99.384 558.936H99.336C98.456 560.52 97.088 561.312 95.232 561.312ZM95.544 560.232C96.76 560.232 97.688 559.84 98.328 559.056C98.984 558.256 99.312 557.296 99.312 556.176V555.264H98.472C94.648 555.264 92.736 556.144 92.736 557.904C92.736 558.704 93.008 559.296 93.552 559.68C94.112 560.048 94.776 560.232 95.544 560.232ZM104.912 561V549.816H106.232V554.64H113.096V549.816H114.392V561H113.096V555.744H106.232V561H104.912ZM121.904 561.312C120.912 561.312 120.024 561.032 119.24 560.472C118.456 559.912 118.064 559.08 118.064 557.976C118.064 557.336 118.2 556.784 118.472 556.32C118.76 555.856 119.12 555.496 119.552 555.24C119.984 554.968 120.52 554.76 121.16 554.616C121.816 554.456 122.448 554.352 123.056 554.304C123.664 554.256 124.36 554.232 125.144 554.232H125.984V553.728C125.984 551.648 124.928 550.608 122.816 550.608C121.504 550.608 120.392 551.048 119.48 551.928L118.76 551.064C119.816 550.04 121.208 549.528 122.936 549.528C124.232 549.528 125.272 549.872 126.056 550.56C126.84 551.248 127.232 552.256 127.232 553.584V558.48C127.232 559.488 127.296 560.328 127.424 561H126.248C126.12 560.232 126.056 559.544 126.056 558.936H126.008C125.128 560.52 123.76 561.312 121.904 561.312ZM122.216 560.232C123.432 560.232 124.36 559.84 125 559.056C125.656 558.256 125.984 557.296 125.984 556.176V555.264H125.144C121.32 555.264 119.408 556.144 119.408 557.904C119.408 558.704 119.68 559.296 120.224 559.68C120.784 560.048 121.448 560.232 122.216 560.232ZM130.72 561.12C130.304 561.12 129.936 561.072 129.616 560.976L129.784 559.848C129.992 559.928 130.24 559.968 130.528 559.968C131.472 559.968 132.16 559.464 132.592 558.456C133.04 557.432 133.264 555.848 133.264 553.704V549.816H141.016V561H139.72V550.92H134.536V554.112C134.536 558.784 133.264 561.12 130.72 561.12ZM150.569 561.312C148.857 561.312 147.441 560.752 146.321 559.632C145.217 558.512 144.665 557.104 144.665 555.408C144.665 553.696 145.217 552.288 146.321 551.184C147.425 550.08 148.841 549.528 150.569 549.528C152.297 549.528 153.713 550.08 154.817 551.184C155.937 552.288 156.497 553.696 156.497 555.408C156.497 557.104 155.937 558.512 154.817 559.632C153.713 560.752 152.297 561.312 150.569 561.312ZM150.569 560.184C151.945 560.184 153.049 559.728 153.881 558.816C154.713 557.904 155.129 556.768 155.129 555.408C155.129 554.048 154.713 552.912 153.881 552C153.049 551.072 151.945 550.608 150.569 550.608C149.209 550.608 148.113 551.072 147.281 552C146.449 552.912 146.033 554.048 146.033 555.408C146.033 556.768 146.449 557.904 147.281 558.816C148.113 559.728 149.209 560.184 150.569 560.184ZM160.154 561V549.816H167.426V550.92H161.474V561H160.154ZM179.353 561.312C177.353 561.312 175.865 560.624 174.889 559.248L175.849 558.48C176.665 559.616 177.825 560.184 179.329 560.184C180.177 560.184 180.889 559.992 181.465 559.608C182.041 559.224 182.329 558.64 182.329 557.856C182.329 557.152 182.017 556.616 181.393 556.248C180.769 555.88 179.977 555.696 179.017 555.696H178.081V554.64H178.921C179.817 554.64 180.553 554.456 181.129 554.088C181.705 553.704 181.993 553.168 181.993 552.48C181.993 551.856 181.737 551.392 181.225 551.088C180.729 550.768 180.065 550.608 179.233 550.608C178.641 550.608 178.073 550.744 177.529 551.016C177.001 551.288 176.585 551.664 176.281 552.144L175.273 551.424C175.641 550.816 176.177 550.352 176.881 550.032C177.601 549.696 178.401 549.528 179.281 549.528C180.481 549.528 181.449 549.784 182.185 550.296C182.921 550.808 183.289 551.536 183.289 552.48C183.289 553.136 183.065 553.704 182.617 554.184C182.185 554.648 181.617 554.952 180.913 555.096V555.144C181.729 555.256 182.385 555.56 182.881 556.056C183.377 556.552 183.625 557.168 183.625 557.904C183.625 558.96 183.225 559.792 182.425 560.4C181.641 561.008 180.617 561.312 179.353 561.312ZM193.342 561V549.816H194.662V554.64H201.526V549.816H202.822V561H201.526V555.744H194.662V561H193.342ZM207.358 561V549.816H208.678V559.176L215.71 549.816H217.126V561H215.854V551.568H215.806L208.774 561H207.358ZM219.71 561L225.878 555.144L220.31 549.816H222.182L227.438 555.096H227.486V549.816H228.806V555.096H228.854L234.11 549.816H235.982L230.414 555.144L236.582 561H234.662L228.854 555.312H228.806V561H227.486V555.312H227.438L221.63 561H219.71ZM245.907 561V556.272C244.771 556.576 243.627 556.728 242.475 556.728C239.979 556.728 238.731 555.568 238.731 553.248V549.816H240.051V553.104C240.051 554.08 240.267 554.744 240.699 555.096C241.147 555.448 241.827 555.624 242.739 555.624C243.635 555.624 244.691 555.472 245.907 555.168V549.816H247.203V561H245.907ZM256.788 561.312C255.076 561.312 253.66 560.752 252.54 559.632C251.436 558.512 250.884 557.104 250.884 555.408C250.884 553.696 251.436 552.288 252.54 551.184C253.644 550.08 255.06 549.528 256.788 549.528C258.516 549.528 259.932 550.08 261.036 551.184C262.156 552.288 262.716 553.696 262.716 555.408C262.716 557.104 262.156 558.512 261.036 559.632C259.932 560.752 258.516 561.312 256.788 561.312ZM256.788 560.184C258.164 560.184 259.268 559.728 260.1 558.816C260.932 557.904 261.348 556.768 261.348 555.408C261.348 554.048 260.932 552.912 260.1 552C259.268 551.072 258.164 550.608 256.788 550.608C255.428 550.608 254.332 551.072 253.5 552C252.668 552.912 252.252 554.048 252.252 555.408C252.252 556.768 252.668 557.904 253.5 558.816C254.332 559.728 255.428 560.184 256.788 560.184ZM266.373 561V549.816H267.693V554.64H270.405C270.581 553.152 271.181 551.928 272.205 550.968C273.245 550.008 274.533 549.528 276.069 549.528C277.749 549.528 279.117 550.088 280.173 551.208C281.229 552.328 281.757 553.736 281.757 555.432C281.757 557.128 281.221 558.536 280.149 559.656C279.093 560.776 277.733 561.336 276.069 561.336C274.453 561.336 273.117 560.808 272.061 559.752C271.021 558.696 270.461 557.368 270.381 555.768L267.693 555.744V561H266.373ZM276.069 560.232C277.365 560.232 278.405 559.776 279.189 558.864C279.989 557.936 280.389 556.792 280.389 555.432C280.389 554.072 279.989 552.936 279.189 552.024C278.405 551.096 277.365 550.632 276.069 550.632C274.757 550.632 273.709 551.088 272.925 552C272.141 552.912 271.749 554.056 271.749 555.432C271.749 556.808 272.141 557.952 272.925 558.864C273.709 559.776 274.757 560.232 276.069 560.232ZM301.316 564.672V561H291.404V549.816H292.724V559.872H299.42V549.816H300.716V559.872H302.54V564.672H301.316ZM305.654 561V549.816H306.974V561H305.654ZM306.974 546.072C306.782 546.264 306.558 546.36 306.302 546.36C306.046 546.36 305.822 546.264 305.63 546.072C305.438 545.88 305.342 545.648 305.342 545.376C305.342 545.104 305.438 544.872 305.63 544.68C305.822 544.488 306.046 544.392 306.302 544.392C306.558 544.392 306.782 544.488 306.974 544.68C307.182 544.872 307.286 545.104 307.286 545.376C307.286 545.648 307.182 545.88 306.974 546.072ZM311.49 561V549.816H312.81V554.64H319.674V549.816H320.97V561H319.674V555.744H312.81V561H311.49ZM330.546 561.312C328.834 561.312 327.418 560.752 326.298 559.632C325.194 558.512 324.642 557.104 324.642 555.408C324.642 553.696 325.194 552.288 326.298 551.184C327.402 550.08 328.818 549.528 330.546 549.528C332.274 549.528 333.69 550.08 334.794 551.184C335.914 552.288 336.474 553.696 336.474 555.408C336.474 557.104 335.914 558.512 334.794 559.632C333.69 560.752 332.274 561.312 330.546 561.312ZM330.546 560.184C331.922 560.184 333.026 559.728 333.858 558.816C334.69 557.904 335.106 556.768 335.106 555.408C335.106 554.048 334.69 552.912 333.858 552C333.026 551.072 331.922 550.608 330.546 550.608C329.186 550.608 328.09 551.072 327.258 552C326.426 552.912 326.01 554.048 326.01 555.408C326.01 556.768 326.426 557.904 327.258 558.816C328.09 559.728 329.186 560.184 330.546 560.184ZM340.131 561V549.816H341.451V554.64H344.163C344.339 553.152 344.939 551.928 345.963 550.968C347.003 550.008 348.291 549.528 349.827 549.528C351.507 549.528 352.875 550.088 353.931 551.208C354.987 552.328 355.515 553.736 355.515 555.432C355.515 557.128 354.979 558.536 353.907 559.656C352.851 560.776 351.491 561.336 349.827 561.336C348.211 561.336 346.875 560.808 345.819 559.752C344.779 558.696 344.219 557.368 344.139 555.768L341.451 555.744V561H340.131ZM349.827 560.232C351.123 560.232 352.163 559.776 352.947 558.864C353.747 557.936 354.147 556.792 354.147 555.432C354.147 554.072 353.747 552.936 352.947 552.024C352.163 551.096 351.123 550.632 349.827 550.632C348.515 550.632 347.467 551.088 346.683 552C345.899 552.912 345.507 554.056 345.507 555.432C345.507 556.808 345.899 557.952 346.683 558.864C347.467 559.776 348.515 560.232 349.827 560.232ZM363.314 555.24V556.344H361.97V554.952C361.97 554.2 362.122 553.552 362.426 553.008C362.746 552.464 363.21 551.928 363.818 551.4L364.538 550.776C365.018 550.36 365.378 549.936 365.618 549.504C365.874 549.072 366.002 548.544 366.002 547.92C366.002 546.976 365.69 546.232 365.066 545.688C364.458 545.144 363.69 544.872 362.762 544.872C361.85 544.872 361.09 545.152 360.482 545.712C359.89 546.256 359.522 546.976 359.378 547.872L358.082 547.632C358.322 546.4 358.866 545.432 359.714 544.728C360.562 544.024 361.594 543.672 362.81 543.672C364.122 543.672 365.21 544.048 366.074 544.8C366.938 545.536 367.37 546.552 367.37 547.848C367.37 548.776 367.194 549.512 366.842 550.056C366.49 550.6 365.938 551.176 365.186 551.784C364.434 552.408 363.93 552.936 363.674 553.368C363.434 553.8 363.314 554.424 363.314 555.24ZM363.842 560.064C363.842 560.352 363.738 560.608 363.53 560.832C363.338 561.04 363.09 561.144 362.786 561.144C362.466 561.144 362.202 561.04 361.994 560.832C361.802 560.608 361.706 560.352 361.706 560.064C361.706 559.76 361.802 559.504 361.994 559.296C362.202 559.072 362.466 558.96 362.786 558.96C363.09 558.96 363.338 559.072 363.53 559.296C363.738 559.504 363.842 559.76 363.842 560.064ZM375.495 561L380.151 553.392C378.823 553.184 377.759 552.688 376.959 551.904C376.175 551.12 375.783 550.056 375.783 548.712C375.783 547.144 376.319 545.968 377.391 545.184C378.479 544.4 379.911 544.008 381.687 544.008H386.415V561H385.047V553.512H381.639L377.151 561H375.495ZM381.735 552.312H385.047V545.184H381.831C380.407 545.184 379.271 545.472 378.423 546.048C377.575 546.624 377.151 547.504 377.151 548.688C377.151 549.872 377.559 550.776 378.375 551.4C379.207 552.008 380.327 552.312 381.735 552.312ZM391.062 561V549.816H392.358V555.096H392.43L397.878 549.816H399.75L393.918 555.144L400.35 561H398.43L392.43 555.312H392.358V561H391.062ZM419.24 564.672V561H402.92V549.816H404.24V559.872H410.144V549.816H411.44V559.872H417.344V549.816H418.64V559.872H420.464V564.672H419.24ZM428.632 561.312C426.92 561.312 425.504 560.752 424.384 559.632C423.28 558.512 422.728 557.104 422.728 555.408C422.728 553.696 423.28 552.288 424.384 551.184C425.488 550.08 426.904 549.528 428.632 549.528C430.36 549.528 431.776 550.08 432.88 551.184C434 552.288 434.56 553.696 434.56 555.408C434.56 557.104 434 558.512 432.88 559.632C431.776 560.752 430.36 561.312 428.632 561.312ZM428.632 560.184C430.008 560.184 431.112 559.728 431.944 558.816C432.776 557.904 433.192 556.768 433.192 555.408C433.192 554.048 432.776 552.912 431.944 552C431.112 551.072 430.008 550.608 428.632 550.608C427.272 550.608 426.176 551.072 425.344 552C424.512 552.912 424.096 554.048 424.096 555.408C424.096 556.768 424.512 557.904 425.344 558.816C426.176 559.728 427.272 560.184 428.632 560.184ZM444.217 561V549.816H445.537V554.64H452.401V549.816H453.697V561H452.401V555.744H445.537V561H444.217ZM458.233 561V549.816H459.553V561H458.233ZM459.553 546.072C459.361 546.264 459.137 546.36 458.881 546.36C458.625 546.36 458.401 546.264 458.209 546.072C458.017 545.88 457.921 545.648 457.921 545.376C457.921 545.104 458.017 544.872 458.209 544.68C458.401 544.488 458.625 544.392 458.881 544.392C459.137 544.392 459.361 544.488 459.553 544.68C459.761 544.872 459.865 545.104 459.865 545.376C459.865 545.648 459.761 545.88 459.553 546.072ZM481.493 554.544V555.648H468.533V554.544H481.493ZM90.6 593.672V588.872H91.92C92.464 588.184 92.912 587.232 93.264 586.016C93.616 584.8 93.792 583.408 93.792 581.84V578.816H101.688V588.872H103.512V593.672H102.288V590H91.824V593.672H90.6ZM93.408 588.872H100.416V579.92H95.064V582.176C95.064 584.816 94.512 587.048 93.408 588.872ZM109.599 590.312C108.607 590.312 107.719 590.032 106.935 589.472C106.151 588.912 105.759 588.08 105.759 586.976C105.759 586.336 105.895 585.784 106.167 585.32C106.455 584.856 106.815 584.496 107.247 584.24C107.679 583.968 108.215 583.76 108.855 583.616C109.511 583.456 110.143 583.352 110.751 583.304C111.359 583.256 112.055 583.232 112.839 583.232H113.679V582.728C113.679 580.648 112.623 579.608 110.511 579.608C109.199 579.608 108.087 580.048 107.175 580.928L106.455 580.064C107.511 579.04 108.903 578.528 110.631 578.528C111.927 578.528 112.967 578.872 113.751 579.56C114.535 580.248 114.927 581.256 114.927 582.584V587.48C114.927 588.488 114.991 589.328 115.119 590H113.943C113.815 589.232 113.751 588.544 113.751 587.936H113.703C112.823 589.52 111.455 590.312 109.599 590.312ZM109.911 589.232C111.127 589.232 112.055 588.84 112.695 588.056C113.351 587.256 113.679 586.296 113.679 585.176V584.264H112.839C109.015 584.264 107.103 585.144 107.103 586.904C107.103 587.704 107.375 588.296 107.919 588.68C108.479 589.048 109.143 589.232 109.911 589.232ZM119.279 590V578.816H124.295C125.287 578.816 126.127 579.032 126.815 579.464C127.503 579.896 127.847 580.616 127.847 581.624C127.847 582.248 127.655 582.776 127.271 583.208C126.887 583.64 126.399 583.928 125.807 584.072V584.096C126.543 584.192 127.159 584.488 127.655 584.984C128.151 585.464 128.399 586.112 128.399 586.928C128.399 587.904 128.031 588.664 127.295 589.208C126.559 589.736 125.599 590 124.415 590H119.279ZM120.599 588.872H124.223C125.071 588.872 125.751 588.704 126.263 588.368C126.791 588.032 127.055 587.52 127.055 586.832C127.055 586.128 126.807 585.6 126.311 585.248C125.815 584.896 125.175 584.72 124.391 584.72H120.599V588.872ZM120.599 583.64H124.247C124.871 583.64 125.415 583.488 125.879 583.184C126.343 582.864 126.575 582.392 126.575 581.768C126.575 581.128 126.335 580.664 125.855 580.376C125.391 580.072 124.783 579.92 124.031 579.92H120.599V583.64ZM135.029 590.312C134.037 590.312 133.149 590.032 132.365 589.472C131.581 588.912 131.189 588.08 131.189 586.976C131.189 586.336 131.325 585.784 131.597 585.32C131.885 584.856 132.245 584.496 132.677 584.24C133.109 583.968 133.645 583.76 134.285 583.616C134.941 583.456 135.573 583.352 136.181 583.304C136.789 583.256 137.485 583.232 138.269 583.232H139.109V582.728C139.109 580.648 138.053 579.608 135.941 579.608C134.629 579.608 133.517 580.048 132.605 580.928L131.885 580.064C132.941 579.04 134.333 578.528 136.061 578.528C137.357 578.528 138.397 578.872 139.181 579.56C139.965 580.248 140.357 581.256 140.357 582.584V587.48C140.357 588.488 140.421 589.328 140.549 590H139.373C139.245 589.232 139.181 588.544 139.181 587.936H139.133C138.253 589.52 136.885 590.312 135.029 590.312ZM135.341 589.232C136.557 589.232 137.485 588.84 138.125 588.056C138.781 587.256 139.109 586.296 139.109 585.176V584.264H138.269C134.445 584.264 132.533 585.144 132.533 586.904C132.533 587.704 132.805 588.296 133.349 588.68C133.909 589.048 134.573 589.232 135.341 589.232ZM151.861 575.384C151.269 575.928 150.509 576.2 149.581 576.2C148.653 576.2 147.885 575.928 147.277 575.384C146.685 574.824 146.333 574.096 146.221 573.2L147.133 573.032C147.245 573.704 147.525 574.224 147.973 574.592C148.421 574.96 148.957 575.144 149.581 575.144C150.205 575.144 150.741 574.96 151.189 574.592C151.637 574.224 151.917 573.704 152.029 573.032L152.941 573.2C152.829 574.096 152.469 574.824 151.861 575.384ZM144.709 590V578.816H146.029V588.176L153.061 578.816H154.477V590H153.205V580.568H153.157L146.125 590H144.709ZM161.382 590V579.92H157.254V578.816H166.806V579.92H162.678V590H161.382ZM169.823 583.64H177.983C177.935 582.44 177.551 581.472 176.831 580.736C176.127 579.984 175.175 579.608 173.975 579.608C172.791 579.608 171.815 580.032 171.047 580.88C170.279 581.712 169.871 582.632 169.823 583.64ZM174.118 590.312C172.487 590.312 171.135 589.752 170.062 588.632C168.991 587.512 168.455 586.096 168.455 584.384C168.455 582.704 168.983 581.312 170.039 580.208C171.111 579.088 172.431 578.528 173.999 578.528C175.679 578.528 176.975 579.056 177.887 580.112C178.815 581.152 179.279 582.448 179.279 584V584.672H169.799C169.831 585.904 170.247 586.968 171.047 587.864C171.847 588.744 172.887 589.184 174.167 589.184C175.655 589.184 176.935 588.552 178.007 587.288L178.871 587.984C177.671 589.536 176.087 590.312 174.118 590.312ZM194.144 590.312C192.192 590.312 190.72 589.664 189.728 588.368C188.784 587.296 188.312 585.568 188.312 583.184C188.312 582.176 188.328 581.312 188.36 580.592C188.408 579.856 188.488 579.096 188.6 578.312C188.712 577.528 188.88 576.864 189.104 576.32C189.344 575.776 189.64 575.272 189.992 574.808C190.344 574.328 190.792 573.952 191.336 573.68C191.896 573.408 192.544 573.224 193.28 573.128L196.88 572.696C198.016 572.552 198.68 572.184 198.872 571.592L199.808 571.88C199.536 572.952 198.688 573.576 197.264 573.752L193.832 574.184C192.2 574.392 191.064 575.04 190.424 576.128C189.784 577.216 189.448 579.008 189.416 581.504H189.488C190.48 579.536 192.152 578.552 194.504 578.552C196.152 578.552 197.488 579.112 198.512 580.232C199.536 581.352 200.048 582.752 200.048 584.432C200.048 586.128 199.496 587.536 198.392 588.656C197.288 589.76 195.872 590.312 194.144 590.312ZM190.88 587.84C191.712 588.736 192.8 589.184 194.144 589.184C195.488 589.184 196.576 588.736 197.408 587.84C198.256 586.944 198.68 585.816 198.68 584.456C198.68 583.08 198.272 581.936 197.456 581.024C196.64 580.112 195.56 579.656 194.216 579.656C192.888 579.656 191.792 580.12 190.928 581.048C190.08 581.96 189.656 583.096 189.656 584.456C189.656 585.816 190.064 586.944 190.88 587.84ZM204.997 587.84V595.76H203.701V578.816H204.997V581.048H205.069C205.533 580.216 206.157 579.592 206.941 579.176C207.741 578.744 208.597 578.528 209.509 578.528C211.205 578.528 212.581 579.088 213.637 580.208C214.709 581.312 215.245 582.712 215.245 584.408C215.245 586.104 214.717 587.512 213.661 588.632C212.621 589.752 211.253 590.312 209.557 590.312C208.629 590.312 207.757 590.104 206.941 589.688C206.125 589.256 205.501 588.64 205.069 587.84H204.997ZM212.629 587.816C213.445 586.904 213.853 585.768 213.853 584.408C213.853 583.048 213.445 581.912 212.629 581C211.829 580.072 210.749 579.608 209.389 579.608C208.093 579.608 207.013 580.072 206.149 581C205.301 581.912 204.877 583.048 204.877 584.408C204.877 585.768 205.301 586.904 206.149 587.816C207.013 588.728 208.093 589.184 209.389 589.184C210.749 589.184 211.829 588.728 212.629 587.816ZM219.369 583.64H227.529C227.481 582.44 227.097 581.472 226.377 580.736C225.673 579.984 224.721 579.608 223.521 579.608C222.337 579.608 221.361 580.032 220.593 580.88C219.825 581.712 219.417 582.632 219.369 583.64ZM223.665 590.312C222.033 590.312 220.681 589.752 219.609 588.632C218.537 587.512 218.001 586.096 218.001 584.384C218.001 582.704 218.529 581.312 219.585 580.208C220.657 579.088 221.977 578.528 223.545 578.528C225.225 578.528 226.521 579.056 227.433 580.112C228.361 581.152 228.825 582.448 228.825 584V584.672H219.345C219.377 585.904 219.793 586.968 220.593 587.864C221.393 588.744 222.433 589.184 223.713 589.184C225.201 589.184 226.481 588.552 227.553 587.288L228.417 587.984C227.217 589.536 225.633 590.312 223.665 590.312ZM232.483 590V578.816H233.803V583.64H240.667V578.816H241.963V590H240.667V584.744H233.803V590H232.483ZM244.842 593.672V588.872H246.162C246.706 588.184 247.154 587.232 247.506 586.016C247.858 584.8 248.034 583.408 248.034 581.84V578.816H255.93V588.872H257.754V593.672H256.53V590H246.066V593.672H244.842ZM247.65 588.872H254.658V579.92H249.306V582.176C249.306 584.816 248.754 587.048 247.65 588.872ZM263.464 589.04C263.464 589.344 263.36 589.608 263.152 589.832C262.944 590.04 262.688 590.144 262.384 590.144C262.08 590.144 261.824 590.04 261.616 589.832C261.408 589.608 261.304 589.344 261.304 589.04C261.304 588.752 261.408 588.504 261.616 588.296C261.824 588.072 262.08 587.96 262.384 587.96C262.688 587.96 262.944 588.072 263.152 588.296C263.36 588.504 263.464 588.752 263.464 589.04Z" fill="#424242"/>
<mask id="mask0" mask-type="alpha" maskUnits="userSpaceOnUse" x="40" y="40" width="540" height="350">
<path d="M40 80C40 57.9086 57.9086 40 80 40H540C562.091 40 580 57.9086 580 80V390H40V80Z" fill="#CDCDCD"/>
</mask>
<g mask="url(#mask0)">
<rect x="-165" y="20" width="950" height="631"/>
<path opacity="0.2" d="M40 80C40 57.9086 57.9086 40 80 40H540C562.091 40 580 57.9086 580 80V390H40V80Z" fill="url(#paint0_linear)"/>
</g>
<defs>
<filter id="filter0_d" x="0" y="0" width="620" height="670" filterUnits="userSpaceOnUse" color-interpolation-filters="sRGB">
<feFlood flood-opacity="0" result="BackgroundImageFix"/>
<feColorMatrix in="SourceAlpha" type="matrix" values="0 0 0 0 0 0 0 0 0 0 0 0 0 0 0 0 0 0 127 0"/>
<feOffset/>
<feGaussianBlur stdDeviation="20"/>
<feColorMatrix type="matrix" values="0 0 0 0 0.497817 0 0 0 0 0.497817 0 0 0 0 0.497817 0 0 0 0.4 0"/>
<feBlend mode="normal" in2="BackgroundImageFix" result="effect1_dropShadow"/>
<feBlend mode="normal" in="SourceGraphic" in2="effect1_dropShadow" result="shape"/>
</filter>
<linearGradient id="paint0_linear" x1="40" y1="215" x2="379.545" y2="-45.8898" gradientUnits="userSpaceOnUse">
<stop stop-color="#2D8550"/>
<stop offset="1" stop-color="#5E6EC2"/>
</linearGradient>
</defs>
</svg>
