<svg width="620" height="670" viewBox="0 0 620 670" fill="none" xmlns="http://www.w3.org/2000/svg">
<g filter="url(#filter0_d)">
<path d="M40 80C40 57.9086 57.9086 40 80 40H540C562.091 40 580 57.9086 580 80V590C580 612.091 562.091 630 540 630H80C57.9086 630 40 612.091 40 590V80Z" fill="white"/>
</g>
<path d="M103.472 436.608C99.952 436.608 97.04 435.499 94.736 433.28C92.432 431.04 91.28 428.16 91.28 424.64C91.28 421.077 92.4427 418.208 94.768 416.032C97.1147 413.835 100.048 412.736 103.568 412.736C105.211 412.736 106.8 413.035 108.336 413.632C109.893 414.208 111.131 415.019 112.048 416.064L108.336 419.776C107.845 419.093 107.184 418.581 106.352 418.24C105.541 417.877 104.677 417.696 103.76 417.696C101.861 417.696 100.293 418.357 99.056 419.68C97.84 420.981 97.232 422.635 97.232 424.64C97.232 426.688 97.8293 428.363 99.024 429.664C100.219 430.944 101.765 431.584 103.664 431.584C105.776 431.584 107.376 430.816 108.464 429.28L112.272 432.864C110.117 435.36 107.184 436.608 103.472 436.608ZM117.064 436V424.096H112.296V420.064H127.112V424.096H122.344V436H117.064ZM137.141 436.512C134.645 436.512 132.554 435.765 130.869 434.272C129.205 432.757 128.373 430.699 128.373 428.096C128.373 425.536 129.184 423.477 130.805 421.92C132.448 420.341 134.506 419.552 136.981 419.552C139.37 419.552 141.301 420.331 142.773 421.888C144.245 423.424 144.981 425.536 144.981 428.224C144.981 428.8 144.97 429.216 144.949 429.472H133.397C133.482 430.325 133.898 431.04 134.645 431.616C135.392 432.192 136.245 432.48 137.205 432.48C138.741 432.48 139.914 431.925 140.725 430.816L144.373 433.12C142.816 435.381 140.405 436.512 137.141 436.512ZM133.397 426.208H140.149C140.149 425.333 139.872 424.608 139.317 424.032C138.784 423.456 138.016 423.168 137.013 423.168C136.032 423.168 135.2 423.467 134.517 424.064C133.834 424.661 133.461 425.376 133.397 426.208ZM148.236 436V420.064H163.98V436H158.7V424.096H153.516V436H148.236ZM172.879 436.384C171.941 436.384 171.055 436.245 170.223 435.968C169.413 435.669 168.687 435.125 168.047 434.336C167.407 433.547 167.087 432.565 167.087 431.392C167.087 427.808 170.501 426.016 177.327 426.016V425.76C177.327 425.013 177.061 424.448 176.527 424.064C175.994 423.659 175.301 423.456 174.447 423.456C172.997 423.456 171.685 424 170.511 425.088L167.855 422.24C169.754 420.448 172.122 419.552 174.959 419.552C177.583 419.552 179.461 420.224 180.591 421.568C181.722 422.891 182.287 425.024 182.287 427.968V436H177.487V434.304H177.391C177.007 434.944 176.399 435.456 175.567 435.84C174.735 436.203 173.839 436.384 172.879 436.384ZM174.191 432.864C175.237 432.864 176.047 432.576 176.623 432C177.199 431.403 177.487 430.603 177.487 429.6V429.056H176.815C173.551 429.056 171.919 429.781 171.919 431.232C171.919 431.787 172.143 432.203 172.591 432.48C173.039 432.736 173.573 432.864 174.191 432.864ZM186.204 436V420.064H191.484V425.696H196.668V420.064H201.948V436H196.668V429.728H191.484V436H186.204ZM212.064 430.88L208.96 439.968H204.64L207.04 430.88H212.064ZM239.857 428.384C239.857 430.88 239.004 432.875 237.297 434.368C235.59 435.861 233.468 436.608 230.929 436.608C228.39 436.608 226.268 435.872 224.561 434.4C222.854 432.907 222.001 430.944 222.001 428.512C222.001 426.357 222.844 424.021 224.529 421.504L230.001 413.344H236.497L230.929 421.088L230.833 421.248C231.281 421.077 231.814 420.992 232.433 420.992C234.481 420.992 236.23 421.685 237.681 423.072C239.132 424.459 239.857 426.229 239.857 428.384ZM234.481 428.512C234.481 427.488 234.15 426.645 233.489 425.984C232.849 425.301 232.006 424.96 230.961 424.96C229.916 424.96 229.052 425.301 228.369 425.984C227.708 426.645 227.377 427.499 227.377 428.544C227.377 429.547 227.708 430.4 228.369 431.104C229.03 431.787 229.884 432.128 230.929 432.128C231.974 432.128 232.828 431.797 233.489 431.136C234.15 430.453 234.481 429.579 234.481 428.512ZM255.745 436H250.369V419.36L246.145 422.624L243.361 418.816L250.817 413.344H255.745V436ZM272.048 443.68V420.064H277.04V422.016H277.136C277.648 421.312 278.341 420.736 279.216 420.288C280.112 419.84 281.115 419.616 282.224 419.616C284.464 419.616 286.277 420.437 287.664 422.08C289.072 423.701 289.776 425.664 289.776 427.968C289.776 430.315 289.083 432.32 287.696 433.984C286.331 435.627 284.496 436.448 282.192 436.448C281.211 436.448 280.283 436.256 279.408 435.872C278.533 435.467 277.851 434.923 277.36 434.24H277.296V443.68H272.048ZM280.944 432.096C282.117 432.096 283.035 431.691 283.696 430.88C284.357 430.069 284.688 429.099 284.688 427.968C284.688 426.859 284.357 425.909 283.696 425.12C283.035 424.309 282.117 423.904 280.944 423.904C279.813 423.904 278.885 424.32 278.16 425.152C277.456 425.984 277.104 426.933 277.104 428C277.104 429.088 277.456 430.048 278.16 430.88C278.885 431.691 279.813 432.096 280.944 432.096ZM293.143 436V420.064H298.391V436H293.143ZM297.879 417.024C297.303 417.579 296.599 417.856 295.767 417.856C294.935 417.856 294.221 417.579 293.623 417.024C293.047 416.448 292.759 415.765 292.759 414.976C292.759 414.208 293.047 413.536 293.623 412.96C294.221 412.384 294.935 412.096 295.767 412.096C296.599 412.096 297.303 412.384 297.879 412.96C298.477 413.515 298.775 414.187 298.775 414.976C298.775 415.787 298.477 416.469 297.879 417.024ZM302.548 436V420.064H307.828V426.816H307.924L313.14 420.064H319.508L313.268 427.52L319.796 436H313.364L307.924 428.8H307.828V436H302.548Z" fill="#8E9AD5"/>
<path d="M105.48 469.736L106.416 470.48C104.896 472.464 102.832 473.456 100.224 473.456C97.68 473.456 95.584 472.616 93.936 470.936C92.288 469.24 91.464 467.096 91.464 464.504C91.464 461.912 92.296 459.776 93.96 458.096C95.624 456.4 97.72 455.552 100.248 455.552C101.496 455.552 102.632 455.768 103.656 456.2C104.68 456.632 105.496 457.24 106.104 458.024L105.12 458.936C104.608 458.296 103.92 457.776 103.056 457.376C102.208 456.976 101.28 456.776 100.272 456.776C98.064 456.776 96.28 457.528 94.92 459.032C93.576 460.52 92.904 462.344 92.904 464.504C92.904 466.664 93.576 468.496 94.92 470C96.28 471.488 98.064 472.232 100.272 472.232C102.4 472.232 104.136 471.4 105.48 469.736ZM109.553 473V461.816H118.865V473H117.569V462.92H110.873V473H109.553ZM124.7 470.84V478.76H123.404V461.816H124.7V464.048H124.772C125.236 463.216 125.86 462.592 126.644 462.176C127.444 461.744 128.3 461.528 129.212 461.528C130.908 461.528 132.284 462.088 133.34 463.208C134.412 464.312 134.948 465.712 134.948 467.408C134.948 469.104 134.42 470.512 133.364 471.632C132.324 472.752 130.956 473.312 129.26 473.312C128.332 473.312 127.46 473.104 126.644 472.688C125.828 472.256 125.204 471.64 124.772 470.84H124.7ZM132.332 470.816C133.148 469.904 133.556 468.768 133.556 467.408C133.556 466.048 133.148 464.912 132.332 464C131.532 463.072 130.452 462.608 129.092 462.608C127.796 462.608 126.716 463.072 125.852 464C125.004 464.912 124.58 466.048 124.58 467.408C124.58 468.768 125.004 469.904 125.852 470.816C126.716 471.728 127.796 472.184 129.092 472.184C130.452 472.184 131.532 471.728 132.332 470.816ZM143.609 473.312C141.897 473.312 140.481 472.752 139.361 471.632C138.257 470.512 137.705 469.104 137.705 467.408C137.705 465.696 138.257 464.288 139.361 463.184C140.465 462.08 141.881 461.528 143.609 461.528C145.337 461.528 146.753 462.08 147.857 463.184C148.977 464.288 149.536 465.696 149.536 467.408C149.536 469.104 148.977 470.512 147.857 471.632C146.753 472.752 145.337 473.312 143.609 473.312ZM143.609 472.184C144.985 472.184 146.089 471.728 146.921 470.816C147.753 469.904 148.169 468.768 148.169 467.408C148.169 466.048 147.753 464.912 146.921 464C146.089 463.072 144.985 462.608 143.609 462.608C142.249 462.608 141.153 463.072 140.321 464C139.489 464.912 139.073 466.048 139.073 467.408C139.073 468.768 139.489 469.904 140.321 470.816C141.153 471.728 142.249 472.184 143.609 472.184ZM162.122 463.28L161.258 464.072C160.922 463.64 160.474 463.296 159.914 463.04C159.354 462.784 158.77 462.656 158.162 462.656C156.834 462.656 155.754 463.112 154.922 464.024C154.106 464.92 153.698 466.048 153.698 467.408C153.698 468.768 154.106 469.896 154.922 470.792C155.738 471.688 156.802 472.136 158.114 472.136C159.426 472.136 160.514 471.688 161.378 470.792L162.194 471.536C161.17 472.72 159.81 473.312 158.114 473.312C156.386 473.312 154.994 472.76 153.938 471.656C152.882 470.552 152.354 469.136 152.354 467.408C152.354 465.696 152.89 464.288 153.962 463.184C155.05 462.08 156.442 461.528 158.138 461.528C159.866 461.528 161.194 462.112 162.122 463.28ZM170.093 473.312C168.381 473.312 166.965 472.752 165.845 471.632C164.741 470.512 164.189 469.104 164.189 467.408C164.189 465.696 164.741 464.288 165.845 463.184C166.949 462.08 168.365 461.528 170.093 461.528C171.821 461.528 173.237 462.08 174.341 463.184C175.461 464.288 176.021 465.696 176.021 467.408C176.021 469.104 175.461 470.512 174.341 471.632C173.237 472.752 171.821 473.312 170.093 473.312ZM170.093 472.184C171.469 472.184 172.573 471.728 173.405 470.816C174.237 469.904 174.653 468.768 174.653 467.408C174.653 466.048 174.237 464.912 173.405 464C172.573 463.072 171.469 462.608 170.093 462.608C168.733 462.608 167.637 463.072 166.805 464C165.973 464.912 165.557 466.048 165.557 467.408C165.557 468.768 165.973 469.904 166.805 470.816C167.637 471.728 168.733 472.184 170.093 472.184ZM179.678 473V461.816H180.998V466.64H187.862V461.816H189.158V473H187.862V467.744H180.998V473H179.678ZM193.694 473V461.816H195.014V466.64H201.878V461.816H203.174V473H201.878V467.744H195.014V473H193.694ZM206.965 473L210.013 468.392C208.125 467.992 207.181 466.912 207.181 465.152C207.181 464.096 207.557 463.28 208.309 462.704C209.061 462.112 210.085 461.816 211.381 461.816H216.013V473H214.693V468.488H211.429L208.549 473H206.965ZM211.381 467.384H214.693V462.92H211.453C210.509 462.92 209.781 463.112 209.269 463.496C208.757 463.88 208.501 464.432 208.501 465.152C208.501 465.84 208.749 466.384 209.245 466.784C209.757 467.184 210.469 467.384 211.381 467.384ZM226.529 473V461.816H231.545C232.537 461.816 233.377 462.032 234.065 462.464C234.753 462.896 235.097 463.616 235.097 464.624C235.097 465.248 234.905 465.776 234.521 466.208C234.137 466.64 233.649 466.928 233.057 467.072V467.096C233.793 467.192 234.409 467.488 234.905 467.984C235.401 468.464 235.649 469.112 235.649 469.928C235.649 470.904 235.281 471.664 234.545 472.208C233.809 472.736 232.849 473 231.665 473H226.529ZM227.849 471.872H231.473C232.321 471.872 233.001 471.704 233.513 471.368C234.041 471.032 234.305 470.52 234.305 469.832C234.305 469.128 234.057 468.6 233.561 468.248C233.065 467.896 232.425 467.72 231.641 467.72H227.849V471.872ZM227.849 466.64H231.497C232.121 466.64 232.665 466.488 233.129 466.184C233.593 465.864 233.825 465.392 233.825 464.768C233.825 464.128 233.585 463.664 233.105 463.376C232.641 463.072 232.033 462.92 231.281 462.92H227.849V466.64ZM239.303 473V461.816H240.623V473H239.303ZM240.623 458.072C240.431 458.264 240.207 458.36 239.951 458.36C239.695 458.36 239.471 458.264 239.279 458.072C239.087 457.88 238.991 457.648 238.991 457.376C238.991 457.104 239.087 456.872 239.279 456.68C239.471 456.488 239.695 456.392 239.951 456.392C240.207 456.392 240.431 456.488 240.623 456.68C240.831 456.872 240.935 457.104 240.935 457.376C240.935 457.648 240.831 457.88 240.623 458.072ZM243.483 476.672V471.872H244.803C245.347 471.184 245.795 470.232 246.147 469.016C246.499 467.8 246.675 466.408 246.675 464.84V461.816H254.571V471.872H256.395V476.672H255.171V473H244.707V476.672H243.483ZM246.291 471.872H253.299V462.92H247.947V465.176C247.947 467.816 247.395 470.048 246.291 471.872ZM268.434 463.28L267.57 464.072C267.234 463.64 266.786 463.296 266.226 463.04C265.666 462.784 265.082 462.656 264.474 462.656C263.146 462.656 262.066 463.112 261.234 464.024C260.418 464.92 260.01 466.048 260.01 467.408C260.01 468.768 260.418 469.896 261.234 470.792C262.05 471.688 263.114 472.136 264.426 472.136C265.738 472.136 266.826 471.688 267.69 470.792L268.506 471.536C267.482 472.72 266.122 473.312 264.426 473.312C262.698 473.312 261.306 472.76 260.25 471.656C259.194 470.552 258.666 469.136 258.666 467.408C258.666 465.696 259.202 464.288 260.274 463.184C261.362 462.08 262.754 461.528 264.45 461.528C266.178 461.528 267.506 462.112 268.434 463.28ZM271.547 478.784C271.147 478.784 270.707 478.728 270.227 478.616L270.395 477.44C270.731 477.568 271.099 477.632 271.499 477.632C272.043 477.632 272.475 477.456 272.795 477.104C273.131 476.768 273.427 476.264 273.683 475.592L274.643 473.072L269.963 461.816H271.427L275.315 471.656L278.963 461.816H280.379L274.811 476.12C274.459 477 274.035 477.664 273.539 478.112C273.043 478.56 272.379 478.784 271.547 478.784ZM283.061 473V461.816H284.381V466.64H291.245V461.816H292.541V473H291.245V467.744H284.381V473H283.061ZM296.836 478.784C296.436 478.784 295.996 478.728 295.516 478.616L295.684 477.44C296.02 477.568 296.388 477.632 296.788 477.632C297.332 477.632 297.764 477.456 298.084 477.104C298.42 476.768 298.716 476.264 298.972 475.592L299.932 473.072L295.252 461.816H296.716L300.604 471.656L304.252 461.816H305.668L300.1 476.12C299.748 477 299.324 477.664 298.828 478.112C298.332 478.56 297.668 478.784 296.836 478.784ZM308.35 473V461.816H313.366C314.358 461.816 315.198 462.032 315.886 462.464C316.574 462.896 316.918 463.616 316.918 464.624C316.918 465.248 316.726 465.776 316.342 466.208C315.958 466.64 315.47 466.928 314.878 467.072V467.096C315.614 467.192 316.23 467.488 316.726 467.984C317.222 468.464 317.47 469.112 317.47 469.928C317.47 470.904 317.102 471.664 316.366 472.208C315.63 472.736 314.67 473 313.486 473H308.35ZM309.67 471.872H313.294C314.142 471.872 314.822 471.704 315.334 471.368C315.862 471.032 316.126 470.52 316.126 469.832C316.126 469.128 315.878 468.6 315.382 468.248C314.886 467.896 314.246 467.72 313.462 467.72H309.67V471.872ZM309.67 466.64H313.318C313.942 466.64 314.486 466.488 314.95 466.184C315.414 465.864 315.646 465.392 315.646 464.768C315.646 464.128 315.406 463.664 314.926 463.376C314.462 463.072 313.854 462.92 313.102 462.92H309.67V466.64ZM327.123 473V461.816H334.395V462.92H328.443V473H327.123ZM340.154 473.312C339.162 473.312 338.274 473.032 337.49 472.472C336.706 471.912 336.314 471.08 336.314 469.976C336.314 469.336 336.45 468.784 336.722 468.32C337.01 467.856 337.37 467.496 337.802 467.24C338.234 466.968 338.77 466.76 339.41 466.616C340.066 466.456 340.698 466.352 341.306 466.304C341.914 466.256 342.61 466.232 343.394 466.232H344.234V465.728C344.234 463.648 343.178 462.608 341.066 462.608C339.754 462.608 338.642 463.048 337.73 463.928L337.01 463.064C338.066 462.04 339.458 461.528 341.186 461.528C342.482 461.528 343.522 461.872 344.306 462.56C345.09 463.248 345.482 464.256 345.482 465.584V470.48C345.482 471.488 345.546 472.328 345.674 473H344.498C344.37 472.232 344.306 471.544 344.306 470.936H344.258C343.378 472.52 342.01 473.312 340.154 473.312ZM340.466 472.232C341.682 472.232 342.61 471.84 343.25 471.056C343.906 470.256 344.234 469.296 344.234 468.176V467.264H343.394C339.57 467.264 337.658 468.144 337.658 469.904C337.658 470.704 337.93 471.296 338.474 471.68C339.034 472.048 339.698 472.232 340.466 472.232ZM351.13 470.84V478.76H349.834V461.816H351.13V464.048H351.202C351.666 463.216 352.29 462.592 353.074 462.176C353.874 461.744 354.73 461.528 355.642 461.528C357.338 461.528 358.714 462.088 359.77 463.208C360.842 464.312 361.378 465.712 361.378 467.408C361.378 469.104 360.85 470.512 359.794 471.632C358.754 472.752 357.386 473.312 355.69 473.312C354.762 473.312 353.89 473.104 353.074 472.688C352.258 472.256 351.634 471.64 351.202 470.84H351.13ZM358.762 470.816C359.578 469.904 359.986 468.768 359.986 467.408C359.986 466.048 359.578 464.912 358.762 464C357.962 463.072 356.882 462.608 355.522 462.608C354.226 462.608 353.146 463.072 352.282 464C351.434 464.912 351.01 466.048 351.01 467.408C351.01 468.768 351.434 469.904 352.282 470.816C353.146 471.728 354.226 472.184 355.522 472.184C356.882 472.184 357.962 471.728 358.762 470.816ZM364.254 473L367.302 468.392C365.414 467.992 364.47 466.912 364.47 465.152C364.47 464.096 364.846 463.28 365.598 462.704C366.35 462.112 367.374 461.816 368.67 461.816H373.302V473H371.982V468.488H368.718L365.838 473H364.254ZM368.67 467.384H371.982V462.92H368.742C367.798 462.92 367.07 463.112 366.558 463.496C366.046 463.88 365.79 464.432 365.79 465.152C365.79 465.84 366.038 466.384 366.534 466.784C367.046 467.184 367.758 467.384 368.67 467.384ZM384.587 473V468.272C383.451 468.576 382.307 468.728 381.155 468.728C378.659 468.728 377.411 467.568 377.411 465.248V461.816H378.73V465.104C378.73 466.08 378.947 466.744 379.379 467.096C379.827 467.448 380.507 467.624 381.419 467.624C382.315 467.624 383.371 467.472 384.587 467.168V461.816H385.883V473H384.587ZM390.428 473V461.816H391.748V471.176L398.78 461.816H400.196V473H398.924V463.568H398.876L391.844 473H390.428ZM411.877 458.384C411.285 458.928 410.525 459.2 409.597 459.2C408.669 459.2 407.901 458.928 407.293 458.384C406.701 457.824 406.349 457.096 406.237 456.2L407.149 456.032C407.261 456.704 407.541 457.224 407.989 457.592C408.437 457.96 408.973 458.144 409.597 458.144C410.221 458.144 410.757 457.96 411.205 457.592C411.653 457.224 411.933 456.704 412.045 456.032L412.957 456.2C412.845 457.096 412.485 457.824 411.877 458.384ZM404.725 473V461.816H406.045V471.176L413.077 461.816H414.493V473H413.221V463.568H413.173L406.141 473H404.725ZM431.79 473V468.272C430.654 468.576 429.51 468.728 428.358 468.728C425.862 468.728 424.614 467.568 424.614 465.248V461.816H425.934V465.104C425.934 466.08 426.15 466.744 426.582 467.096C427.03 467.448 427.71 467.624 428.622 467.624C429.518 467.624 430.574 467.472 431.79 467.168V461.816H433.086V473H431.79ZM440.607 473.312C439.615 473.312 438.727 473.032 437.943 472.472C437.159 471.912 436.767 471.08 436.767 469.976C436.767 469.336 436.903 468.784 437.175 468.32C437.463 467.856 437.823 467.496 438.255 467.24C438.687 466.968 439.223 466.76 439.863 466.616C440.519 466.456 441.151 466.352 441.759 466.304C442.367 466.256 443.063 466.232 443.847 466.232H444.687V465.728C444.687 463.648 443.631 462.608 441.519 462.608C440.207 462.608 439.095 463.048 438.183 463.928L437.463 463.064C438.519 462.04 439.911 461.528 441.639 461.528C442.935 461.528 443.975 461.872 444.759 462.56C445.543 463.248 445.935 464.256 445.935 465.584V470.48C445.935 471.488 445.999 472.328 446.127 473H444.951C444.823 472.232 444.759 471.544 444.759 470.936H444.711C443.831 472.52 442.463 473.312 440.607 473.312ZM440.919 472.232C442.135 472.232 443.063 471.84 443.703 471.056C444.359 470.256 444.687 469.296 444.687 468.176V467.264H443.847C440.023 467.264 438.111 468.144 438.111 469.904C438.111 470.704 438.383 471.296 438.927 471.68C439.487 472.048 440.151 472.232 440.919 472.232ZM457.439 458.384C456.847 458.928 456.087 459.2 455.159 459.2C454.231 459.2 453.463 458.928 452.855 458.384C452.263 457.824 451.911 457.096 451.799 456.2L452.711 456.032C452.823 456.704 453.103 457.224 453.551 457.592C453.999 457.96 454.535 458.144 455.159 458.144C455.783 458.144 456.319 457.96 456.767 457.592C457.215 457.224 457.495 456.704 457.607 456.032L458.519 456.2C458.407 457.096 458.047 457.824 457.439 458.384ZM450.287 473V461.816H451.607V471.176L458.639 461.816H460.055V473H458.783V463.568H458.735L451.703 473H450.287ZM464.584 473V461.816H465.904V466.64H472.768V461.816H474.064V473H472.768V467.744H465.904V473H464.584ZM478.6 473V461.816H479.92V471.176L486.952 461.816H488.368V473H487.096V463.568H487.048L480.016 473H478.6ZM492.945 473V461.816H494.241V467.096H494.313L499.761 461.816H501.633L495.801 467.144L502.233 473H500.313L494.313 467.312H494.241V473H492.945ZM93.552 499.84V507.76H92.256V490.816H93.552V493.048H93.624C94.088 492.216 94.712 491.592 95.496 491.176C96.296 490.744 97.152 490.528 98.064 490.528C99.76 490.528 101.136 491.088 102.192 492.208C103.264 493.312 103.8 494.712 103.8 496.408C103.8 498.104 103.272 499.512 102.216 500.632C101.176 501.752 99.808 502.312 98.112 502.312C97.184 502.312 96.312 502.104 95.496 501.688C94.68 501.256 94.056 500.64 93.624 499.84H93.552ZM101.184 499.816C102 498.904 102.408 497.768 102.408 496.408C102.408 495.048 102 493.912 101.184 493C100.384 492.072 99.304 491.608 97.944 491.608C96.648 491.608 95.568 492.072 94.704 493C93.856 493.912 93.432 495.048 93.432 496.408C93.432 497.768 93.856 498.904 94.704 499.816C95.568 500.728 96.648 501.184 97.944 501.184C99.304 501.184 100.384 500.728 101.184 499.816ZM107.18 507.784C106.78 507.784 106.34 507.728 105.86 507.616L106.028 506.44C106.364 506.568 106.732 506.632 107.132 506.632C107.676 506.632 108.108 506.456 108.428 506.104C108.764 505.768 109.06 505.264 109.316 504.592L110.276 502.072L105.596 490.816H107.06L110.948 500.656L114.596 490.816H116.012L110.444 505.12C110.092 506 109.668 506.664 109.172 507.112C108.676 507.56 108.012 507.784 107.18 507.784ZM118.742 502V490.816H120.038V496.096H120.11L125.558 490.816H127.43L121.598 496.144L128.03 502H126.11L120.11 496.312H120.038V502H118.742ZM135.218 502.312C133.506 502.312 132.09 501.752 130.97 500.632C129.866 499.512 129.314 498.104 129.314 496.408C129.314 494.696 129.866 493.288 130.97 492.184C132.074 491.08 133.49 490.528 135.218 490.528C136.946 490.528 138.362 491.08 139.466 492.184C140.586 493.288 141.146 494.696 141.146 496.408C141.146 498.104 140.586 499.512 139.466 500.632C138.362 501.752 136.946 502.312 135.218 502.312ZM135.218 501.184C136.594 501.184 137.698 500.728 138.53 499.816C139.362 498.904 139.778 497.768 139.778 496.408C139.778 495.048 139.362 493.912 138.53 493C137.698 492.072 136.594 491.608 135.218 491.608C133.858 491.608 132.762 492.072 131.93 493C131.098 493.912 130.682 495.048 130.682 496.408C130.682 497.768 131.098 498.904 131.93 499.816C132.762 500.728 133.858 501.184 135.218 501.184ZM144.803 502V490.816H146.123V495.64H148.835C149.011 494.152 149.611 492.928 150.635 491.968C151.675 491.008 152.963 490.528 154.499 490.528C156.179 490.528 157.547 491.088 158.603 492.208C159.659 493.328 160.187 494.736 160.187 496.432C160.187 498.128 159.651 499.536 158.579 500.656C157.523 501.776 156.163 502.336 154.499 502.336C152.883 502.336 151.547 501.808 150.491 500.752C149.451 499.696 148.891 498.368 148.811 496.768L146.123 496.744V502H144.803ZM154.499 501.232C155.795 501.232 156.835 500.776 157.619 499.864C158.419 498.936 158.819 497.792 158.819 496.432C158.819 495.072 158.419 493.936 157.619 493.024C156.835 492.096 155.795 491.632 154.499 491.632C153.187 491.632 152.139 492.088 151.355 493C150.571 493.912 150.179 495.056 150.179 496.432C150.179 497.808 150.571 498.952 151.355 499.864C152.139 500.776 153.187 501.232 154.499 501.232ZM172.21 502V491.92H168.082V490.816H177.634V491.92H173.506V502H172.21ZM183.404 502.312C182.412 502.312 181.524 502.032 180.74 501.472C179.956 500.912 179.564 500.08 179.564 498.976C179.564 498.336 179.7 497.784 179.972 497.32C180.26 496.856 180.62 496.496 181.052 496.24C181.484 495.968 182.02 495.76 182.66 495.616C183.316 495.456 183.948 495.352 184.556 495.304C185.164 495.256 185.86 495.232 186.644 495.232H187.484V494.728C187.484 492.648 186.428 491.608 184.316 491.608C183.004 491.608 181.892 492.048 180.98 492.928L180.26 492.064C181.316 491.04 182.708 490.528 184.436 490.528C185.732 490.528 186.772 490.872 187.556 491.56C188.34 492.248 188.732 493.256 188.732 494.584V499.48C188.732 500.488 188.796 501.328 188.924 502H187.748C187.62 501.232 187.556 500.544 187.556 499.936H187.508C186.628 501.52 185.26 502.312 183.404 502.312ZM183.716 501.232C184.932 501.232 185.86 500.84 186.5 500.056C187.156 499.256 187.484 498.296 187.484 497.176V496.264H186.644C182.82 496.264 180.908 497.144 180.908 498.904C180.908 499.704 181.18 500.296 181.724 500.68C182.284 501.048 182.948 501.232 183.716 501.232ZM204.124 502.312C202.412 502.312 200.996 501.752 199.876 500.632C198.772 499.512 198.22 498.104 198.22 496.408C198.22 494.696 198.772 493.288 199.876 492.184C200.98 491.08 202.396 490.528 204.124 490.528C205.852 490.528 207.268 491.08 208.372 492.184C209.492 493.288 210.052 494.696 210.052 496.408C210.052 498.104 209.492 499.512 208.372 500.632C207.268 501.752 205.852 502.312 204.124 502.312ZM204.124 501.184C205.5 501.184 206.604 500.728 207.436 499.816C208.268 498.904 208.684 497.768 208.684 496.408C208.684 495.048 208.268 493.912 207.436 493C206.604 492.072 205.5 491.608 204.124 491.608C202.764 491.608 201.668 492.072 200.836 493C200.004 493.912 199.588 495.048 199.588 496.408C199.588 497.768 200.004 498.904 200.836 499.816C201.668 500.728 202.764 501.184 204.124 501.184ZM218.917 502.312C216.965 502.312 215.493 501.664 214.501 500.368C213.557 499.296 213.085 497.568 213.085 495.184C213.085 494.176 213.101 493.312 213.133 492.592C213.181 491.856 213.261 491.096 213.373 490.312C213.485 489.528 213.653 488.864 213.877 488.32C214.117 487.776 214.413 487.272 214.765 486.808C215.117 486.328 215.565 485.952 216.109 485.68C216.669 485.408 217.317 485.224 218.053 485.128L221.653 484.696C222.789 484.552 223.453 484.184 223.645 483.592L224.581 483.88C224.309 484.952 223.461 485.576 222.037 485.752L218.605 486.184C216.973 486.392 215.837 487.04 215.197 488.128C214.557 489.216 214.221 491.008 214.189 493.504H214.261C215.253 491.536 216.925 490.552 219.277 490.552C220.925 490.552 222.261 491.112 223.285 492.232C224.309 493.352 224.821 494.752 224.821 496.432C224.821 498.128 224.269 499.536 223.165 500.656C222.061 501.76 220.645 502.312 218.917 502.312ZM215.653 499.84C216.485 500.736 217.573 501.184 218.917 501.184C220.261 501.184 221.349 500.736 222.181 499.84C223.029 498.944 223.453 497.816 223.453 496.456C223.453 495.08 223.045 493.936 222.229 493.024C221.413 492.112 220.333 491.656 218.989 491.656C217.661 491.656 216.565 492.12 215.701 493.048C214.853 493.96 214.429 495.096 214.429 496.456C214.429 497.816 214.837 498.944 215.653 499.84ZM228.475 502V490.816H237.787V502H236.491V491.92H229.795V502H228.475ZM242.326 502V490.816H243.646V502H242.326ZM243.646 487.072C243.454 487.264 243.23 487.36 242.974 487.36C242.718 487.36 242.494 487.264 242.302 487.072C242.11 486.88 242.014 486.648 242.014 486.376C242.014 486.104 242.11 485.872 242.302 485.68C242.494 485.488 242.718 485.392 242.974 485.392C243.23 485.392 243.454 485.488 243.646 485.68C243.854 485.872 243.958 486.104 243.958 486.376C243.958 486.648 243.854 486.88 243.646 487.072ZM248.21 502V490.816H249.506V496.096H249.578L255.026 490.816H256.898L251.066 496.144L257.498 502H255.578L249.578 496.312H249.506V502H248.21ZM268.575 492.28L267.711 493.072C267.375 492.64 266.927 492.296 266.367 492.04C265.807 491.784 265.223 491.656 264.615 491.656C263.287 491.656 262.207 492.112 261.375 493.024C260.559 493.92 260.151 495.048 260.151 496.408C260.151 497.768 260.559 498.896 261.375 499.792C262.191 500.688 263.255 501.136 264.567 501.136C265.879 501.136 266.967 500.688 267.831 499.792L268.647 500.536C267.623 501.72 266.263 502.312 264.567 502.312C262.839 502.312 261.447 501.76 260.391 500.656C259.335 499.552 258.807 498.136 258.807 496.408C258.807 494.696 259.343 493.288 260.415 492.184C261.503 491.08 262.895 490.528 264.591 490.528C266.319 490.528 267.647 491.112 268.575 492.28ZM270.762 502L273.81 497.392C271.922 496.992 270.978 495.912 270.978 494.152C270.978 493.096 271.354 492.28 272.106 491.704C272.858 491.112 273.882 490.816 275.178 490.816H279.81V502H278.49V497.488H275.226L272.346 502H270.762ZM275.178 496.384H278.49V491.92H275.25C274.306 491.92 273.578 492.112 273.066 492.496C272.554 492.88 272.298 493.432 272.298 494.152C272.298 494.84 272.546 495.384 273.042 495.784C273.554 496.184 274.266 496.384 275.178 496.384ZM286.198 501.04C286.198 501.344 286.094 501.608 285.886 501.832C285.678 502.04 285.422 502.144 285.118 502.144C284.814 502.144 284.558 502.04 284.35 501.832C284.142 501.608 284.038 501.344 284.038 501.04C284.038 500.752 284.142 500.504 284.35 500.296C284.558 500.072 284.814 499.96 285.118 499.96C285.422 499.96 285.678 500.072 285.886 500.296C286.094 500.504 286.198 500.752 286.198 501.04ZM296.414 502.168C295.886 502.168 295.43 502.12 295.046 502.024L295.286 500.752C295.622 500.864 295.998 500.92 296.414 500.92C297.422 500.92 298.27 500.288 298.958 499.024L300.23 496.672L293.606 485.008H295.19L300.998 495.28L306.614 485.008H308.126L300.134 499.504C299.638 500.4 299.11 501.072 298.55 501.52C297.99 501.952 297.278 502.168 296.414 502.168ZM316.649 502V485.008H321.569C322.273 485.008 322.921 485.08 323.513 485.224C324.121 485.352 324.697 485.568 325.241 485.872C325.785 486.176 326.209 486.616 326.513 487.192C326.833 487.768 326.993 488.456 326.993 489.256C326.993 490.216 326.697 491.032 326.105 491.704C325.529 492.36 324.777 492.792 323.849 493V493.048C324.953 493.16 325.889 493.592 326.657 494.344C327.425 495.096 327.809 496.096 327.809 497.344C327.809 498.832 327.241 499.984 326.105 500.8C324.985 501.6 323.529 502 321.737 502H316.649ZM318.017 500.824H321.593C323.017 500.824 324.177 500.536 325.073 499.96C325.969 499.384 326.417 498.496 326.417 497.296C326.417 496.096 326.001 495.2 325.169 494.608C324.337 494 323.241 493.696 321.881 493.696H318.017V500.824ZM318.017 492.544H321.665C322.737 492.544 323.657 492.288 324.425 491.776C325.209 491.248 325.601 490.44 325.601 489.352C325.601 488.264 325.201 487.464 324.401 486.952C323.601 486.44 322.569 486.184 321.305 486.184H318.017V492.544ZM334.623 502.312C333.631 502.312 332.743 502.032 331.959 501.472C331.175 500.912 330.783 500.08 330.783 498.976C330.783 498.336 330.919 497.784 331.191 497.32C331.479 496.856 331.839 496.496 332.271 496.24C332.703 495.968 333.239 495.76 333.879 495.616C334.535 495.456 335.167 495.352 335.775 495.304C336.383 495.256 337.079 495.232 337.863 495.232H338.703V494.728C338.703 492.648 337.647 491.608 335.535 491.608C334.223 491.608 333.111 492.048 332.199 492.928L331.479 492.064C332.535 491.04 333.927 490.528 335.655 490.528C336.951 490.528 337.991 490.872 338.775 491.56C339.559 492.248 339.951 493.256 339.951 494.584V499.48C339.951 500.488 340.015 501.328 340.143 502H338.967C338.839 501.232 338.775 500.544 338.775 499.936H338.727C337.847 501.52 336.479 502.312 334.623 502.312ZM334.935 501.232C336.151 501.232 337.079 500.84 337.719 500.056C338.375 499.256 338.703 498.296 338.703 497.176V496.264H337.863C334.039 496.264 332.127 497.144 332.127 498.904C332.127 499.704 332.399 500.296 332.943 500.68C333.503 501.048 334.167 501.232 334.935 501.232ZM353.231 492.28L352.367 493.072C352.031 492.64 351.583 492.296 351.023 492.04C350.463 491.784 349.879 491.656 349.271 491.656C347.943 491.656 346.863 492.112 346.031 493.024C345.215 493.92 344.807 495.048 344.807 496.408C344.807 497.768 345.215 498.896 346.031 499.792C346.847 500.688 347.911 501.136 349.223 501.136C350.535 501.136 351.623 500.688 352.487 499.792L353.303 500.536C352.279 501.72 350.919 502.312 349.223 502.312C347.495 502.312 346.103 501.76 345.047 500.656C343.991 499.552 343.463 498.136 343.463 496.408C343.463 494.696 343.999 493.288 345.071 492.184C346.159 491.08 347.551 490.528 349.247 490.528C350.975 490.528 352.303 491.112 353.231 492.28ZM362.162 502V490.816H367.178C368.17 490.816 369.01 491.032 369.698 491.464C370.386 491.896 370.73 492.616 370.73 493.624C370.73 494.248 370.538 494.776 370.154 495.208C369.77 495.64 369.282 495.928 368.69 496.072V496.096C369.426 496.192 370.042 496.488 370.538 496.984C371.034 497.464 371.282 498.112 371.282 498.928C371.282 499.904 370.914 500.664 370.178 501.208C369.442 501.736 368.482 502 367.298 502H362.162ZM363.482 500.872H367.106C367.954 500.872 368.634 500.704 369.146 500.368C369.674 500.032 369.938 499.52 369.938 498.832C369.938 498.128 369.69 497.6 369.194 497.248C368.698 496.896 368.058 496.72 367.274 496.72H363.482V500.872ZM363.482 495.64H367.13C367.754 495.64 368.298 495.488 368.762 495.184C369.226 494.864 369.458 494.392 369.458 493.768C369.458 493.128 369.218 492.664 368.738 492.376C368.274 492.072 367.666 491.92 366.914 491.92H363.482V495.64ZM383.864 492.28L383 493.072C382.664 492.64 382.216 492.296 381.656 492.04C381.096 491.784 380.512 491.656 379.904 491.656C378.576 491.656 377.496 492.112 376.664 493.024C375.848 493.92 375.44 495.048 375.44 496.408C375.44 497.768 375.848 498.896 376.664 499.792C377.48 500.688 378.544 501.136 379.856 501.136C381.168 501.136 382.256 500.688 383.12 499.792L383.936 500.536C382.912 501.72 381.552 502.312 379.856 502.312C378.128 502.312 376.736 501.76 375.68 500.656C374.624 499.552 374.096 498.136 374.096 496.408C374.096 494.696 374.632 493.288 375.704 492.184C376.792 491.08 378.184 490.528 379.88 490.528C381.608 490.528 382.936 491.112 383.864 492.28ZM386.795 502V490.816H388.115V502H386.795ZM388.115 487.072C387.923 487.264 387.699 487.36 387.443 487.36C387.187 487.36 386.963 487.264 386.771 487.072C386.579 486.88 386.483 486.648 386.483 486.376C386.483 486.104 386.579 485.872 386.771 485.68C386.963 485.488 387.187 485.392 387.443 485.392C387.699 485.392 387.923 485.488 388.115 485.68C388.323 485.872 388.427 486.104 388.427 486.376C388.427 486.648 388.323 486.88 388.115 487.072ZM397.767 502.12C397.351 502.12 396.983 502.072 396.663 501.976L396.831 500.848C397.039 500.928 397.287 500.968 397.575 500.968C398.519 500.968 399.207 500.464 399.639 499.456C400.087 498.432 400.311 496.848 400.311 494.704V490.816H408.063V502H406.767V491.92H401.583V495.112C401.583 499.784 400.311 502.12 397.767 502.12ZM412.576 502V490.816H413.896V502H412.576ZM413.896 487.072C413.704 487.264 413.48 487.36 413.224 487.36C412.968 487.36 412.744 487.264 412.552 487.072C412.36 486.88 412.264 486.648 412.264 486.376C412.264 486.104 412.36 485.872 412.552 485.68C412.744 485.488 412.968 485.392 413.224 485.392C413.48 485.392 413.704 485.488 413.896 485.68C414.104 485.872 414.208 486.104 414.208 486.376C414.208 486.648 414.104 486.88 413.896 487.072ZM418.46 502V490.816H419.756V496.096H419.828L425.276 490.816H427.148L421.316 496.144L427.748 502H425.828L419.828 496.312H419.756V502H418.46ZM430.319 502V490.816H431.639V500.176L438.671 490.816H440.087V502H438.815V492.568H438.767L431.735 502H430.319ZM450.615 502V490.816H455.631C456.623 490.816 457.463 491.032 458.151 491.464C458.839 491.896 459.183 492.616 459.183 493.624C459.183 494.248 458.991 494.776 458.607 495.208C458.223 495.64 457.735 495.928 457.143 496.072V496.096C457.879 496.192 458.495 496.488 458.991 496.984C459.487 497.464 459.735 498.112 459.735 498.928C459.735 499.904 459.367 500.664 458.631 501.208C457.895 501.736 456.935 502 455.751 502H450.615ZM451.935 500.872H455.559C456.407 500.872 457.087 500.704 457.599 500.368C458.127 500.032 458.391 499.52 458.391 498.832C458.391 498.128 458.143 497.6 457.647 497.248C457.151 496.896 456.511 496.72 455.727 496.72H451.935V500.872ZM451.935 495.64H455.583C456.207 495.64 456.751 495.488 457.215 495.184C457.679 494.864 457.911 494.392 457.911 493.768C457.911 493.128 457.671 492.664 457.191 492.376C456.727 492.072 456.119 491.92 455.367 491.92H451.935V495.64ZM463.389 502V490.816H464.709V502H463.389ZM464.709 487.072C464.517 487.264 464.293 487.36 464.037 487.36C463.781 487.36 463.557 487.264 463.365 487.072C463.173 486.88 463.077 486.648 463.077 486.376C463.077 486.104 463.173 485.872 463.365 485.68C463.557 485.488 463.781 485.392 464.037 485.392C464.293 485.392 464.517 485.488 464.709 485.68C464.917 485.872 465.021 486.104 465.021 486.376C465.021 486.648 464.917 486.88 464.709 487.072ZM467.569 505.672V500.872H468.889C469.433 500.184 469.881 499.232 470.233 498.016C470.585 496.8 470.761 495.408 470.761 493.84V490.816H478.657V500.872H480.481V505.672H479.257V502H468.793V505.672H467.569ZM470.377 500.872H477.385V491.92H472.033V494.176C472.033 496.816 471.481 499.048 470.377 500.872ZM97.296 531.312C95.584 531.312 94.168 530.752 93.048 529.632C91.944 528.512 91.392 527.104 91.392 525.408C91.392 523.696 91.944 522.288 93.048 521.184C94.152 520.08 95.568 519.528 97.296 519.528C99.024 519.528 100.44 520.08 101.544 521.184C102.664 522.288 103.224 523.696 103.224 525.408C103.224 527.104 102.664 528.512 101.544 529.632C100.44 530.752 99.024 531.312 97.296 531.312ZM97.296 530.184C98.672 530.184 99.776 529.728 100.608 528.816C101.44 527.904 101.856 526.768 101.856 525.408C101.856 524.048 101.44 522.912 100.608 522C99.776 521.072 98.672 520.608 97.296 520.608C95.936 520.608 94.84 521.072 94.008 522C93.176 522.912 92.76 524.048 92.76 525.408C92.76 526.768 93.176 527.904 94.008 528.816C94.84 529.728 95.936 530.184 97.296 530.184ZM106.881 531V519.816H116.193V531H114.897V520.92H108.201V531H106.881ZM120.733 531V519.816H122.053V531H120.733ZM122.053 516.072C121.861 516.264 121.637 516.36 121.381 516.36C121.125 516.36 120.901 516.264 120.709 516.072C120.517 515.88 120.421 515.648 120.421 515.376C120.421 515.104 120.517 514.872 120.709 514.68C120.901 514.488 121.125 514.392 121.381 514.392C121.637 514.392 121.861 514.488 122.053 514.68C122.261 514.872 122.365 515.104 122.365 515.376C122.365 515.648 122.261 515.88 122.053 516.072ZM126.617 531V519.816H127.913V525.096H127.985L133.433 519.816H135.305L129.473 525.144L135.905 531H133.985L127.985 525.312H127.913V531H126.617ZM138.475 531V519.816H139.795V531H138.475ZM139.795 516.072C139.603 516.264 139.379 516.36 139.123 516.36C138.867 516.36 138.643 516.264 138.451 516.072C138.259 515.88 138.163 515.648 138.163 515.376C138.163 515.104 138.259 514.872 138.451 514.68C138.643 514.488 138.867 514.392 139.123 514.392C139.379 514.392 139.603 514.488 139.795 514.68C140.003 514.872 140.107 515.104 140.107 515.376C140.107 515.648 140.003 515.88 139.795 516.072ZM144.311 531V519.816H149.327C150.319 519.816 151.159 520.032 151.847 520.464C152.535 520.896 152.879 521.616 152.879 522.624C152.879 523.248 152.687 523.776 152.303 524.208C151.919 524.64 151.431 524.928 150.839 525.072V525.096C151.575 525.192 152.191 525.488 152.687 525.984C153.183 526.464 153.431 527.112 153.431 527.928C153.431 528.904 153.063 529.664 152.327 530.208C151.591 530.736 150.631 531 149.447 531H144.311ZM145.631 529.872H149.255C150.103 529.872 150.783 529.704 151.295 529.368C151.823 529.032 152.087 528.52 152.087 527.832C152.087 527.128 151.839 526.6 151.343 526.248C150.847 525.896 150.207 525.72 149.423 525.72H145.631V529.872ZM145.631 524.64H149.279C149.903 524.64 150.447 524.488 150.911 524.184C151.375 523.864 151.607 523.392 151.607 522.768C151.607 522.128 151.367 521.664 150.887 521.376C150.423 521.072 149.815 520.92 149.063 520.92H145.631V524.64ZM165.46 531V520.92H161.332V519.816H170.884V520.92H166.756V531H165.46ZM176.654 531.312C175.662 531.312 174.774 531.032 173.99 530.472C173.206 529.912 172.814 529.08 172.814 527.976C172.814 527.336 172.95 526.784 173.222 526.32C173.51 525.856 173.87 525.496 174.302 525.24C174.734 524.968 175.27 524.76 175.91 524.616C176.566 524.456 177.198 524.352 177.806 524.304C178.414 524.256 179.11 524.232 179.894 524.232H180.734V523.728C180.734 521.648 179.678 520.608 177.566 520.608C176.254 520.608 175.142 521.048 174.23 521.928L173.51 521.064C174.566 520.04 175.958 519.528 177.686 519.528C178.982 519.528 180.022 519.872 180.806 520.56C181.59 521.248 181.982 522.256 181.982 523.584V528.48C181.982 529.488 182.046 530.328 182.174 531H180.998C180.87 530.232 180.806 529.544 180.806 528.936H180.758C179.878 530.52 178.51 531.312 176.654 531.312ZM176.966 530.232C178.182 530.232 179.11 529.84 179.75 529.056C180.406 528.256 180.734 527.296 180.734 526.176V525.264H179.894C176.07 525.264 174.158 526.144 174.158 527.904C174.158 528.704 174.43 529.296 174.974 529.68C175.534 530.048 176.198 530.232 176.966 530.232ZM186.382 531V519.816H187.678V525.096H187.75L193.198 519.816H195.07L189.238 525.144L195.67 531H193.75L187.75 525.312H187.678V531H186.382ZM198.24 531V519.816H199.56V531H198.24ZM199.56 516.072C199.368 516.264 199.144 516.36 198.888 516.36C198.632 516.36 198.408 516.264 198.216 516.072C198.024 515.88 197.928 515.648 197.928 515.376C197.928 515.104 198.024 514.872 198.216 514.68C198.408 514.488 198.632 514.392 198.888 514.392C199.144 514.392 199.368 514.488 199.56 514.68C199.768 514.872 199.872 515.104 199.872 515.376C199.872 515.648 199.768 515.88 199.56 516.072ZM208.42 534.672V529.872H209.74C210.284 529.184 210.732 528.232 211.084 527.016C211.436 525.8 211.612 524.408 211.612 522.84V519.816H219.508V529.872H221.332V534.672H220.108V531H209.644V534.672H208.42ZM211.228 529.872H218.236V520.92H212.884V523.176C212.884 525.816 212.332 528.048 211.228 529.872ZM229.484 531.312C227.772 531.312 226.356 530.752 225.236 529.632C224.132 528.512 223.58 527.104 223.58 525.408C223.58 523.696 224.132 522.288 225.236 521.184C226.34 520.08 227.756 519.528 229.484 519.528C231.212 519.528 232.628 520.08 233.732 521.184C234.852 522.288 235.411 523.696 235.411 525.408C235.411 527.104 234.852 528.512 233.732 529.632C232.628 530.752 231.212 531.312 229.484 531.312ZM229.484 530.184C230.86 530.184 231.964 529.728 232.796 528.816C233.628 527.904 234.044 526.768 234.044 525.408C234.044 524.048 233.628 522.912 232.796 522C231.964 521.072 230.86 520.608 229.484 520.608C228.124 520.608 227.028 521.072 226.196 522C225.364 522.912 224.948 524.048 224.948 525.408C224.948 526.768 225.364 527.904 226.196 528.816C227.028 529.728 228.124 530.184 229.484 530.184ZM240.365 528.84V536.76H239.069V519.816H240.365V522.048H240.437C240.901 521.216 241.525 520.592 242.309 520.176C243.109 519.744 243.965 519.528 244.877 519.528C246.573 519.528 247.949 520.088 249.005 521.208C250.077 522.312 250.613 523.712 250.613 525.408C250.613 527.104 250.085 528.512 249.029 529.632C247.989 530.752 246.621 531.312 244.925 531.312C243.997 531.312 243.125 531.104 242.309 530.688C241.493 530.256 240.869 529.64 240.437 528.84H240.365ZM247.997 528.816C248.813 527.904 249.221 526.768 249.221 525.408C249.221 524.048 248.813 522.912 247.997 522C247.197 521.072 246.117 520.608 244.757 520.608C243.461 520.608 242.381 521.072 241.517 522C240.669 522.912 240.245 524.048 240.245 525.408C240.245 526.768 240.669 527.904 241.517 528.816C242.381 529.728 243.461 530.184 244.757 530.184C246.117 530.184 247.197 529.728 247.997 528.816ZM259.273 531.312C257.561 531.312 256.145 530.752 255.025 529.632C253.921 528.512 253.369 527.104 253.369 525.408C253.369 523.696 253.921 522.288 255.025 521.184C256.129 520.08 257.545 519.528 259.273 519.528C261.001 519.528 262.417 520.08 263.521 521.184C264.641 522.288 265.201 523.696 265.201 525.408C265.201 527.104 264.641 528.512 263.521 529.632C262.417 530.752 261.001 531.312 259.273 531.312ZM259.273 530.184C260.649 530.184 261.753 529.728 262.585 528.816C263.417 527.904 263.833 526.768 263.833 525.408C263.833 524.048 263.417 522.912 262.585 522C261.753 521.072 260.649 520.608 259.273 520.608C257.913 520.608 256.817 521.072 255.985 522C255.153 522.912 254.737 524.048 254.737 525.408C254.737 526.768 255.153 527.904 255.985 528.816C256.817 529.728 257.913 530.184 259.273 530.184ZM268.858 531V519.816H276.13V520.92H270.178V531H268.858ZM278.912 531V519.816H280.232V531H278.912ZM280.232 516.072C280.04 516.264 279.816 516.36 279.56 516.36C279.304 516.36 279.08 516.264 278.888 516.072C278.696 515.88 278.6 515.648 278.6 515.376C278.6 515.104 278.696 514.872 278.888 514.68C279.08 514.488 279.304 514.392 279.56 514.392C279.816 514.392 280.04 514.488 280.232 514.68C280.44 514.872 280.544 515.104 280.544 515.376C280.544 515.648 280.44 515.88 280.232 516.072ZM288.9 525.24V526.344H287.556V524.952C287.556 524.2 287.708 523.552 288.012 523.008C288.332 522.464 288.796 521.928 289.404 521.4L290.124 520.776C290.604 520.36 290.964 519.936 291.204 519.504C291.46 519.072 291.588 518.544 291.588 517.92C291.588 516.976 291.276 516.232 290.652 515.688C290.044 515.144 289.276 514.872 288.348 514.872C287.436 514.872 286.676 515.152 286.068 515.712C285.476 516.256 285.108 516.976 284.964 517.872L283.668 517.632C283.908 516.4 284.452 515.432 285.3 514.728C286.148 514.024 287.18 513.672 288.396 513.672C289.708 513.672 290.796 514.048 291.66 514.8C292.524 515.536 292.956 516.552 292.956 517.848C292.956 518.776 292.78 519.512 292.428 520.056C292.076 520.6 291.524 521.176 290.772 521.784C290.02 522.408 289.516 522.936 289.26 523.368C289.02 523.8 288.9 524.424 288.9 525.24ZM289.428 530.064C289.428 530.352 289.324 530.608 289.116 530.832C288.924 531.04 288.676 531.144 288.372 531.144C288.052 531.144 287.788 531.04 287.58 530.832C287.388 530.608 287.292 530.352 287.292 530.064C287.292 529.76 287.388 529.504 287.58 529.296C287.788 529.072 288.052 528.96 288.372 528.96C288.676 528.96 288.924 529.072 289.116 529.296C289.324 529.504 289.428 529.76 289.428 530.064ZM302.329 531V514.008H304.441L310.705 528.72L316.921 514.008H319.033V531H317.665V515.76H317.617L311.065 531H310.297L303.745 515.76H303.697V531H302.329ZM328.671 531.312C326.959 531.312 325.543 530.752 324.423 529.632C323.319 528.512 322.767 527.104 322.767 525.408C322.767 523.696 323.319 522.288 324.423 521.184C325.527 520.08 326.943 519.528 328.671 519.528C330.399 519.528 331.815 520.08 332.919 521.184C334.039 522.288 334.599 523.696 334.599 525.408C334.599 527.104 334.039 528.512 332.919 529.632C331.815 530.752 330.399 531.312 328.671 531.312ZM328.671 530.184C330.047 530.184 331.151 529.728 331.983 528.816C332.815 527.904 333.231 526.768 333.231 525.408C333.231 524.048 332.815 522.912 331.983 522C331.151 521.072 330.047 520.608 328.671 520.608C327.311 520.608 326.215 521.072 325.383 522C324.551 522.912 324.135 524.048 324.135 525.408C324.135 526.768 324.551 527.904 325.383 528.816C326.215 529.728 327.311 530.184 328.671 530.184ZM335.89 531L342.058 525.144L336.49 519.816H338.362L343.618 525.096H343.666V519.816H344.986V525.096H345.034L350.29 519.816H352.162L346.594 525.144L352.762 531H350.842L345.034 525.312H344.986V531H343.666V525.312H343.618L337.81 531H335.89ZM355.319 531V519.816H356.639V524.64H363.503V519.816H364.799V531H363.503V525.744H356.639V531H355.319ZM372.31 531.312C371.318 531.312 370.43 531.032 369.646 530.472C368.862 529.912 368.47 529.08 368.47 527.976C368.47 527.336 368.606 526.784 368.878 526.32C369.166 525.856 369.526 525.496 369.958 525.24C370.39 524.968 370.926 524.76 371.566 524.616C372.222 524.456 372.854 524.352 373.462 524.304C374.07 524.256 374.766 524.232 375.55 524.232H376.39V523.728C376.39 521.648 375.334 520.608 373.222 520.608C371.91 520.608 370.798 521.048 369.886 521.928L369.166 521.064C370.222 520.04 371.614 519.528 373.342 519.528C374.638 519.528 375.678 519.872 376.462 520.56C377.246 521.248 377.638 522.256 377.638 523.584V528.48C377.638 529.488 377.702 530.328 377.83 531H376.654C376.526 530.232 376.462 529.544 376.462 528.936H376.414C375.534 530.52 374.166 531.312 372.31 531.312ZM372.622 530.232C373.838 530.232 374.766 529.84 375.406 529.056C376.062 528.256 376.39 527.296 376.39 526.176V525.264H375.55C371.726 525.264 369.814 526.144 369.814 527.904C369.814 528.704 370.086 529.296 370.63 529.68C371.19 530.048 371.854 530.232 372.622 530.232ZM386.214 531L390.606 525.192L386.55 519.816H388.23L391.422 524.28L394.614 519.816H396.198L392.19 525.144L396.654 531H394.95L391.398 526.08L387.774 531H386.214ZM404.257 531.312C402.545 531.312 401.129 530.752 400.009 529.632C398.905 528.512 398.353 527.104 398.353 525.408C398.353 523.696 398.905 522.288 400.009 521.184C401.113 520.08 402.529 519.528 404.257 519.528C405.985 519.528 407.401 520.08 408.505 521.184C409.625 522.288 410.185 523.696 410.185 525.408C410.185 527.104 409.625 528.512 408.505 529.632C407.401 530.752 405.985 531.312 404.257 531.312ZM404.257 530.184C405.633 530.184 406.737 529.728 407.569 528.816C408.401 527.904 408.817 526.768 408.817 525.408C408.817 524.048 408.401 522.912 407.569 522C406.737 521.072 405.633 520.608 404.257 520.608C402.897 520.608 401.801 521.072 400.969 522C400.137 522.912 399.721 524.048 399.721 525.408C399.721 526.768 400.137 527.904 400.969 528.816C401.801 529.728 402.897 530.184 404.257 530.184ZM415.138 528.84V536.76H413.842V519.816H415.138V522.048H415.21C415.674 521.216 416.298 520.592 417.082 520.176C417.882 519.744 418.738 519.528 419.65 519.528C421.346 519.528 422.722 520.088 423.778 521.208C424.85 522.312 425.386 523.712 425.386 525.408C425.386 527.104 424.858 528.512 423.802 529.632C422.762 530.752 421.394 531.312 419.698 531.312C418.77 531.312 417.898 531.104 417.082 530.688C416.266 530.256 415.642 529.64 415.21 528.84H415.138ZM422.77 528.816C423.586 527.904 423.994 526.768 423.994 525.408C423.994 524.048 423.586 522.912 422.77 522C421.97 521.072 420.89 520.608 419.53 520.608C418.234 520.608 417.154 521.072 416.29 522C415.442 522.912 415.018 524.048 415.018 525.408C415.018 526.768 415.442 527.904 416.29 528.816C417.154 529.728 418.234 530.184 419.53 530.184C420.89 530.184 421.97 529.728 422.77 528.816ZM434.046 531.312C432.334 531.312 430.918 530.752 429.798 529.632C428.694 528.512 428.142 527.104 428.142 525.408C428.142 523.696 428.694 522.288 429.798 521.184C430.902 520.08 432.318 519.528 434.046 519.528C435.774 519.528 437.19 520.08 438.294 521.184C439.414 522.288 439.974 523.696 439.974 525.408C439.974 527.104 439.414 528.512 438.294 529.632C437.19 530.752 435.774 531.312 434.046 531.312ZM434.046 530.184C435.422 530.184 436.526 529.728 437.358 528.816C438.19 527.904 438.606 526.768 438.606 525.408C438.606 524.048 438.19 522.912 437.358 522C436.526 521.072 435.422 520.608 434.046 520.608C432.686 520.608 431.59 521.072 430.758 522C429.926 522.912 429.51 524.048 429.51 525.408C429.51 526.768 429.926 527.904 430.758 528.816C431.59 529.728 432.686 530.184 434.046 530.184ZM443.631 531V519.816H444.951V529.872H450.855V519.816H452.151V529.872H458.055V519.816H459.351V531H443.631ZM463.858 531V519.816H465.178V529.176L472.21 519.816H473.626V531H472.354V521.568H472.306L465.274 531H463.858ZM485.306 516.384C484.714 516.928 483.954 517.2 483.026 517.2C482.098 517.2 481.33 516.928 480.722 516.384C480.13 515.824 479.778 515.096 479.666 514.2L480.578 514.032C480.69 514.704 480.97 515.224 481.418 515.592C481.866 515.96 482.402 516.144 483.026 516.144C483.65 516.144 484.186 515.96 484.634 515.592C485.082 515.224 485.362 514.704 485.474 514.032L486.386 514.2C486.274 515.096 485.914 515.824 485.306 516.384ZM478.154 531V519.816H479.474V529.176L486.506 519.816H487.922V531H486.65V521.568H486.602L479.57 531H478.154ZM92.256 561V549.816H101.568V561H100.272V550.92H93.576V561H92.256ZM107.404 558.84V566.76H106.108V549.816H107.404V552.048H107.476C107.94 551.216 108.564 550.592 109.348 550.176C110.148 549.744 111.004 549.528 111.916 549.528C113.612 549.528 114.988 550.088 116.044 551.208C117.116 552.312 117.652 553.712 117.652 555.408C117.652 557.104 117.124 558.512 116.068 559.632C115.028 560.752 113.66 561.312 111.964 561.312C111.036 561.312 110.164 561.104 109.348 560.688C108.532 560.256 107.908 559.64 107.476 558.84H107.404ZM115.036 558.816C115.852 557.904 116.26 556.768 116.26 555.408C116.26 554.048 115.852 552.912 115.036 552C114.236 551.072 113.156 550.608 111.796 550.608C110.5 550.608 109.42 551.072 108.556 552C107.708 552.912 107.284 554.048 107.284 555.408C107.284 556.768 107.708 557.904 108.556 558.816C109.42 559.728 110.5 560.184 111.796 560.184C113.156 560.184 114.236 559.728 115.036 558.816ZM121.776 554.64H129.936C129.888 553.44 129.504 552.472 128.784 551.736C128.08 550.984 127.128 550.608 125.928 550.608C124.744 550.608 123.768 551.032 123 551.88C122.232 552.712 121.824 553.632 121.776 554.64ZM126.072 561.312C124.44 561.312 123.088 560.752 122.016 559.632C120.944 558.512 120.408 557.096 120.408 555.384C120.408 553.704 120.936 552.312 121.992 551.208C123.064 550.088 124.384 549.528 125.952 549.528C127.632 549.528 128.928 550.056 129.84 551.112C130.768 552.152 131.232 553.448 131.232 555V555.672H121.752C121.784 556.904 122.2 557.968 123 558.864C123.8 559.744 124.84 560.184 126.12 560.184C127.608 560.184 128.888 559.552 129.96 558.288L130.824 558.984C129.624 560.536 128.04 561.312 126.072 561.312ZM134.889 561V549.816H144.201V561H142.905V550.92H136.209V561H134.889ZM151.716 561.312C150.724 561.312 149.836 561.032 149.052 560.472C148.268 559.912 147.876 559.08 147.876 557.976C147.876 557.336 148.012 556.784 148.284 556.32C148.572 555.856 148.932 555.496 149.364 555.24C149.796 554.968 150.332 554.76 150.972 554.616C151.628 554.456 152.26 554.352 152.868 554.304C153.476 554.256 154.172 554.232 154.956 554.232H155.796V553.728C155.796 551.648 154.74 550.608 152.628 550.608C151.316 550.608 150.204 551.048 149.292 551.928L148.572 551.064C149.628 550.04 151.02 549.528 152.748 549.528C154.044 549.528 155.084 549.872 155.868 550.56C156.652 551.248 157.044 552.256 157.044 553.584V558.48C157.044 559.488 157.108 560.328 157.236 561H156.06C155.932 560.232 155.868 559.544 155.868 558.936H155.82C154.94 560.52 153.572 561.312 151.716 561.312ZM152.028 560.232C153.244 560.232 154.172 559.84 154.812 559.056C155.468 558.256 155.796 557.296 155.796 556.176V555.264H154.956C151.132 555.264 149.22 556.144 149.22 557.904C149.22 558.704 149.492 559.296 150.036 559.68C150.596 560.048 151.26 560.232 152.028 560.232ZM162.693 558.84V566.76H161.397V549.816H162.693V552.048H162.765C163.229 551.216 163.853 550.592 164.637 550.176C165.437 549.744 166.293 549.528 167.205 549.528C168.901 549.528 170.277 550.088 171.333 551.208C172.405 552.312 172.941 553.712 172.941 555.408C172.941 557.104 172.413 558.512 171.357 559.632C170.317 560.752 168.949 561.312 167.253 561.312C166.325 561.312 165.453 561.104 164.637 560.688C163.821 560.256 163.197 559.64 162.765 558.84H162.693ZM170.325 558.816C171.141 557.904 171.549 556.768 171.549 555.408C171.549 554.048 171.141 552.912 170.325 552C169.525 551.072 168.445 550.608 167.085 550.608C165.789 550.608 164.709 551.072 163.845 552C162.997 552.912 162.573 554.048 162.573 555.408C162.573 556.768 162.997 557.904 163.845 558.816C164.709 559.728 165.789 560.184 167.085 560.184C168.445 560.184 169.525 559.728 170.325 558.816ZM179.537 561.312C178.545 561.312 177.657 561.032 176.873 560.472C176.089 559.912 175.697 559.08 175.697 557.976C175.697 557.336 175.833 556.784 176.105 556.32C176.393 555.856 176.753 555.496 177.185 555.24C177.617 554.968 178.153 554.76 178.793 554.616C179.449 554.456 180.081 554.352 180.689 554.304C181.297 554.256 181.993 554.232 182.777 554.232H183.617V553.728C183.617 551.648 182.561 550.608 180.449 550.608C179.137 550.608 178.025 551.048 177.113 551.928L176.393 551.064C177.449 550.04 178.841 549.528 180.569 549.528C181.865 549.528 182.905 549.872 183.689 550.56C184.473 551.248 184.865 552.256 184.865 553.584V558.48C184.865 559.488 184.929 560.328 185.057 561H183.881C183.753 560.232 183.689 559.544 183.689 558.936H183.641C182.761 560.52 181.393 561.312 179.537 561.312ZM179.849 560.232C181.065 560.232 181.993 559.84 182.633 559.056C183.289 558.256 183.617 557.296 183.617 556.176V555.264H182.777C178.953 555.264 177.041 556.144 177.041 557.904C177.041 558.704 177.313 559.296 177.857 559.68C178.417 560.048 179.081 560.232 179.849 560.232ZM191.593 561V550.92H187.465V549.816H197.017V550.92H192.889V561H191.593ZM205.811 561V549.816H207.131V554.64H213.995V549.816H215.291V561H213.995V555.744H207.131V561H205.811ZM220.33 554.64H228.49C228.442 553.44 228.058 552.472 227.338 551.736C226.634 550.984 225.682 550.608 224.482 550.608C223.298 550.608 222.322 551.032 221.554 551.88C220.786 552.712 220.378 553.632 220.33 554.64ZM224.626 561.312C222.994 561.312 221.642 560.752 220.57 559.632C219.498 558.512 218.962 557.096 218.962 555.384C218.962 553.704 219.49 552.312 220.546 551.208C221.618 550.088 222.938 549.528 224.506 549.528C226.186 549.528 227.482 550.056 228.394 551.112C229.322 552.152 229.786 553.448 229.786 555V555.672H220.306C220.338 556.904 220.754 557.968 221.554 558.864C222.354 559.744 223.394 560.184 224.674 560.184C226.162 560.184 227.442 559.552 228.514 558.288L229.378 558.984C228.178 560.536 226.594 561.312 224.626 561.312ZM231.788 564.672V559.872H233.108C233.652 559.184 234.1 558.232 234.452 557.016C234.804 555.8 234.98 554.408 234.98 552.84V549.816H242.876V559.872H244.7V564.672H243.476V561H233.012V564.672H231.788ZM234.596 559.872H241.604V550.92H236.252V553.176C236.252 555.816 235.7 558.048 234.596 559.872ZM252.851 561.312C251.139 561.312 249.723 560.752 248.603 559.632C247.499 558.512 246.947 557.104 246.947 555.408C246.947 553.696 247.499 552.288 248.603 551.184C249.707 550.08 251.123 549.528 252.851 549.528C254.579 549.528 255.995 550.08 257.099 551.184C258.219 552.288 258.779 553.696 258.779 555.408C258.779 557.104 258.219 558.512 257.099 559.632C255.995 560.752 254.579 561.312 252.851 561.312ZM252.851 560.184C254.227 560.184 255.331 559.728 256.163 558.816C256.995 557.904 257.411 556.768 257.411 555.408C257.411 554.048 256.995 552.912 256.163 552C255.331 551.072 254.227 550.608 252.851 550.608C251.491 550.608 250.395 551.072 249.563 552C248.731 552.912 248.315 554.048 248.315 555.408C248.315 556.768 248.731 557.904 249.563 558.816C250.395 559.728 251.491 560.184 252.851 560.184ZM263.732 558.84V566.76H262.436V549.816H263.732V552.048H263.804C264.268 551.216 264.892 550.592 265.676 550.176C266.476 549.744 267.332 549.528 268.244 549.528C269.94 549.528 271.316 550.088 272.372 551.208C273.444 552.312 273.98 553.712 273.98 555.408C273.98 557.104 273.452 558.512 272.396 559.632C271.356 560.752 269.988 561.312 268.292 561.312C267.364 561.312 266.492 561.104 265.676 560.688C264.86 560.256 264.236 559.64 263.804 558.84H263.732ZM271.364 558.816C272.18 557.904 272.588 556.768 272.588 555.408C272.588 554.048 272.18 552.912 271.364 552C270.564 551.072 269.484 550.608 268.124 550.608C266.828 550.608 265.748 551.072 264.884 552C264.036 552.912 263.612 554.048 263.612 555.408C263.612 556.768 264.036 557.904 264.884 558.816C265.748 559.728 266.828 560.184 268.124 560.184C269.484 560.184 270.564 559.728 271.364 558.816ZM282.64 561.312C280.928 561.312 279.512 560.752 278.392 559.632C277.288 558.512 276.736 557.104 276.736 555.408C276.736 553.696 277.288 552.288 278.392 551.184C279.496 550.08 280.912 549.528 282.64 549.528C284.368 549.528 285.784 550.08 286.888 551.184C288.008 552.288 288.568 553.696 288.568 555.408C288.568 557.104 288.008 558.512 286.888 559.632C285.784 560.752 284.368 561.312 282.64 561.312ZM282.64 560.184C284.016 560.184 285.12 559.728 285.952 558.816C286.784 557.904 287.2 556.768 287.2 555.408C287.2 554.048 286.784 552.912 285.952 552C285.12 551.072 284.016 550.608 282.64 550.608C281.28 550.608 280.184 551.072 279.352 552C278.52 552.912 278.104 554.048 278.104 555.408C278.104 556.768 278.52 557.904 279.352 558.816C280.184 559.728 281.28 560.184 282.64 560.184ZM292.225 561V549.816H299.497V550.92H293.545V561H292.225ZM307.038 561.312C305.326 561.312 303.91 560.752 302.79 559.632C301.686 558.512 301.134 557.104 301.134 555.408C301.134 553.696 301.686 552.288 302.79 551.184C303.894 550.08 305.31 549.528 307.038 549.528C308.766 549.528 310.182 550.08 311.286 551.184C312.406 552.288 312.966 553.696 312.966 555.408C312.966 557.104 312.406 558.512 311.286 559.632C310.182 560.752 308.766 561.312 307.038 561.312ZM307.038 560.184C308.414 560.184 309.518 559.728 310.35 558.816C311.182 557.904 311.598 556.768 311.598 555.408C311.598 554.048 311.182 552.912 310.35 552C309.518 551.072 308.414 550.608 307.038 550.608C305.678 550.608 304.582 551.072 303.75 552C302.918 552.912 302.502 554.048 302.502 555.408C302.502 556.768 302.918 557.904 303.75 558.816C304.582 559.728 305.678 560.184 307.038 560.184ZM320.775 555.24V556.344H319.431V554.952C319.431 554.2 319.583 553.552 319.887 553.008C320.207 552.464 320.671 551.928 321.279 551.4L321.999 550.776C322.479 550.36 322.839 549.936 323.079 549.504C323.335 549.072 323.463 548.544 323.463 547.92C323.463 546.976 323.151 546.232 322.527 545.688C321.919 545.144 321.151 544.872 320.223 544.872C319.311 544.872 318.551 545.152 317.943 545.712C317.351 546.256 316.983 546.976 316.839 547.872L315.543 547.632C315.783 546.4 316.327 545.432 317.175 544.728C318.023 544.024 319.055 543.672 320.271 543.672C321.583 543.672 322.671 544.048 323.535 544.8C324.399 545.536 324.831 546.552 324.831 547.848C324.831 548.776 324.655 549.512 324.303 550.056C323.951 550.6 323.399 551.176 322.647 551.784C321.895 552.408 321.391 552.936 321.135 553.368C320.895 553.8 320.775 554.424 320.775 555.24ZM321.303 560.064C321.303 560.352 321.199 560.608 320.991 560.832C320.799 561.04 320.551 561.144 320.247 561.144C319.927 561.144 319.663 561.04 319.455 560.832C319.263 560.608 319.167 560.352 319.167 560.064C319.167 559.76 319.263 559.504 319.455 559.296C319.663 559.072 319.927 558.96 320.247 558.96C320.551 558.96 320.799 559.072 320.991 559.296C321.199 559.504 321.303 559.76 321.303 560.064Z" fill="#424242"/>
<mask id="mask0" mask-type="alpha" maskUnits="userSpaceOnUse" x="40" y="40" width="540" height="350">
<path d="M40 80C40 57.9086 57.9086 40 80 40H540C562.091 40 580 57.9086 580 80V390H40V80Z" fill="#CDCDCD"/>
</mask>
<g mask="url(#mask0)">
<rect x="-515" y="-81" width="1650" height="1101"/>
<path opacity="0.2" d="M40 80C40 57.9086 57.9086 40 80 40H540C562.091 40 580 57.9086 580 80V390H40V80Z" fill="url(#paint0_linear)"/>
</g>
<defs>
<filter id="filter0_d" x="0" y="0" width="620" height="670" filterUnits="userSpaceOnUse" color-interpolation-filters="sRGB">
<feFlood flood-opacity="0" result="BackgroundImageFix"/>
<feColorMatrix in="SourceAlpha" type="matrix" values="0 0 0 0 0 0 0 0 0 0 0 0 0 0 0 0 0 0 127 0"/>
<feOffset/>
<feGaussianBlur stdDeviation="20"/>
<feColorMatrix type="matrix" values="0 0 0 0 0.497817 0 0 0 0 0.497817 0 0 0 0 0.497817 0 0 0 0.4 0"/>
<feBlend mode="normal" in2="BackgroundImageFix" result="effect1_dropShadow"/>
<feBlend mode="normal" in="SourceGraphic" in2="effect1_dropShadow" result="shape"/>
</filter>
<linearGradient id="paint0_linear" x1="40" y1="215" x2="379.545" y2="-45.8898" gradientUnits="userSpaceOnUse">
<stop stop-color="#2D8550"/>
<stop offset="1" stop-color="#5E6EC2"/>
</linearGradient>
</defs>
</svg>
