<svg width="620" height="670" viewBox="0 0 620 670" fill="none" xmlns="http://www.w3.org/2000/svg">
<g filter="url(#filter0_d)">
<path d="M40 80C40 57.9086 57.9086 40 80 40H540C562.091 40 580 57.9086 580 80V590C580 612.091 562.091 630 540 630H80C57.9086 630 40 612.091 40 590V80Z" fill="white"/>
</g>
<path d="M93.36 436.224C92.0587 436.224 91.0133 436.107 90.224 435.872L90.672 431.328C91.0987 431.477 91.5467 431.552 92.016 431.552C92.8907 431.552 93.5947 431.285 94.128 430.752C94.6827 430.219 95.12 429.184 95.44 427.648C95.7813 426.091 95.952 423.989 95.952 421.344V413.344H113.232V436H107.76V417.984H101.2V421.12C101.2 426.56 100.581 430.443 99.344 432.768C98.1067 435.072 96.112 436.224 93.36 436.224ZM133.579 436.544C131.467 436.544 129.621 435.925 128.043 434.688C126.485 433.429 125.525 431.765 125.163 429.696H122.891V436H117.611V420.064H122.891V425.792H125.259C125.728 423.893 126.72 422.379 128.235 421.248C129.771 420.117 131.552 419.552 133.579 419.552C136.011 419.552 138.059 420.331 139.723 421.888C141.408 423.445 142.251 425.493 142.251 428.032C142.251 430.571 141.408 432.629 139.723 434.208C138.059 435.765 136.011 436.544 133.579 436.544ZM133.579 432.064C134.688 432.064 135.563 431.691 136.203 430.944C136.864 430.197 137.195 429.227 137.195 428.032C137.195 426.837 136.864 425.867 136.203 425.12C135.541 424.352 134.667 423.968 133.579 423.968C132.512 423.968 131.648 424.352 130.987 425.12C130.325 425.888 129.995 426.859 129.995 428.032C129.995 429.227 130.325 430.197 130.987 430.944C131.648 431.691 132.512 432.064 133.579 432.064ZM153.995 436.512C151.521 436.512 149.451 435.744 147.787 434.208C146.806 433.291 146.102 432.224 145.675 431.008C145.27 429.771 145.067 428.16 145.067 426.176C145.067 424.576 145.11 423.211 145.195 422.08C145.302 420.949 145.505 419.829 145.803 418.72C146.123 417.611 146.55 416.704 147.083 416C147.617 415.296 148.342 414.699 149.259 414.208C150.198 413.696 151.318 413.355 152.619 413.184L156.075 412.736C157.078 412.608 157.771 412.448 158.155 412.256C158.539 412.043 158.806 411.691 158.955 411.2L162.667 412.256C162.347 413.792 161.814 414.912 161.067 415.616C160.321 416.32 159.243 416.757 157.835 416.928L153.771 417.472C152.961 417.579 152.31 417.717 151.819 417.888C151.329 418.037 150.827 418.315 150.315 418.72C149.803 419.104 149.409 419.669 149.131 420.416C148.875 421.163 148.715 422.101 148.651 423.232H148.715C149.974 421.056 152.065 419.968 154.987 419.968C157.163 419.968 159.019 420.715 160.555 422.208C162.091 423.68 162.859 425.653 162.859 428.128C162.859 430.667 162.017 432.704 160.331 434.24C158.646 435.755 156.534 436.512 153.995 436.512ZM151.243 430.88C151.926 431.691 152.854 432.096 154.027 432.096C155.201 432.096 156.118 431.691 156.779 430.88C157.462 430.048 157.803 429.077 157.803 427.968C157.803 426.88 157.462 425.931 156.779 425.12C156.097 424.309 155.169 423.904 153.995 423.904C152.822 423.904 151.905 424.309 151.243 425.12C150.582 425.909 150.251 426.859 150.251 427.968C150.251 429.077 150.582 430.048 151.243 430.88ZM174.205 436.512C171.73 436.512 169.64 435.723 167.933 434.144C166.226 432.565 165.373 430.507 165.373 427.968C165.373 425.429 166.226 423.392 167.933 421.856C169.64 420.32 171.73 419.552 174.205 419.552C176.701 419.552 178.802 420.32 180.509 421.856C182.216 423.392 183.069 425.429 183.069 427.968C183.069 430.507 182.216 432.565 180.509 434.144C178.802 435.723 176.701 436.512 174.205 436.512ZM171.453 430.88C172.136 431.691 173.064 432.096 174.237 432.096C175.41 432.096 176.328 431.691 176.989 430.88C177.672 430.048 178.013 429.077 178.013 427.968C178.013 426.88 177.672 425.931 176.989 425.12C176.306 424.309 175.378 423.904 174.205 423.904C173.032 423.904 172.114 424.309 171.453 425.12C170.792 425.909 170.461 426.859 170.461 427.968C170.461 429.077 170.792 430.048 171.453 430.88ZM186.392 436V420.064H195.224C199.128 420.064 201.08 421.461 201.08 424.256C201.08 425.067 200.845 425.771 200.376 426.368C199.928 426.965 199.32 427.381 198.552 427.616V427.68C199.469 427.851 200.237 428.267 200.856 428.928C201.474 429.589 201.784 430.421 201.784 431.424C201.784 432.939 201.208 434.08 200.056 434.848C198.904 435.616 197.432 436 195.64 436H186.392ZM191.512 432.768H194.104C194.808 432.768 195.384 432.619 195.832 432.32C196.301 432 196.536 431.552 196.536 430.976C196.536 429.803 195.704 429.216 194.04 429.216H191.512V432.768ZM191.512 426.496H194.072C194.626 426.496 195.096 426.357 195.48 426.08C195.885 425.803 196.088 425.387 196.088 424.832C196.088 423.787 195.341 423.264 193.848 423.264H191.512V426.496ZM211.127 430.88L208.023 439.968H203.703L206.103 430.88H211.127ZM238.312 428.512C238.312 431.115 237.458 433.12 235.752 434.528C234.045 435.915 231.986 436.608 229.576 436.608C227.485 436.608 225.661 436.096 224.104 435.072C222.546 434.027 221.501 432.619 220.968 430.848L225.864 429.344C226.098 430.155 226.546 430.816 227.208 431.328C227.89 431.819 228.658 432.064 229.512 432.064C230.472 432.064 231.272 431.776 231.912 431.2C232.573 430.624 232.904 429.813 232.904 428.768C232.904 427.531 232.456 426.645 231.56 426.112C230.664 425.579 229.565 425.312 228.264 425.312C226.408 425.312 224.562 425.643 222.728 426.304L223.272 413.344H237.16V417.952H228.04L227.848 421.536C228.466 421.387 229.224 421.312 230.12 421.312C232.509 421.312 234.472 421.941 236.008 423.2C237.544 424.437 238.312 426.208 238.312 428.512ZM259.223 429.536C259.223 431.797 258.402 433.547 256.759 434.784C255.116 436 253.1 436.608 250.711 436.608C248.3 436.608 246.274 436 244.631 434.784C243.01 433.568 242.199 431.829 242.199 429.568C242.199 428.245 242.583 427.104 243.351 426.144C244.119 425.184 245.09 424.523 246.263 424.16V424.096C245.239 423.712 244.407 423.104 243.767 422.272C243.127 421.419 242.807 420.395 242.807 419.2C242.807 417.195 243.564 415.616 245.079 414.464C246.615 413.312 248.492 412.736 250.711 412.736C252.93 412.736 254.796 413.301 256.311 414.432C257.847 415.541 258.615 417.099 258.615 419.104C258.615 420.32 258.295 421.365 257.655 422.24C257.036 423.115 256.204 423.723 255.159 424.064V424.16C256.332 424.48 257.303 425.131 258.071 426.112C258.839 427.093 259.223 428.235 259.223 429.536ZM252.631 421.376C253.164 420.843 253.431 420.213 253.431 419.488C253.431 418.763 253.164 418.155 252.631 417.664C252.098 417.152 251.458 416.896 250.711 416.896C249.922 416.896 249.271 417.141 248.759 417.632C248.268 418.123 248.023 418.741 248.023 419.488C248.023 420.235 248.268 420.875 248.759 421.408C249.25 421.92 249.9 422.176 250.711 422.176C251.479 422.176 252.119 421.909 252.631 421.376ZM253.847 429.344C253.847 428.469 253.548 427.744 252.951 427.168C252.354 426.571 251.607 426.272 250.711 426.272C249.794 426.272 249.036 426.571 248.439 427.168C247.842 427.744 247.543 428.469 247.543 429.344C247.543 430.24 247.831 430.965 248.407 431.52C249.004 432.075 249.772 432.352 250.711 432.352C251.65 432.352 252.407 432.085 252.983 431.552C253.559 430.997 253.847 430.261 253.847 429.344ZM271.111 443.68V420.064H276.103V422.016H276.199C276.711 421.312 277.404 420.736 278.279 420.288C279.175 419.84 280.177 419.616 281.287 419.616C283.527 419.616 285.34 420.437 286.727 422.08C288.135 423.701 288.839 425.664 288.839 427.968C288.839 430.315 288.145 432.32 286.759 433.984C285.393 435.627 283.559 436.448 281.255 436.448C280.273 436.448 279.345 436.256 278.47 435.872C277.596 435.467 276.913 434.923 276.423 434.24H276.359V443.68H271.111ZM280.007 432.096C281.18 432.096 282.097 431.691 282.759 430.88C283.42 430.069 283.751 429.099 283.751 427.968C283.751 426.859 283.42 425.909 282.759 425.12C282.097 424.309 281.18 423.904 280.007 423.904C278.876 423.904 277.948 424.32 277.223 425.152C276.519 425.984 276.167 426.933 276.167 428C276.167 429.088 276.519 430.048 277.223 430.88C277.948 431.691 278.876 432.096 280.007 432.096ZM300.174 436.512C297.699 436.512 295.608 435.723 293.902 434.144C292.195 432.565 291.342 430.507 291.342 427.968C291.342 425.429 292.195 423.392 293.902 421.856C295.608 420.32 297.699 419.552 300.174 419.552C302.67 419.552 304.771 420.32 306.478 421.856C308.184 423.392 309.038 425.429 309.038 427.968C309.038 430.507 308.184 432.565 306.478 434.144C304.771 435.723 302.67 436.512 300.174 436.512ZM297.422 430.88C298.104 431.691 299.032 432.096 300.206 432.096C301.379 432.096 302.296 431.691 302.958 430.88C303.64 430.048 303.982 429.077 303.982 427.968C303.982 426.88 303.64 425.931 302.958 425.12C302.275 424.309 301.347 423.904 300.174 423.904C299 423.904 298.083 424.309 297.422 425.12C296.76 425.909 296.43 426.859 296.43 427.968C296.43 429.077 296.76 430.048 297.422 430.88ZM312.361 436V420.064H317.641V426.816H317.737L322.953 420.064H329.321L323.081 427.52L329.609 436H323.177L317.737 428.8H317.641V436H312.361ZM331.581 436V420.064H336.829V436H331.581ZM336.317 417.024C335.741 417.579 335.037 417.856 334.205 417.856C333.373 417.856 332.658 417.579 332.061 417.024C331.485 416.448 331.197 415.765 331.197 414.976C331.197 414.208 331.485 413.536 332.061 412.96C332.658 412.384 333.373 412.096 334.205 412.096C335.037 412.096 335.741 412.384 336.317 412.96C336.914 413.515 337.213 414.187 337.213 414.976C337.213 415.787 336.914 416.469 336.317 417.024ZM340.986 436V420.064H349.818C353.722 420.064 355.674 421.461 355.674 424.256C355.674 425.067 355.439 425.771 354.97 426.368C354.522 426.965 353.914 427.381 353.146 427.616V427.68C354.063 427.851 354.831 428.267 355.45 428.928C356.068 429.589 356.378 430.421 356.378 431.424C356.378 432.939 355.802 434.08 354.65 434.848C353.498 435.616 352.026 436 350.234 436H340.986ZM346.106 432.768H348.698C349.402 432.768 349.978 432.619 350.426 432.32C350.895 432 351.13 431.552 351.13 430.976C351.13 429.803 350.298 429.216 348.634 429.216H346.106V432.768ZM346.106 426.496H348.666C349.22 426.496 349.69 426.357 350.074 426.08C350.479 425.803 350.682 425.387 350.682 424.832C350.682 423.787 349.935 423.264 348.442 423.264H346.106V426.496Z" fill="#8E9AD5"/>
<path d="M91.536 473.168C90.976 473.168 90.496 473.104 90.096 472.976L90.336 471.752C90.784 471.864 91.12 471.92 91.344 471.92C92.864 471.92 93.928 470.984 94.536 469.112C95.16 467.224 95.472 464.104 95.472 459.752V456.008H105.432V473H104.064V457.208H96.816V460.352C96.816 464.72 96.424 467.952 95.64 470.048C94.856 472.128 93.488 473.168 91.536 473.168ZM110.045 473V461.816H111.365V473H110.045ZM111.365 458.072C111.173 458.264 110.949 458.36 110.693 458.36C110.437 458.36 110.213 458.264 110.021 458.072C109.829 457.88 109.733 457.648 109.733 457.376C109.733 457.104 109.829 456.872 110.021 456.68C110.213 456.488 110.437 456.392 110.693 456.392C110.949 456.392 111.173 456.488 111.365 456.68C111.573 456.872 111.677 457.104 111.677 457.376C111.677 457.648 111.573 457.88 111.365 458.072ZM115.929 473V461.816H117.225V467.096H117.297L122.745 461.816H124.617L118.785 467.144L125.217 473H123.297L117.297 467.312H117.225V473H115.929ZM130.763 473.312C129.771 473.312 128.883 473.032 128.099 472.472C127.315 471.912 126.923 471.08 126.923 469.976C126.923 469.336 127.059 468.784 127.331 468.32C127.619 467.856 127.979 467.496 128.411 467.24C128.843 466.968 129.379 466.76 130.019 466.616C130.675 466.456 131.307 466.352 131.915 466.304C132.523 466.256 133.219 466.232 134.003 466.232H134.843V465.728C134.843 463.648 133.787 462.608 131.675 462.608C130.363 462.608 129.251 463.048 128.339 463.928L127.619 463.064C128.675 462.04 130.067 461.528 131.795 461.528C133.091 461.528 134.131 461.872 134.915 462.56C135.699 463.248 136.091 464.256 136.091 465.584V470.48C136.091 471.488 136.155 472.328 136.283 473H135.107C134.979 472.232 134.915 471.544 134.915 470.936H134.867C133.987 472.52 132.619 473.312 130.763 473.312ZM131.075 472.232C132.291 472.232 133.219 471.84 133.859 471.056C134.515 470.256 134.843 469.296 134.843 468.176V467.264H134.003C130.179 467.264 128.267 468.144 128.267 469.904C128.267 470.704 128.539 471.296 129.083 471.68C129.643 472.048 130.307 472.232 131.075 472.232ZM141.74 470.84V478.76H140.444V461.816H141.74V464.048H141.812C142.276 463.216 142.9 462.592 143.684 462.176C144.484 461.744 145.34 461.528 146.252 461.528C147.948 461.528 149.324 462.088 150.38 463.208C151.452 464.312 151.988 465.712 151.988 467.408C151.988 469.104 151.46 470.512 150.404 471.632C149.364 472.752 147.996 473.312 146.3 473.312C145.372 473.312 144.5 473.104 143.684 472.688C142.868 472.256 142.244 471.64 141.812 470.84H141.74ZM149.372 470.816C150.188 469.904 150.596 468.768 150.596 467.408C150.596 466.048 150.188 464.912 149.372 464C148.572 463.072 147.492 462.608 146.132 462.608C144.836 462.608 143.756 463.072 142.892 464C142.044 464.912 141.62 466.048 141.62 467.408C141.62 468.768 142.044 469.904 142.892 470.816C143.756 471.728 144.836 472.184 146.132 472.184C147.492 472.184 148.572 471.728 149.372 470.816ZM161.608 473V461.816H170.92V473H169.624V462.92H162.928V473H161.608ZM176.755 470.84V478.76H175.459V461.816H176.755V464.048H176.827C177.291 463.216 177.915 462.592 178.699 462.176C179.499 461.744 180.355 461.528 181.267 461.528C182.963 461.528 184.339 462.088 185.395 463.208C186.467 464.312 187.003 465.712 187.003 467.408C187.003 469.104 186.475 470.512 185.419 471.632C184.379 472.752 183.011 473.312 181.315 473.312C180.387 473.312 179.515 473.104 178.699 472.688C177.883 472.256 177.259 471.64 176.827 470.84H176.755ZM184.387 470.816C185.203 469.904 185.611 468.768 185.611 467.408C185.611 466.048 185.203 464.912 184.387 464C183.587 463.072 182.507 462.608 181.147 462.608C179.851 462.608 178.771 463.072 177.907 464C177.059 464.912 176.635 466.048 176.635 467.408C176.635 468.768 177.059 469.904 177.907 470.816C178.771 471.728 179.851 472.184 181.147 472.184C182.507 472.184 183.587 471.728 184.387 470.816ZM190.623 473V461.816H191.943V471.176L198.975 461.816H200.391V473H199.119V463.568H199.071L192.039 473H190.623ZM208.064 473.312C206.064 473.312 204.576 472.624 203.6 471.248L204.56 470.48C205.376 471.616 206.536 472.184 208.04 472.184C208.888 472.184 209.6 471.992 210.176 471.608C210.752 471.224 211.04 470.64 211.04 469.856C211.04 469.152 210.728 468.616 210.104 468.248C209.48 467.88 208.688 467.696 207.728 467.696H206.792V466.64H207.632C208.528 466.64 209.264 466.456 209.84 466.088C210.416 465.704 210.704 465.168 210.704 464.48C210.704 463.856 210.448 463.392 209.936 463.088C209.44 462.768 208.776 462.608 207.944 462.608C207.352 462.608 206.784 462.744 206.24 463.016C205.712 463.288 205.296 463.664 204.992 464.144L203.984 463.424C204.352 462.816 204.888 462.352 205.592 462.032C206.312 461.696 207.112 461.528 207.992 461.528C209.192 461.528 210.16 461.784 210.896 462.296C211.632 462.808 212 463.536 212 464.48C212 465.136 211.776 465.704 211.328 466.184C210.896 466.648 210.328 466.952 209.624 467.096V467.144C210.44 467.256 211.096 467.56 211.592 468.056C212.088 468.552 212.336 469.168 212.336 469.904C212.336 470.96 211.936 471.792 211.136 472.4C210.352 473.008 209.328 473.312 208.064 473.312ZM216.053 473V461.816H217.373V466.64H224.237V461.816H225.533V473H224.237V467.744H217.373V473H216.053ZM233.045 473.312C232.053 473.312 231.165 473.032 230.381 472.472C229.597 471.912 229.205 471.08 229.205 469.976C229.205 469.336 229.341 468.784 229.613 468.32C229.901 467.856 230.261 467.496 230.693 467.24C231.125 466.968 231.661 466.76 232.301 466.616C232.957 466.456 233.589 466.352 234.197 466.304C234.805 466.256 235.501 466.232 236.285 466.232H237.125V465.728C237.125 463.648 236.069 462.608 233.957 462.608C232.645 462.608 231.533 463.048 230.621 463.928L229.901 463.064C230.957 462.04 232.349 461.528 234.077 461.528C235.373 461.528 236.413 461.872 237.197 462.56C237.981 463.248 238.373 464.256 238.373 465.584V470.48C238.373 471.488 238.437 472.328 238.565 473H237.389C237.261 472.232 237.197 471.544 237.197 470.936H237.149C236.269 472.52 234.901 473.312 233.045 473.312ZM233.357 472.232C234.573 472.232 235.501 471.84 236.141 471.056C236.797 470.256 237.125 469.296 237.125 468.176V467.264H236.285C232.461 467.264 230.549 468.144 230.549 469.904C230.549 470.704 230.821 471.296 231.365 471.68C231.925 472.048 232.589 472.232 233.357 472.232ZM249.493 473V468.272C248.357 468.576 247.213 468.728 246.061 468.728C243.565 468.728 242.317 467.568 242.317 465.248V461.816H243.637V465.104C243.637 466.08 243.853 466.744 244.285 467.096C244.733 467.448 245.413 467.624 246.325 467.624C247.221 467.624 248.277 467.472 249.493 467.168V461.816H250.789V473H249.493ZM255.334 473V461.816H256.654V471.176L263.686 461.816H265.102V473H263.83V463.568H263.782L256.75 473H255.334ZM269.631 473V461.816H274.647C275.639 461.816 276.479 462.032 277.167 462.464C277.855 462.896 278.199 463.616 278.199 464.624C278.199 465.248 278.007 465.776 277.623 466.208C277.239 466.64 276.751 466.928 276.159 467.072V467.096C276.895 467.192 277.511 467.488 278.007 467.984C278.503 468.464 278.751 469.112 278.751 469.928C278.751 470.904 278.383 471.664 277.647 472.208C276.911 472.736 275.951 473 274.767 473H269.631ZM270.951 471.872H274.575C275.423 471.872 276.103 471.704 276.615 471.368C277.143 471.032 277.407 470.52 277.407 469.832C277.407 469.128 277.159 468.6 276.663 468.248C276.167 467.896 275.527 467.72 274.743 467.72H270.951V471.872ZM270.951 466.64H274.599C275.223 466.64 275.767 466.488 276.231 466.184C276.695 465.864 276.927 465.392 276.927 464.768C276.927 464.128 276.687 463.664 276.207 463.376C275.743 463.072 275.135 462.92 274.383 462.92H270.951V466.64ZM288.404 473V461.816H297.716V473H296.42V462.92H289.724V473H288.404ZM303.552 470.84V478.76H302.256V461.816H303.552V464.048H303.624C304.088 463.216 304.712 462.592 305.496 462.176C306.296 461.744 307.152 461.528 308.064 461.528C309.76 461.528 311.136 462.088 312.192 463.208C313.264 464.312 313.8 465.712 313.8 467.408C313.8 469.104 313.272 470.512 312.216 471.632C311.176 472.752 309.808 473.312 308.112 473.312C307.184 473.312 306.312 473.104 305.496 472.688C304.68 472.256 304.056 471.64 303.624 470.84H303.552ZM311.184 470.816C312 469.904 312.408 468.768 312.408 467.408C312.408 466.048 312 464.912 311.184 464C310.384 463.072 309.304 462.608 307.944 462.608C306.648 462.608 305.568 463.072 304.704 464C303.856 464.912 303.432 466.048 303.432 467.408C303.432 468.768 303.856 469.904 304.704 470.816C305.568 471.728 306.648 472.184 307.944 472.184C309.304 472.184 310.384 471.728 311.184 470.816ZM317.924 466.64H326.084C326.036 465.44 325.652 464.472 324.932 463.736C324.228 462.984 323.276 462.608 322.076 462.608C320.892 462.608 319.916 463.032 319.148 463.88C318.38 464.712 317.972 465.632 317.924 466.64ZM322.22 473.312C320.588 473.312 319.236 472.752 318.164 471.632C317.092 470.512 316.556 469.096 316.556 467.384C316.556 465.704 317.084 464.312 318.14 463.208C319.212 462.088 320.532 461.528 322.1 461.528C323.78 461.528 325.076 462.056 325.988 463.112C326.916 464.152 327.38 465.448 327.38 467V467.672H317.9C317.932 468.904 318.348 469.968 319.148 470.864C319.948 471.744 320.988 472.184 322.268 472.184C323.756 472.184 325.036 471.552 326.108 470.288L326.972 470.984C325.772 472.536 324.188 473.312 322.22 473.312ZM331.037 473V461.816H340.349V473H339.053V462.92H332.357V473H331.037ZM347.865 473.312C346.873 473.312 345.985 473.032 345.201 472.472C344.417 471.912 344.025 471.08 344.025 469.976C344.025 469.336 344.161 468.784 344.433 468.32C344.721 467.856 345.081 467.496 345.513 467.24C345.945 466.968 346.481 466.76 347.121 466.616C347.777 466.456 348.409 466.352 349.017 466.304C349.625 466.256 350.321 466.232 351.105 466.232H351.945V465.728C351.945 463.648 350.889 462.608 348.777 462.608C347.465 462.608 346.353 463.048 345.441 463.928L344.721 463.064C345.777 462.04 347.169 461.528 348.897 461.528C350.193 461.528 351.233 461.872 352.017 462.56C352.801 463.248 353.193 464.256 353.193 465.584V470.48C353.193 471.488 353.257 472.328 353.385 473H352.209C352.081 472.232 352.017 471.544 352.017 470.936H351.969C351.089 472.52 349.721 473.312 347.865 473.312ZM348.177 472.232C349.393 472.232 350.321 471.84 350.961 471.056C351.617 470.256 351.945 469.296 351.945 468.176V467.264H351.105C347.281 467.264 345.369 468.144 345.369 469.904C345.369 470.704 345.641 471.296 346.185 471.68C346.745 472.048 347.409 472.232 348.177 472.232ZM358.841 470.84V478.76H357.545V461.816H358.841V464.048H358.913C359.377 463.216 360.001 462.592 360.785 462.176C361.585 461.744 362.441 461.528 363.353 461.528C365.049 461.528 366.425 462.088 367.481 463.208C368.553 464.312 369.089 465.712 369.089 467.408C369.089 469.104 368.561 470.512 367.505 471.632C366.465 472.752 365.097 473.312 363.401 473.312C362.473 473.312 361.601 473.104 360.785 472.688C359.969 472.256 359.345 471.64 358.913 470.84H358.841ZM366.473 470.816C367.289 469.904 367.697 468.768 367.697 467.408C367.697 466.048 367.289 464.912 366.473 464C365.673 463.072 364.593 462.608 363.233 462.608C361.937 462.608 360.857 463.072 359.993 464C359.145 464.912 358.721 466.048 358.721 467.408C358.721 468.768 359.145 469.904 359.993 470.816C360.857 471.728 361.937 472.184 363.233 472.184C364.593 472.184 365.673 471.728 366.473 470.816ZM375.685 473.312C374.693 473.312 373.805 473.032 373.021 472.472C372.237 471.912 371.845 471.08 371.845 469.976C371.845 469.336 371.981 468.784 372.253 468.32C372.541 467.856 372.901 467.496 373.333 467.24C373.765 466.968 374.301 466.76 374.941 466.616C375.597 466.456 376.229 466.352 376.837 466.304C377.445 466.256 378.141 466.232 378.925 466.232H379.765V465.728C379.765 463.648 378.709 462.608 376.597 462.608C375.285 462.608 374.173 463.048 373.261 463.928L372.541 463.064C373.597 462.04 374.989 461.528 376.717 461.528C378.013 461.528 379.053 461.872 379.837 462.56C380.621 463.248 381.013 464.256 381.013 465.584V470.48C381.013 471.488 381.077 472.328 381.205 473H380.029C379.901 472.232 379.837 471.544 379.837 470.936H379.789C378.909 472.52 377.541 473.312 375.685 473.312ZM375.997 472.232C377.213 472.232 378.141 471.84 378.781 471.056C379.437 470.256 379.765 469.296 379.765 468.176V467.264H378.925C375.101 467.264 373.189 468.144 373.189 469.904C373.189 470.704 373.461 471.296 374.005 471.68C374.565 472.048 375.229 472.232 375.997 472.232ZM387.741 473V462.92H383.613V461.816H393.165V462.92H389.037V473H387.741ZM401.959 473V461.816H406.975C407.967 461.816 408.807 462.032 409.495 462.464C410.183 462.896 410.527 463.616 410.527 464.624C410.527 465.248 410.335 465.776 409.951 466.208C409.567 466.64 409.079 466.928 408.487 467.072V467.096C409.223 467.192 409.839 467.488 410.335 467.984C410.831 468.464 411.079 469.112 411.079 469.928C411.079 470.904 410.711 471.664 409.975 472.208C409.239 472.736 408.279 473 407.095 473H401.959ZM403.279 471.872H406.903C407.751 471.872 408.431 471.704 408.943 471.368C409.471 471.032 409.735 470.52 409.735 469.832C409.735 469.128 409.487 468.6 408.991 468.248C408.495 467.896 407.855 467.72 407.071 467.72H403.279V471.872ZM403.279 466.64H406.927C407.551 466.64 408.095 466.488 408.559 466.184C409.023 465.864 409.255 465.392 409.255 464.768C409.255 464.128 409.015 463.664 408.535 463.376C408.071 463.072 407.463 462.92 406.711 462.92H403.279V466.64ZM414.733 473V461.816H416.053V473H414.733ZM416.053 458.072C415.861 458.264 415.637 458.36 415.381 458.36C415.125 458.36 414.901 458.264 414.709 458.072C414.517 457.88 414.421 457.648 414.421 457.376C414.421 457.104 414.517 456.872 414.709 456.68C414.901 456.488 415.125 456.392 415.381 456.392C415.637 456.392 415.861 456.488 416.053 456.68C416.261 456.872 416.365 457.104 416.365 457.376C416.365 457.648 416.261 457.88 416.053 458.072ZM418.913 476.672V471.872H420.233C420.777 471.184 421.225 470.232 421.577 469.016C421.929 467.8 422.105 466.408 422.105 464.84V461.816H430.001V471.872H431.825V476.672H430.601V473H420.137V476.672H418.913ZM421.721 471.872H428.729V462.92H423.377V465.176C423.377 467.816 422.825 470.048 421.721 471.872ZM95.232 502.312C94.24 502.312 93.352 502.032 92.568 501.472C91.784 500.912 91.392 500.08 91.392 498.976C91.392 498.336 91.528 497.784 91.8 497.32C92.088 496.856 92.448 496.496 92.88 496.24C93.312 495.968 93.848 495.76 94.488 495.616C95.144 495.456 95.776 495.352 96.384 495.304C96.992 495.256 97.688 495.232 98.472 495.232H99.312V494.728C99.312 492.648 98.256 491.608 96.144 491.608C94.832 491.608 93.72 492.048 92.808 492.928L92.088 492.064C93.144 491.04 94.536 490.528 96.264 490.528C97.56 490.528 98.6 490.872 99.384 491.56C100.168 492.248 100.56 493.256 100.56 494.584V499.48C100.56 500.488 100.624 501.328 100.752 502H99.576C99.448 501.232 99.384 500.544 99.384 499.936H99.336C98.456 501.52 97.088 502.312 95.232 502.312ZM95.544 501.232C96.76 501.232 97.688 500.84 98.328 500.056C98.984 499.256 99.312 498.296 99.312 497.176V496.264H98.472C94.648 496.264 92.736 497.144 92.736 498.904C92.736 499.704 93.008 500.296 93.552 500.68C94.112 501.048 94.776 501.232 95.544 501.232ZM106.208 499.84V507.76H104.912V490.816H106.208V493.048H106.28C106.744 492.216 107.368 491.592 108.152 491.176C108.952 490.744 109.808 490.528 110.72 490.528C112.416 490.528 113.792 491.088 114.848 492.208C115.92 493.312 116.456 494.712 116.456 496.408C116.456 498.104 115.928 499.512 114.872 500.632C113.832 501.752 112.464 502.312 110.768 502.312C109.84 502.312 108.968 502.104 108.152 501.688C107.336 501.256 106.712 500.64 106.28 499.84H106.208ZM113.84 499.816C114.656 498.904 115.064 497.768 115.064 496.408C115.064 495.048 114.656 493.912 113.84 493C113.04 492.072 111.96 491.608 110.6 491.608C109.304 491.608 108.224 492.072 107.36 493C106.512 493.912 106.088 495.048 106.088 496.408C106.088 497.768 106.512 498.904 107.36 499.816C108.224 500.728 109.304 501.184 110.6 501.184C111.96 501.184 113.04 500.728 113.84 499.816ZM122.171 502V491.92H118.043V490.816H127.595V491.92H123.467V502H122.171ZM130.612 495.64H138.772C138.724 494.44 138.34 493.472 137.62 492.736C136.916 491.984 135.964 491.608 134.764 491.608C133.58 491.608 132.604 492.032 131.836 492.88C131.068 493.712 130.66 494.632 130.612 495.64ZM134.908 502.312C133.276 502.312 131.924 501.752 130.852 500.632C129.78 499.512 129.244 498.096 129.244 496.384C129.244 494.704 129.772 493.312 130.828 492.208C131.9 491.088 133.22 490.528 134.788 490.528C136.468 490.528 137.764 491.056 138.676 492.112C139.604 493.152 140.068 494.448 140.068 496V496.672H130.588C130.62 497.904 131.036 498.968 131.836 499.864C132.636 500.744 133.676 501.184 134.956 501.184C136.444 501.184 137.724 500.552 138.796 499.288L139.66 499.984C138.46 501.536 136.876 502.312 134.908 502.312ZM145.021 499.84V507.76H143.725V490.816H145.021V493.048H145.093C145.557 492.216 146.181 491.592 146.965 491.176C147.765 490.744 148.621 490.528 149.533 490.528C151.229 490.528 152.605 491.088 153.661 492.208C154.733 493.312 155.269 494.712 155.269 496.408C155.269 498.104 154.741 499.512 153.685 500.632C152.645 501.752 151.277 502.312 149.581 502.312C148.653 502.312 147.781 502.104 146.965 501.688C146.149 501.256 145.525 500.64 145.093 499.84H145.021ZM152.653 499.816C153.469 498.904 153.877 497.768 153.877 496.408C153.877 495.048 153.469 493.912 152.653 493C151.853 492.072 150.773 491.608 149.413 491.608C148.117 491.608 147.037 492.072 146.173 493C145.325 493.912 144.901 495.048 144.901 496.408C144.901 497.768 145.325 498.904 146.173 499.816C147.037 500.728 148.117 501.184 149.413 501.184C150.773 501.184 151.853 500.728 152.653 499.816ZM158.889 502V490.816H160.209V502H158.889ZM160.209 487.072C160.017 487.264 159.793 487.36 159.537 487.36C159.281 487.36 159.057 487.264 158.865 487.072C158.673 486.88 158.577 486.648 158.577 486.376C158.577 486.104 158.673 485.872 158.865 485.68C159.057 485.488 159.281 485.392 159.537 485.392C159.793 485.392 160.017 485.488 160.209 485.68C160.417 485.872 160.521 486.104 160.521 486.376C160.521 486.648 160.417 486.88 160.209 487.072ZM167.701 502.312C166.709 502.312 165.821 502.032 165.037 501.472C164.253 500.912 163.861 500.08 163.861 498.976C163.861 498.336 163.997 497.784 164.269 497.32C164.557 496.856 164.917 496.496 165.349 496.24C165.781 495.968 166.317 495.76 166.957 495.616C167.613 495.456 168.245 495.352 168.853 495.304C169.461 495.256 170.157 495.232 170.941 495.232H171.781V494.728C171.781 492.648 170.725 491.608 168.613 491.608C167.301 491.608 166.189 492.048 165.277 492.928L164.557 492.064C165.613 491.04 167.005 490.528 168.733 490.528C170.029 490.528 171.069 490.872 171.853 491.56C172.637 492.248 173.029 493.256 173.029 494.584V499.48C173.029 500.488 173.093 501.328 173.221 502H172.045C171.917 501.232 171.853 500.544 171.853 499.936H171.805C170.925 501.52 169.557 502.312 167.701 502.312ZM168.013 501.232C169.229 501.232 170.157 500.84 170.797 500.056C171.453 499.256 171.781 498.296 171.781 497.176V496.264H170.941C167.117 496.264 165.205 497.144 165.205 498.904C165.205 499.704 165.477 500.296 166.021 500.68C166.581 501.048 167.245 501.232 168.013 501.232ZM176.517 502.12C176.101 502.12 175.733 502.072 175.413 501.976L175.581 500.848C175.789 500.928 176.037 500.968 176.325 500.968C177.269 500.968 177.957 500.464 178.389 499.456C178.837 498.432 179.061 496.848 179.061 494.704V490.816H186.813V502H185.517V491.92H180.333V495.112C180.333 499.784 179.061 502.12 176.517 502.12ZM191.326 502V490.816H192.646V495.208H195.646C197.022 495.208 198.07 495.512 198.79 496.12C199.526 496.728 199.894 497.576 199.894 498.664C199.894 499.736 199.534 500.56 198.814 501.136C198.094 501.712 197.038 502 195.646 502H191.326ZM192.646 500.872H195.79C197.63 500.872 198.55 500.136 198.55 498.664C198.55 497.096 197.63 496.312 195.79 496.312H192.646V500.872ZM203.233 502V490.816H204.553V495.64H211.417V490.816H212.713V502H211.417V496.744H204.553V502H203.233ZM222.288 502.312C220.576 502.312 219.16 501.752 218.04 500.632C216.936 499.512 216.384 498.104 216.384 496.408C216.384 494.696 216.936 493.288 218.04 492.184C219.144 491.08 220.56 490.528 222.288 490.528C224.016 490.528 225.432 491.08 226.536 492.184C227.656 493.288 228.216 494.696 228.216 496.408C228.216 498.104 227.656 499.512 226.536 500.632C225.432 501.752 224.016 502.312 222.288 502.312ZM222.288 501.184C223.664 501.184 224.768 500.728 225.6 499.816C226.432 498.904 226.848 497.768 226.848 496.408C226.848 495.048 226.432 493.912 225.6 493C224.768 492.072 223.664 491.608 222.288 491.608C220.928 491.608 219.832 492.072 219 493C218.168 493.912 217.752 495.048 217.752 496.408C217.752 497.768 218.168 498.904 219 499.816C219.832 500.728 220.928 501.184 222.288 501.184ZM229.329 486.376C229.329 486.104 229.425 485.864 229.617 485.656C229.825 485.448 230.073 485.344 230.361 485.344C230.649 485.344 230.889 485.448 231.081 485.656C231.289 485.864 231.393 486.104 231.393 486.376C231.393 486.664 231.289 486.912 231.081 487.12C230.889 487.328 230.649 487.432 230.361 487.432C230.073 487.432 229.825 487.328 229.617 487.12C229.425 486.912 229.329 486.664 229.329 486.376ZM233.673 486.376C233.673 486.104 233.769 485.864 233.961 485.656C234.169 485.448 234.417 485.344 234.705 485.344C234.993 485.344 235.233 485.448 235.425 485.656C235.617 485.864 235.713 486.104 235.713 486.376C235.713 486.664 235.617 486.912 235.425 487.12C235.233 487.328 234.993 487.432 234.705 487.432C234.417 487.432 234.169 487.328 233.961 487.12C233.769 486.912 233.673 486.664 233.673 486.376ZM233.193 490.816V502H231.873V490.816H233.193ZM243.709 502V490.816H250.981V491.92H245.029V502H243.709ZM253.764 502V490.816H255.084V502H253.764ZM255.084 487.072C254.892 487.264 254.668 487.36 254.412 487.36C254.156 487.36 253.932 487.264 253.74 487.072C253.548 486.88 253.452 486.648 253.452 486.376C253.452 486.104 253.548 485.872 253.74 485.68C253.932 485.488 254.156 485.392 254.412 485.392C254.668 485.392 254.892 485.488 255.084 485.68C255.292 485.872 255.396 486.104 255.396 486.376C255.396 486.648 255.292 486.88 255.084 487.072ZM259.6 502V490.816H268.912V502H267.616V491.92H260.92V502H259.6ZM273.955 495.64H282.115C282.067 494.44 281.683 493.472 280.963 492.736C280.259 491.984 279.307 491.608 278.107 491.608C276.923 491.608 275.947 492.032 275.179 492.88C274.411 493.712 274.003 494.632 273.955 495.64ZM278.251 502.312C276.619 502.312 275.267 501.752 274.195 500.632C273.123 499.512 272.587 498.096 272.587 496.384C272.587 494.704 273.115 493.312 274.171 492.208C275.243 491.088 276.563 490.528 278.131 490.528C279.811 490.528 281.107 491.056 282.019 492.112C282.947 493.152 283.411 494.448 283.411 496V496.672H273.931C273.963 497.904 274.379 498.968 275.179 499.864C275.979 500.744 277.019 501.184 278.299 501.184C279.787 501.184 281.067 500.552 282.139 499.288L283.003 499.984C281.803 501.536 280.219 502.312 278.251 502.312ZM288.365 499.84V507.76H287.069V490.816H288.365V493.048H288.437C288.901 492.216 289.525 491.592 290.309 491.176C291.109 490.744 291.965 490.528 292.877 490.528C294.573 490.528 295.949 491.088 297.005 492.208C298.077 493.312 298.613 494.712 298.613 496.408C298.613 498.104 298.085 499.512 297.029 500.632C295.989 501.752 294.621 502.312 292.925 502.312C291.997 502.312 291.125 502.104 290.309 501.688C289.493 501.256 288.869 500.64 288.437 499.84H288.365ZM295.997 499.816C296.813 498.904 297.221 497.768 297.221 496.408C297.221 495.048 296.813 493.912 295.997 493C295.197 492.072 294.117 491.608 292.757 491.608C291.461 491.608 290.381 492.072 289.517 493C288.669 493.912 288.245 495.048 288.245 496.408C288.245 497.768 288.669 498.904 289.517 499.816C290.381 500.728 291.461 501.184 292.757 501.184C294.117 501.184 295.197 500.728 295.997 499.816ZM304.327 502V491.92H300.199V490.816H309.751V491.92H305.623V502H304.327ZM312.768 495.64H320.928C320.88 494.44 320.496 493.472 319.776 492.736C319.072 491.984 318.12 491.608 316.92 491.608C315.736 491.608 314.76 492.032 313.992 492.88C313.224 493.712 312.816 494.632 312.768 495.64ZM317.064 502.312C315.432 502.312 314.08 501.752 313.008 500.632C311.936 499.512 311.4 498.096 311.4 496.384C311.4 494.704 311.928 493.312 312.984 492.208C314.056 491.088 315.376 490.528 316.944 490.528C318.624 490.528 319.92 491.056 320.832 492.112C321.76 493.152 322.224 494.448 322.224 496V496.672H312.744C312.776 497.904 313.192 498.968 313.992 499.864C314.792 500.744 315.832 501.184 317.112 501.184C318.6 501.184 319.88 500.552 320.952 499.288L321.816 499.984C320.616 501.536 319.032 502.312 317.064 502.312ZM325.881 502V490.816H327.201V495.64H334.065V490.816H335.361V502H334.065V496.744H327.201V502H325.881ZM343.041 502.312C341.041 502.312 339.553 501.624 338.577 500.248L339.537 499.48C340.353 500.616 341.513 501.184 343.017 501.184C343.865 501.184 344.577 500.992 345.153 500.608C345.729 500.224 346.017 499.64 346.017 498.856C346.017 498.152 345.705 497.616 345.081 497.248C344.457 496.88 343.665 496.696 342.705 496.696H341.769V495.64H342.609C343.505 495.64 344.241 495.456 344.817 495.088C345.393 494.704 345.681 494.168 345.681 493.48C345.681 492.856 345.425 492.392 344.913 492.088C344.417 491.768 343.753 491.608 342.921 491.608C342.329 491.608 341.761 491.744 341.217 492.016C340.689 492.288 340.273 492.664 339.969 493.144L338.961 492.424C339.329 491.816 339.865 491.352 340.569 491.032C341.289 490.696 342.089 490.528 342.969 490.528C344.169 490.528 345.137 490.784 345.873 491.296C346.609 491.808 346.977 492.536 346.977 493.48C346.977 494.136 346.753 494.704 346.305 495.184C345.873 495.648 345.305 495.952 344.601 496.096V496.144C345.417 496.256 346.073 496.56 346.569 497.056C347.065 497.552 347.313 498.168 347.313 498.904C347.313 499.96 346.913 500.792 346.113 501.4C345.329 502.008 344.305 502.312 343.041 502.312ZM351.029 502V490.816H352.349V502H351.029ZM352.349 487.072C352.157 487.264 351.933 487.36 351.677 487.36C351.421 487.36 351.197 487.264 351.005 487.072C350.813 486.88 350.717 486.648 350.717 486.376C350.717 486.104 350.813 485.872 351.005 485.68C351.197 485.488 351.421 485.392 351.677 485.392C351.933 485.392 352.157 485.488 352.349 485.68C352.557 485.872 352.661 486.104 352.661 486.376C352.661 486.648 352.557 486.88 352.349 487.072ZM354.321 486.376C354.321 486.104 354.417 485.864 354.609 485.656C354.817 485.448 355.065 485.344 355.353 485.344C355.641 485.344 355.881 485.448 356.073 485.656C356.281 485.864 356.385 486.104 356.385 486.376C356.385 486.664 356.281 486.912 356.073 487.12C355.881 487.328 355.641 487.432 355.353 487.432C355.065 487.432 354.817 487.328 354.609 487.12C354.417 486.912 354.321 486.664 354.321 486.376ZM358.665 486.376C358.665 486.104 358.761 485.864 358.953 485.656C359.161 485.448 359.409 485.344 359.697 485.344C359.985 485.344 360.225 485.448 360.417 485.656C360.609 485.864 360.705 486.104 360.705 486.376C360.705 486.664 360.609 486.912 360.417 487.12C360.225 487.328 359.985 487.432 359.697 487.432C359.409 487.432 359.161 487.328 358.953 487.12C358.761 486.912 358.665 486.664 358.665 486.376ZM358.185 490.816V502H356.865V490.816H358.185ZM364.621 499.744L362.797 505.336H361.717L363.253 499.744H364.621ZM377.045 502.312C376.053 502.312 375.165 502.032 374.381 501.472C373.597 500.912 373.205 500.08 373.205 498.976C373.205 498.336 373.341 497.784 373.613 497.32C373.901 496.856 374.261 496.496 374.693 496.24C375.125 495.968 375.661 495.76 376.301 495.616C376.957 495.456 377.589 495.352 378.197 495.304C378.805 495.256 379.501 495.232 380.285 495.232H381.125V494.728C381.125 492.648 380.069 491.608 377.957 491.608C376.645 491.608 375.533 492.048 374.621 492.928L373.901 492.064C374.957 491.04 376.349 490.528 378.077 490.528C379.373 490.528 380.413 490.872 381.197 491.56C381.981 492.248 382.373 493.256 382.373 494.584V499.48C382.373 500.488 382.437 501.328 382.565 502H381.389C381.261 501.232 381.197 500.544 381.197 499.936H381.149C380.269 501.52 378.901 502.312 377.045 502.312ZM377.357 501.232C378.573 501.232 379.501 500.84 380.141 500.056C380.797 499.256 381.125 498.296 381.125 497.176V496.264H380.285C376.461 496.264 374.549 497.144 374.549 498.904C374.549 499.704 374.821 500.296 375.365 500.68C375.925 501.048 376.589 501.232 377.357 501.232ZM397.933 502.312C395.981 502.312 394.509 501.664 393.517 500.368C392.573 499.296 392.101 497.568 392.101 495.184C392.101 494.176 392.117 493.312 392.149 492.592C392.197 491.856 392.277 491.096 392.389 490.312C392.501 489.528 392.669 488.864 392.893 488.32C393.133 487.776 393.429 487.272 393.781 486.808C394.133 486.328 394.581 485.952 395.125 485.68C395.685 485.408 396.333 485.224 397.069 485.128L400.669 484.696C401.805 484.552 402.469 484.184 402.661 483.592L403.597 483.88C403.325 484.952 402.477 485.576 401.053 485.752L397.621 486.184C395.989 486.392 394.853 487.04 394.213 488.128C393.573 489.216 393.237 491.008 393.205 493.504H393.277C394.269 491.536 395.941 490.552 398.293 490.552C399.941 490.552 401.277 491.112 402.301 492.232C403.325 493.352 403.837 494.752 403.837 496.432C403.837 498.128 403.285 499.536 402.181 500.656C401.077 501.76 399.661 502.312 397.933 502.312ZM394.669 499.84C395.501 500.736 396.589 501.184 397.933 501.184C399.277 501.184 400.365 500.736 401.197 499.84C402.045 498.944 402.469 497.816 402.469 496.456C402.469 495.08 402.061 493.936 401.245 493.024C400.429 492.112 399.349 491.656 398.005 491.656C396.677 491.656 395.581 492.12 394.717 493.048C393.869 493.96 393.445 495.096 393.445 496.456C393.445 497.816 393.853 498.944 394.669 499.84ZM408.786 499.84V507.76H407.49V490.816H408.786V493.048H408.858C409.322 492.216 409.946 491.592 410.73 491.176C411.53 490.744 412.386 490.528 413.298 490.528C414.994 490.528 416.37 491.088 417.426 492.208C418.498 493.312 419.034 494.712 419.034 496.408C419.034 498.104 418.506 499.512 417.45 500.632C416.41 501.752 415.042 502.312 413.346 502.312C412.418 502.312 411.546 502.104 410.73 501.688C409.914 501.256 409.29 500.64 408.858 499.84H408.786ZM416.418 499.816C417.234 498.904 417.642 497.768 417.642 496.408C417.642 495.048 417.234 493.912 416.418 493C415.618 492.072 414.538 491.608 413.178 491.608C411.882 491.608 410.802 492.072 409.938 493C409.09 493.912 408.666 495.048 408.666 496.408C408.666 497.768 409.09 498.904 409.938 499.816C410.802 500.728 411.882 501.184 413.178 501.184C414.538 501.184 415.618 500.728 416.418 499.816ZM423.158 495.64H431.318C431.27 494.44 430.886 493.472 430.166 492.736C429.462 491.984 428.51 491.608 427.31 491.608C426.126 491.608 425.15 492.032 424.382 492.88C423.614 493.712 423.206 494.632 423.158 495.64ZM427.454 502.312C425.822 502.312 424.47 501.752 423.398 500.632C422.326 499.512 421.79 498.096 421.79 496.384C421.79 494.704 422.318 493.312 423.374 492.208C424.446 491.088 425.766 490.528 427.334 490.528C429.014 490.528 430.31 491.056 431.222 492.112C432.15 493.152 432.614 494.448 432.614 496V496.672H423.134C423.166 497.904 423.582 498.968 424.382 499.864C425.182 500.744 426.222 501.184 427.502 501.184C428.99 501.184 430.27 500.552 431.342 499.288L432.206 499.984C431.006 501.536 429.422 502.312 427.454 502.312ZM436.272 502V490.816H437.592V495.64H444.456V490.816H445.752V502H444.456V496.744H437.592V502H436.272ZM448.631 505.672V500.872H449.951C450.495 500.184 450.943 499.232 451.295 498.016C451.647 496.8 451.823 495.408 451.823 493.84V490.816H459.719V500.872H461.543V505.672H460.319V502H449.855V505.672H448.631ZM451.439 500.872H458.447V491.92H453.095V494.176C453.095 496.816 452.543 499.048 451.439 500.872ZM90.6 534.672V529.872H91.92C92.464 529.184 92.912 528.232 93.264 527.016C93.616 525.8 93.792 524.408 93.792 522.84V519.816H101.688V529.872H103.512V534.672H102.288V531H91.824V534.672H90.6ZM93.408 529.872H100.416V520.92H95.064V523.176C95.064 525.816 94.512 528.048 93.408 529.872ZM111.663 531.312C109.951 531.312 108.535 530.752 107.415 529.632C106.311 528.512 105.759 527.104 105.759 525.408C105.759 523.696 106.311 522.288 107.415 521.184C108.519 520.08 109.935 519.528 111.663 519.528C113.391 519.528 114.807 520.08 115.911 521.184C117.031 522.288 117.591 523.696 117.591 525.408C117.591 527.104 117.031 528.512 115.911 529.632C114.807 530.752 113.391 531.312 111.663 531.312ZM111.663 530.184C113.039 530.184 114.143 529.728 114.975 528.816C115.807 527.904 116.223 526.768 116.223 525.408C116.223 524.048 115.807 522.912 114.975 522C114.143 521.072 113.039 520.608 111.663 520.608C110.303 520.608 109.207 521.072 108.375 522C107.543 522.912 107.127 524.048 107.127 525.408C107.127 526.768 107.543 527.904 108.375 528.816C109.207 529.728 110.303 530.184 111.663 530.184ZM122.544 528.84V536.76H121.248V519.816H122.544V522.048H122.616C123.08 521.216 123.704 520.592 124.488 520.176C125.288 519.744 126.144 519.528 127.056 519.528C128.752 519.528 130.128 520.088 131.184 521.208C132.256 522.312 132.792 523.712 132.792 525.408C132.792 527.104 132.264 528.512 131.208 529.632C130.168 530.752 128.8 531.312 127.104 531.312C126.176 531.312 125.304 531.104 124.488 530.688C123.672 530.256 123.048 529.64 122.616 528.84H122.544ZM130.176 528.816C130.992 527.904 131.4 526.768 131.4 525.408C131.4 524.048 130.992 522.912 130.176 522C129.376 521.072 128.296 520.608 126.936 520.608C125.64 520.608 124.56 521.072 123.696 522C122.848 522.912 122.424 524.048 122.424 525.408C122.424 526.768 122.848 527.904 123.696 528.816C124.56 529.728 125.64 530.184 126.936 530.184C128.296 530.184 129.376 529.728 130.176 528.816ZM141.452 531.312C139.74 531.312 138.324 530.752 137.204 529.632C136.1 528.512 135.548 527.104 135.548 525.408C135.548 523.696 136.1 522.288 137.204 521.184C138.308 520.08 139.724 519.528 141.452 519.528C143.18 519.528 144.596 520.08 145.7 521.184C146.82 522.288 147.38 523.696 147.38 525.408C147.38 527.104 146.82 528.512 145.7 529.632C144.596 530.752 143.18 531.312 141.452 531.312ZM141.452 530.184C142.828 530.184 143.932 529.728 144.764 528.816C145.596 527.904 146.012 526.768 146.012 525.408C146.012 524.048 145.596 522.912 144.764 522C143.932 521.072 142.828 520.608 141.452 520.608C140.092 520.608 138.996 521.072 138.164 522C137.332 522.912 136.916 524.048 136.916 525.408C136.916 526.768 137.332 527.904 138.164 528.816C138.996 529.728 140.092 530.184 141.452 530.184ZM151.037 531V519.816H158.309V520.92H152.357V531H151.037ZM165.851 531.312C164.139 531.312 162.723 530.752 161.603 529.632C160.499 528.512 159.947 527.104 159.947 525.408C159.947 523.696 160.499 522.288 161.603 521.184C162.707 520.08 164.123 519.528 165.851 519.528C167.579 519.528 168.995 520.08 170.099 521.184C171.219 522.288 171.779 523.696 171.779 525.408C171.779 527.104 171.219 528.512 170.099 529.632C168.995 530.752 167.579 531.312 165.851 531.312ZM165.851 530.184C167.227 530.184 168.331 529.728 169.163 528.816C169.995 527.904 170.411 526.768 170.411 525.408C170.411 524.048 169.995 522.912 169.163 522C168.331 521.072 167.227 520.608 165.851 520.608C164.491 520.608 163.395 521.072 162.563 522C161.731 522.912 161.315 524.048 161.315 525.408C161.315 526.768 161.731 527.904 162.563 528.816C163.395 529.728 164.491 530.184 165.851 530.184ZM181.484 531V519.816H182.78V525.096H182.852L188.3 519.816H190.172L184.34 525.144L190.772 531H188.852L182.852 525.312H182.78V531H181.484ZM197.96 531.312C196.248 531.312 194.832 530.752 193.712 529.632C192.608 528.512 192.056 527.104 192.056 525.408C192.056 523.696 192.608 522.288 193.712 521.184C194.816 520.08 196.232 519.528 197.96 519.528C199.688 519.528 201.104 520.08 202.208 521.184C203.328 522.288 203.888 523.696 203.888 525.408C203.888 527.104 203.328 528.512 202.208 529.632C201.104 530.752 199.688 531.312 197.96 531.312ZM197.96 530.184C199.336 530.184 200.44 529.728 201.272 528.816C202.104 527.904 202.52 526.768 202.52 525.408C202.52 524.048 202.104 522.912 201.272 522C200.44 521.072 199.336 520.608 197.96 520.608C196.6 520.608 195.504 521.072 194.672 522C193.84 522.912 193.424 524.048 193.424 525.408C193.424 526.768 193.84 527.904 194.672 528.816C195.504 529.728 196.6 530.184 197.96 530.184ZM207.545 531V519.816H208.865V529.872H214.769V519.816H216.065V529.872H221.969V519.816H223.265V531H207.545ZM230.148 531V520.92H226.02V519.816H235.572V520.92H231.444V531H230.148ZM238.125 536.784C237.725 536.784 237.285 536.728 236.805 536.616L236.973 535.44C237.309 535.568 237.677 535.632 238.077 535.632C238.621 535.632 239.053 535.456 239.373 535.104C239.709 534.768 240.005 534.264 240.261 533.592L241.221 531.072L236.541 519.816H238.005L241.893 529.656L245.541 519.816H246.957L241.389 534.12C241.037 535 240.613 535.664 240.117 536.112C239.621 536.56 238.957 536.784 238.125 536.784ZM254.655 531.312C252.911 531.312 251.495 530.768 250.407 529.68C249.319 528.576 248.775 527.152 248.775 525.408C248.775 523.664 249.311 522.248 250.383 521.16C251.455 520.072 252.871 519.528 254.631 519.528C256.391 519.528 257.751 520.096 258.711 521.232L257.823 522.048C256.943 521.072 255.879 520.584 254.631 520.584C253.415 520.584 252.407 520.96 251.607 521.712C250.807 522.464 250.327 523.44 250.167 524.64H255.999V525.744H250.119C250.183 527.024 250.623 528.096 251.439 528.96C252.271 529.808 253.343 530.232 254.655 530.232C255.951 530.232 257.023 529.752 257.871 528.792L258.807 529.56C257.799 530.728 256.415 531.312 254.655 531.312ZM263.417 530.04C263.417 530.344 263.313 530.608 263.105 530.832C262.897 531.04 262.641 531.144 262.337 531.144C262.033 531.144 261.777 531.04 261.569 530.832C261.361 530.608 261.257 530.344 261.257 530.04C261.257 529.752 261.361 529.504 261.569 529.296C261.777 529.072 262.033 528.96 262.337 528.96C262.641 528.96 262.897 529.072 263.105 529.296C263.313 529.504 263.417 529.752 263.417 530.04ZM276.704 531V515.232H270.992V514.008H283.784V515.232H278.072V531H276.704ZM289.109 531.312C287.397 531.312 285.981 530.752 284.861 529.632C283.757 528.512 283.205 527.104 283.205 525.408C283.205 523.696 283.757 522.288 284.861 521.184C285.965 520.08 287.381 519.528 289.109 519.528C290.837 519.528 292.253 520.08 293.357 521.184C294.477 522.288 295.036 523.696 295.036 525.408C295.036 527.104 294.477 528.512 293.357 529.632C292.253 530.752 290.837 531.312 289.109 531.312ZM289.109 530.184C290.485 530.184 291.589 529.728 292.421 528.816C293.253 527.904 293.669 526.768 293.669 525.408C293.669 524.048 293.253 522.912 292.421 522C291.589 521.072 290.485 520.608 289.109 520.608C287.749 520.608 286.653 521.072 285.821 522C284.989 522.912 284.573 524.048 284.573 525.408C284.573 526.768 284.989 527.904 285.821 528.816C286.653 529.728 287.749 530.184 289.109 530.184ZM298.694 531V519.816H300.638L305.078 529.08L309.542 519.816H311.438V531H310.142V521.328H310.094L305.414 531H304.718L300.014 521.328V531H298.694ZM315.727 536.784C315.327 536.784 314.887 536.728 314.407 536.616L314.575 535.44C314.911 535.568 315.279 535.632 315.679 535.632C316.223 535.632 316.655 535.456 316.975 535.104C317.311 534.768 317.607 534.264 317.863 533.592L318.823 531.072L314.143 519.816H315.607L319.495 529.656L323.143 519.816H324.559L318.991 534.12C318.639 535 318.215 535.664 317.719 536.112C317.223 536.56 316.559 536.784 315.727 536.784ZM333.24 531V519.816H335.184L339.624 529.08L344.088 519.816H345.984V531H344.688V521.328H344.64L339.96 531H339.264L334.56 521.328V531H333.24ZM351.018 524.64H359.178C359.13 523.44 358.746 522.472 358.026 521.736C357.322 520.984 356.37 520.608 355.17 520.608C353.986 520.608 353.01 521.032 352.242 521.88C351.474 522.712 351.066 523.632 351.018 524.64ZM355.314 531.312C353.682 531.312 352.33 530.752 351.258 529.632C350.186 528.512 349.65 527.096 349.65 525.384C349.65 523.704 350.178 522.312 351.234 521.208C352.306 520.088 353.626 519.528 355.194 519.528C356.874 519.528 358.17 520.056 359.082 521.112C360.01 522.152 360.474 523.448 360.474 525V525.672H350.994C351.026 526.904 351.442 527.968 352.242 528.864C353.042 529.744 354.082 530.184 355.362 530.184C356.85 530.184 358.13 529.552 359.202 528.288L360.066 528.984C358.866 530.536 357.282 531.312 355.314 531.312ZM364.131 531V519.816H365.451V524.64H372.315V519.816H373.611V531H372.315V525.744H365.451V531H364.131ZM378.147 531V519.816H379.467V531H378.147ZM379.467 516.072C379.275 516.264 379.051 516.36 378.795 516.36C378.539 516.36 378.315 516.264 378.123 516.072C377.931 515.88 377.835 515.648 377.835 515.376C377.835 515.104 377.931 514.872 378.123 514.68C378.315 514.488 378.539 514.392 378.795 514.392C379.051 514.392 379.275 514.488 379.467 514.68C379.675 514.872 379.779 515.104 379.779 515.376C379.779 515.648 379.675 515.88 379.467 516.072ZM389.983 531V519.816H399.295V531H397.999V520.92H391.303V531H389.983ZM408.874 531.312C407.162 531.312 405.746 530.752 404.626 529.632C403.522 528.512 402.97 527.104 402.97 525.408C402.97 523.696 403.522 522.288 404.626 521.184C405.73 520.08 407.146 519.528 408.874 519.528C410.602 519.528 412.018 520.08 413.122 521.184C414.242 522.288 414.802 523.696 414.802 525.408C414.802 527.104 414.242 528.512 413.122 529.632C412.018 530.752 410.602 531.312 408.874 531.312ZM408.874 530.184C410.25 530.184 411.354 529.728 412.186 528.816C413.018 527.904 413.434 526.768 413.434 525.408C413.434 524.048 413.018 522.912 412.186 522C411.354 521.072 410.25 520.608 408.874 520.608C407.514 520.608 406.418 521.072 405.586 522C404.754 522.912 404.338 524.048 404.338 525.408C404.338 526.768 404.754 527.904 405.586 528.816C406.418 529.728 407.514 530.184 408.874 530.184ZM420.554 531V520.92H416.426V519.816H425.978V520.92H421.85V531H420.554ZM430.068 528.84V536.76H428.772V519.816H430.068V522.048H430.14C430.604 521.216 431.228 520.592 432.012 520.176C432.812 519.744 433.668 519.528 434.58 519.528C436.276 519.528 437.652 520.088 438.708 521.208C439.78 522.312 440.316 523.712 440.316 525.408C440.316 527.104 439.788 528.512 438.732 529.632C437.692 530.752 436.324 531.312 434.628 531.312C433.7 531.312 432.828 531.104 432.012 530.688C431.196 530.256 430.572 529.64 430.14 528.84H430.068ZM437.7 528.816C438.516 527.904 438.924 526.768 438.924 525.408C438.924 524.048 438.516 522.912 437.7 522C436.9 521.072 435.82 520.608 434.46 520.608C433.164 520.608 432.084 521.072 431.22 522C430.372 522.912 429.948 524.048 429.948 525.408C429.948 526.768 430.372 527.904 431.22 528.816C432.084 529.728 433.164 530.184 434.46 530.184C435.82 530.184 436.9 529.728 437.7 528.816ZM443.936 531V519.816H445.256V531H443.936ZM445.256 516.072C445.064 516.264 444.84 516.36 444.584 516.36C444.328 516.36 444.104 516.264 443.912 516.072C443.72 515.88 443.624 515.648 443.624 515.376C443.624 515.104 443.72 514.872 443.912 514.68C444.104 514.488 444.328 514.392 444.584 514.392C444.84 514.392 445.064 514.488 445.256 514.68C445.464 514.872 445.568 515.104 445.568 515.376C445.568 515.648 445.464 515.88 445.256 516.072ZM454.98 531.312C453.028 531.312 451.556 530.664 450.564 529.368C449.62 528.296 449.148 526.568 449.148 524.184C449.148 523.176 449.164 522.312 449.196 521.592C449.244 520.856 449.324 520.096 449.436 519.312C449.548 518.528 449.716 517.864 449.94 517.32C450.18 516.776 450.476 516.272 450.828 515.808C451.18 515.328 451.628 514.952 452.172 514.68C452.732 514.408 453.38 514.224 454.116 514.128L457.716 513.696C458.852 513.552 459.516 513.184 459.708 512.592L460.644 512.88C460.372 513.952 459.524 514.576 458.1 514.752L454.668 515.184C453.036 515.392 451.9 516.04 451.26 517.128C450.62 518.216 450.284 520.008 450.252 522.504H450.324C451.316 520.536 452.988 519.552 455.34 519.552C456.988 519.552 458.324 520.112 459.348 521.232C460.372 522.352 460.884 523.752 460.884 525.432C460.884 527.128 460.332 528.536 459.228 529.656C458.124 530.76 456.708 531.312 454.98 531.312ZM451.716 528.84C452.548 529.736 453.636 530.184 454.98 530.184C456.324 530.184 457.412 529.736 458.244 528.84C459.092 527.944 459.516 526.816 459.516 525.456C459.516 524.08 459.108 522.936 458.292 522.024C457.476 521.112 456.396 520.656 455.052 520.656C453.724 520.656 452.628 521.12 451.764 522.048C450.916 522.96 450.492 524.096 450.492 525.456C450.492 526.816 450.9 527.944 451.716 528.84ZM465.041 524.64H473.201C473.153 523.44 472.769 522.472 472.049 521.736C471.345 520.984 470.393 520.608 469.193 520.608C468.009 520.608 467.033 521.032 466.265 521.88C465.497 522.712 465.089 523.632 465.041 524.64ZM469.337 531.312C467.705 531.312 466.353 530.752 465.281 529.632C464.209 528.512 463.673 527.096 463.673 525.384C463.673 523.704 464.201 522.312 465.257 521.208C466.329 520.088 467.649 519.528 469.217 519.528C470.897 519.528 472.193 520.056 473.105 521.112C474.033 522.152 474.497 523.448 474.497 525V525.672H465.017C465.049 526.904 465.465 527.968 466.265 528.864C467.065 529.744 468.105 530.184 469.385 530.184C470.873 530.184 472.153 529.552 473.225 528.288L474.089 528.984C472.889 530.536 471.305 531.312 469.337 531.312ZM478.154 531V519.816H479.474V524.64H486.338V519.816H487.634V531H486.338V525.744H479.474V531H478.154ZM95.232 561.312C94.24 561.312 93.352 561.032 92.568 560.472C91.784 559.912 91.392 559.08 91.392 557.976C91.392 557.336 91.528 556.784 91.8 556.32C92.088 555.856 92.448 555.496 92.88 555.24C93.312 554.968 93.848 554.76 94.488 554.616C95.144 554.456 95.776 554.352 96.384 554.304C96.992 554.256 97.688 554.232 98.472 554.232H99.312V553.728C99.312 551.648 98.256 550.608 96.144 550.608C94.832 550.608 93.72 551.048 92.808 551.928L92.088 551.064C93.144 550.04 94.536 549.528 96.264 549.528C97.56 549.528 98.6 549.872 99.384 550.56C100.168 551.248 100.56 552.256 100.56 553.584V558.48C100.56 559.488 100.624 560.328 100.752 561H99.576C99.448 560.232 99.384 559.544 99.384 558.936H99.336C98.456 560.52 97.088 561.312 95.232 561.312ZM95.544 560.232C96.76 560.232 97.688 559.84 98.328 559.056C98.984 558.256 99.312 557.296 99.312 556.176V555.264H98.472C94.648 555.264 92.736 556.144 92.736 557.904C92.736 558.704 93.008 559.296 93.552 559.68C94.112 560.048 94.776 560.232 95.544 560.232ZM104.912 561V549.816H106.232V554.64H113.096V549.816H114.392V561H113.096V555.744H106.232V561H104.912ZM121.904 561.312C120.912 561.312 120.024 561.032 119.24 560.472C118.456 559.912 118.064 559.08 118.064 557.976C118.064 557.336 118.2 556.784 118.472 556.32C118.76 555.856 119.12 555.496 119.552 555.24C119.984 554.968 120.52 554.76 121.16 554.616C121.816 554.456 122.448 554.352 123.056 554.304C123.664 554.256 124.36 554.232 125.144 554.232H125.984V553.728C125.984 551.648 124.928 550.608 122.816 550.608C121.504 550.608 120.392 551.048 119.48 551.928L118.76 551.064C119.816 550.04 121.208 549.528 122.936 549.528C124.232 549.528 125.272 549.872 126.056 550.56C126.84 551.248 127.232 552.256 127.232 553.584V558.48C127.232 559.488 127.296 560.328 127.424 561H126.248C126.12 560.232 126.056 559.544 126.056 558.936H126.008C125.128 560.52 123.76 561.312 121.904 561.312ZM122.216 560.232C123.432 560.232 124.36 559.84 125 559.056C125.656 558.256 125.984 557.296 125.984 556.176V555.264H125.144C121.32 555.264 119.408 556.144 119.408 557.904C119.408 558.704 119.68 559.296 120.224 559.68C120.784 560.048 121.448 560.232 122.216 560.232ZM130.72 561.12C130.304 561.12 129.936 561.072 129.616 560.976L129.784 559.848C129.992 559.928 130.24 559.968 130.528 559.968C131.472 559.968 132.16 559.464 132.592 558.456C133.04 557.432 133.264 555.848 133.264 553.704V549.816H141.016V561H139.72V550.92H134.536V554.112C134.536 558.784 133.264 561.12 130.72 561.12ZM150.569 561.312C148.857 561.312 147.441 560.752 146.321 559.632C145.217 558.512 144.665 557.104 144.665 555.408C144.665 553.696 145.217 552.288 146.321 551.184C147.425 550.08 148.841 549.528 150.569 549.528C152.297 549.528 153.713 550.08 154.817 551.184C155.937 552.288 156.497 553.696 156.497 555.408C156.497 557.104 155.937 558.512 154.817 559.632C153.713 560.752 152.297 561.312 150.569 561.312ZM150.569 560.184C151.945 560.184 153.049 559.728 153.881 558.816C154.713 557.904 155.129 556.768 155.129 555.408C155.129 554.048 154.713 552.912 153.881 552C153.049 551.072 151.945 550.608 150.569 550.608C149.209 550.608 148.113 551.072 147.281 552C146.449 552.912 146.033 554.048 146.033 555.408C146.033 556.768 146.449 557.904 147.281 558.816C148.113 559.728 149.209 560.184 150.569 560.184ZM160.154 561V549.816H167.426V550.92H161.474V561H160.154ZM179.353 561.312C177.353 561.312 175.865 560.624 174.889 559.248L175.849 558.48C176.665 559.616 177.825 560.184 179.329 560.184C180.177 560.184 180.889 559.992 181.465 559.608C182.041 559.224 182.329 558.64 182.329 557.856C182.329 557.152 182.017 556.616 181.393 556.248C180.769 555.88 179.977 555.696 179.017 555.696H178.081V554.64H178.921C179.817 554.64 180.553 554.456 181.129 554.088C181.705 553.704 181.993 553.168 181.993 552.48C181.993 551.856 181.737 551.392 181.225 551.088C180.729 550.768 180.065 550.608 179.233 550.608C178.641 550.608 178.073 550.744 177.529 551.016C177.001 551.288 176.585 551.664 176.281 552.144L175.273 551.424C175.641 550.816 176.177 550.352 176.881 550.032C177.601 549.696 178.401 549.528 179.281 549.528C180.481 549.528 181.449 549.784 182.185 550.296C182.921 550.808 183.289 551.536 183.289 552.48C183.289 553.136 183.065 553.704 182.617 554.184C182.185 554.648 181.617 554.952 180.913 555.096V555.144C181.729 555.256 182.385 555.56 182.881 556.056C183.377 556.552 183.625 557.168 183.625 557.904C183.625 558.96 183.225 559.792 182.425 560.4C181.641 561.008 180.617 561.312 179.353 561.312ZM191.566 561L195.958 555.192L191.902 549.816H193.582L196.774 554.28L199.966 549.816H201.55L197.542 555.144L202.006 561H200.302L196.75 556.08L193.126 561H191.566ZM209.609 561.312C207.897 561.312 206.481 560.752 205.361 559.632C204.257 558.512 203.705 557.104 203.705 555.408C203.705 553.696 204.257 552.288 205.361 551.184C206.465 550.08 207.881 549.528 209.609 549.528C211.337 549.528 212.753 550.08 213.857 551.184C214.977 552.288 215.536 553.696 215.536 555.408C215.536 557.104 214.977 558.512 213.857 559.632C212.753 560.752 211.337 561.312 209.609 561.312ZM209.609 560.184C210.985 560.184 212.089 559.728 212.921 558.816C213.753 557.904 214.169 556.768 214.169 555.408C214.169 554.048 213.753 552.912 212.921 552C212.089 551.072 210.985 550.608 209.609 550.608C208.249 550.608 207.153 551.072 206.321 552C205.489 552.912 205.073 554.048 205.073 555.408C205.073 556.768 205.489 557.904 206.321 558.816C207.153 559.728 208.249 560.184 209.609 560.184ZM220.49 558.84V566.76H219.194V549.816H220.49V552.048H220.562C221.026 551.216 221.65 550.592 222.434 550.176C223.234 549.744 224.09 549.528 225.002 549.528C226.698 549.528 228.074 550.088 229.13 551.208C230.202 552.312 230.738 553.712 230.738 555.408C230.738 557.104 230.21 558.512 229.154 559.632C228.114 560.752 226.746 561.312 225.05 561.312C224.122 561.312 223.25 561.104 222.434 560.688C221.618 560.256 220.994 559.64 220.562 558.84H220.49ZM228.122 558.816C228.938 557.904 229.346 556.768 229.346 555.408C229.346 554.048 228.938 552.912 228.122 552C227.322 551.072 226.242 550.608 224.882 550.608C223.586 550.608 222.506 551.072 221.642 552C220.794 552.912 220.37 554.048 220.37 555.408C220.37 556.768 220.794 557.904 221.642 558.816C222.506 559.728 223.586 560.184 224.882 560.184C226.242 560.184 227.322 559.728 228.122 558.816ZM239.398 561.312C237.686 561.312 236.27 560.752 235.15 559.632C234.046 558.512 233.494 557.104 233.494 555.408C233.494 553.696 234.046 552.288 235.15 551.184C236.254 550.08 237.67 549.528 239.398 549.528C241.126 549.528 242.542 550.08 243.646 551.184C244.766 552.288 245.326 553.696 245.326 555.408C245.326 557.104 244.766 558.512 243.646 559.632C242.542 560.752 241.126 561.312 239.398 561.312ZM239.398 560.184C240.774 560.184 241.878 559.728 242.71 558.816C243.542 557.904 243.958 556.768 243.958 555.408C243.958 554.048 243.542 552.912 242.71 552C241.878 551.072 240.774 550.608 239.398 550.608C238.038 550.608 236.942 551.072 236.11 552C235.278 552.912 234.862 554.048 234.862 555.408C234.862 556.768 235.278 557.904 236.11 558.816C236.942 559.728 238.038 560.184 239.398 560.184ZM248.983 561V549.816H250.303V559.872H256.207V549.816H257.503V559.872H263.407V549.816H264.703V561H248.983ZM274.249 561.312C272.537 561.312 271.121 560.752 270.001 559.632C268.897 558.512 268.345 557.104 268.345 555.408C268.345 553.696 268.897 552.288 270.001 551.184C271.105 550.08 272.521 549.528 274.249 549.528C275.977 549.528 277.393 550.08 278.497 551.184C279.617 552.288 280.177 553.696 280.177 555.408C280.177 557.104 279.617 558.512 278.497 559.632C277.393 560.752 275.977 561.312 274.249 561.312ZM274.249 560.184C275.625 560.184 276.729 559.728 277.561 558.816C278.393 557.904 278.809 556.768 278.809 555.408C278.809 554.048 278.393 552.912 277.561 552C276.729 551.072 275.625 550.608 274.249 550.608C272.889 550.608 271.793 551.072 270.961 552C270.129 552.912 269.713 554.048 269.713 555.408C269.713 556.768 270.129 557.904 270.961 558.816C271.793 559.728 272.889 560.184 274.249 560.184ZM283.834 561V549.816H285.154V554.64H287.866C288.042 553.152 288.642 551.928 289.666 550.968C290.706 550.008 291.994 549.528 293.53 549.528C295.21 549.528 296.578 550.088 297.634 551.208C298.69 552.328 299.218 553.736 299.218 555.432C299.218 557.128 298.682 558.536 297.61 559.656C296.554 560.776 295.194 561.336 293.53 561.336C291.914 561.336 290.578 560.808 289.522 559.752C288.482 558.696 287.922 557.368 287.842 555.768L285.154 555.744V561H283.834ZM293.53 560.232C294.826 560.232 295.866 559.776 296.65 558.864C297.45 557.936 297.85 556.792 297.85 555.432C297.85 554.072 297.45 552.936 296.65 552.024C295.866 551.096 294.826 550.632 293.53 550.632C292.218 550.632 291.17 551.088 290.386 552C289.602 552.912 289.21 554.056 289.21 555.432C289.21 556.808 289.602 557.952 290.386 558.864C291.17 559.776 292.218 560.232 293.53 560.232ZM309.369 554.64H317.529C317.481 553.44 317.097 552.472 316.377 551.736C315.673 550.984 314.721 550.608 313.521 550.608C312.337 550.608 311.361 551.032 310.593 551.88C309.825 552.712 309.417 553.632 309.369 554.64ZM313.665 561.312C312.033 561.312 310.681 560.752 309.609 559.632C308.537 558.512 308.001 557.096 308.001 555.384C308.001 553.704 308.529 552.312 309.585 551.208C310.657 550.088 311.977 549.528 313.545 549.528C315.225 549.528 316.521 550.056 317.433 551.112C318.361 552.152 318.825 553.448 318.825 555V555.672H309.345C309.377 556.904 309.793 557.968 310.593 558.864C311.393 559.744 312.433 560.184 313.713 560.184C315.201 560.184 316.481 559.552 317.553 558.288L318.417 558.984C317.217 560.536 315.633 561.312 313.665 561.312ZM327.979 566.76V561.312C325.963 561.28 324.379 560.752 323.227 559.728C322.075 558.688 321.499 557.256 321.499 555.432C321.499 553.624 322.075 552.2 323.227 551.16C324.379 550.104 325.963 549.568 327.979 549.552V542.736H329.299V549.552C331.315 549.568 332.899 550.104 334.051 551.16C335.203 552.2 335.779 553.624 335.779 555.432C335.779 557.256 335.203 558.688 334.051 559.728C332.899 560.752 331.315 561.28 329.299 561.312V566.76H327.979ZM327.979 560.184V550.656C326.363 550.688 325.107 551.12 324.211 551.952C323.315 552.768 322.867 553.92 322.867 555.408C322.867 556.944 323.307 558.128 324.187 558.96C325.083 559.776 326.347 560.184 327.979 560.184ZM329.299 560.184C330.931 560.184 332.187 559.776 333.067 558.96C333.963 558.128 334.411 556.944 334.411 555.408C334.411 553.92 333.963 552.76 333.067 551.928C332.187 551.096 330.931 550.672 329.299 550.656V560.184ZM339.815 554.64H347.975C347.927 553.44 347.543 552.472 346.823 551.736C346.119 550.984 345.167 550.608 343.967 550.608C342.783 550.608 341.807 551.032 341.039 551.88C340.271 552.712 339.863 553.632 339.815 554.64ZM344.111 561.312C342.479 561.312 341.127 560.752 340.055 559.632C338.983 558.512 338.447 557.096 338.447 555.384C338.447 553.704 338.975 552.312 340.031 551.208C341.103 550.088 342.423 549.528 343.991 549.528C345.671 549.528 346.967 550.056 347.879 551.112C348.807 552.152 349.271 553.448 349.271 555V555.672H339.791C339.823 556.904 340.239 557.968 341.039 558.864C341.839 559.744 342.879 560.184 344.159 560.184C345.647 560.184 346.927 559.552 347.999 558.288L348.863 558.984C347.663 560.536 346.079 561.312 344.111 561.312ZM352.976 561V549.816H354.272V555.096H354.344L359.792 549.816H361.664L355.832 555.144L362.264 561H360.344L354.344 555.312H354.272V561H352.976ZM367.21 561V550.92H363.082V549.816H372.634V550.92H368.506V561H367.21ZM375.428 561V549.816H376.748V559.176L383.78 549.816H385.196V561H383.924V551.568H383.876L376.844 561H375.428ZM389.725 561V549.816H394.741C395.733 549.816 396.573 550.032 397.261 550.464C397.949 550.896 398.293 551.616 398.293 552.624C398.293 553.248 398.101 553.776 397.717 554.208C397.333 554.64 396.845 554.928 396.253 555.072V555.096C396.989 555.192 397.605 555.488 398.101 555.984C398.597 556.464 398.845 557.112 398.845 557.928C398.845 558.904 398.477 559.664 397.741 560.208C397.005 560.736 396.045 561 394.861 561H389.725ZM391.045 559.872H394.669C395.517 559.872 396.197 559.704 396.709 559.368C397.237 559.032 397.501 558.52 397.501 557.832C397.501 557.128 397.253 556.6 396.757 556.248C396.261 555.896 395.621 555.72 394.837 555.72H391.045V559.872ZM391.045 554.64H394.693C395.317 554.64 395.861 554.488 396.325 554.184C396.789 553.864 397.021 553.392 397.021 552.768C397.021 552.128 396.781 551.664 396.301 551.376C395.837 551.072 395.229 550.92 394.477 550.92H391.045V554.64ZM402.498 561V549.816H403.818V554.64H410.682V549.816H411.978V561H410.682V555.744H403.818V561H402.498ZM416.514 561V549.816H417.834V561H416.514ZM417.834 546.072C417.642 546.264 417.418 546.36 417.162 546.36C416.906 546.36 416.682 546.264 416.49 546.072C416.298 545.88 416.202 545.648 416.202 545.376C416.202 545.104 416.298 544.872 416.49 544.68C416.682 544.488 416.906 544.392 417.162 544.392C417.418 544.392 417.642 544.488 417.834 544.68C418.042 544.872 418.146 545.104 418.146 545.376C418.146 545.648 418.042 545.88 417.834 546.072ZM431.278 551.28L430.414 552.072C430.078 551.64 429.63 551.296 429.07 551.04C428.51 550.784 427.926 550.656 427.318 550.656C425.99 550.656 424.91 551.112 424.078 552.024C423.262 552.92 422.854 554.048 422.854 555.408C422.854 556.768 423.262 557.896 424.078 558.792C424.894 559.688 425.958 560.136 427.27 560.136C428.582 560.136 429.67 559.688 430.534 558.792L431.35 559.536C430.326 560.72 428.966 561.312 427.27 561.312C425.542 561.312 424.15 560.76 423.094 559.656C422.038 558.552 421.51 557.136 421.51 555.408C421.51 553.696 422.046 552.288 423.118 551.184C424.206 550.08 425.598 549.528 427.294 549.528C429.022 549.528 430.35 550.112 431.278 551.28ZM437.007 561V550.92H432.879V549.816H442.431V550.92H438.303V561H437.007ZM445.225 561V549.816H446.545V554.64H449.257C449.433 553.152 450.033 551.928 451.057 550.968C452.097 550.008 453.385 549.528 454.921 549.528C456.601 549.528 457.969 550.088 459.025 551.208C460.081 552.328 460.609 553.736 460.609 555.432C460.609 557.128 460.073 558.536 459.001 559.656C457.945 560.776 456.585 561.336 454.921 561.336C453.305 561.336 451.969 560.808 450.913 559.752C449.873 558.696 449.313 557.368 449.233 555.768L446.545 555.744V561H445.225ZM454.921 560.232C456.217 560.232 457.257 559.776 458.041 558.864C458.841 557.936 459.241 556.792 459.241 555.432C459.241 554.072 458.841 552.936 458.041 552.024C457.257 551.096 456.217 550.632 454.921 550.632C453.609 550.632 452.561 551.088 451.777 552C450.993 552.912 450.601 554.056 450.601 555.432C450.601 556.808 450.993 557.952 451.777 558.864C452.561 559.776 453.609 560.232 454.921 560.232ZM472.632 561V550.92H468.504V549.816H478.056V550.92H473.928V561H472.632ZM483.826 561.312C482.834 561.312 481.946 561.032 481.162 560.472C480.378 559.912 479.986 559.08 479.986 557.976C479.986 557.336 480.122 556.784 480.394 556.32C480.682 555.856 481.042 555.496 481.474 555.24C481.906 554.968 482.442 554.76 483.082 554.616C483.738 554.456 484.37 554.352 484.978 554.304C485.586 554.256 486.282 554.232 487.066 554.232H487.906V553.728C487.906 551.648 486.85 550.608 484.738 550.608C483.426 550.608 482.314 551.048 481.402 551.928L480.682 551.064C481.738 550.04 483.13 549.528 484.858 549.528C486.154 549.528 487.194 549.872 487.978 550.56C488.762 551.248 489.154 552.256 489.154 553.584V558.48C489.154 559.488 489.218 560.328 489.346 561H488.17C488.042 560.232 487.978 559.544 487.978 558.936H487.93C487.05 560.52 485.682 561.312 483.826 561.312ZM484.138 560.232C485.354 560.232 486.282 559.84 486.922 559.056C487.578 558.256 487.906 557.296 487.906 556.176V555.264H487.066C483.242 555.264 481.33 556.144 481.33 557.904C481.33 558.704 481.602 559.296 482.146 559.68C482.706 560.048 483.37 560.232 484.138 560.232ZM92.256 590V578.816H101.568V590H100.272V579.92H93.576V590H92.256ZM107.404 587.84V595.76H106.108V578.816H107.404V581.048H107.476C107.94 580.216 108.564 579.592 109.348 579.176C110.148 578.744 111.004 578.528 111.916 578.528C113.612 578.528 114.988 579.088 116.044 580.208C117.116 581.312 117.652 582.712 117.652 584.408C117.652 586.104 117.124 587.512 116.068 588.632C115.028 589.752 113.66 590.312 111.964 590.312C111.036 590.312 110.164 590.104 109.348 589.688C108.532 589.256 107.908 588.64 107.476 587.84H107.404ZM115.036 587.816C115.852 586.904 116.26 585.768 116.26 584.408C116.26 583.048 115.852 581.912 115.036 581C114.236 580.072 113.156 579.608 111.796 579.608C110.5 579.608 109.42 580.072 108.556 581C107.708 581.912 107.284 583.048 107.284 584.408C107.284 585.768 107.708 586.904 108.556 587.816C109.42 588.728 110.5 589.184 111.796 589.184C113.156 589.184 114.236 588.728 115.036 587.816ZM121.272 590V578.816H122.592V588.176L129.624 578.816H131.04V590H129.768V580.568H129.72L122.688 590H121.272ZM140.585 590.312C138.841 590.312 137.425 589.768 136.337 588.68C135.249 587.576 134.705 586.152 134.705 584.408C134.705 582.664 135.241 581.248 136.312 580.16C137.385 579.072 138.801 578.528 140.561 578.528C142.321 578.528 143.681 579.096 144.641 580.232L143.753 581.048C142.873 580.072 141.809 579.584 140.561 579.584C139.345 579.584 138.337 579.96 137.537 580.712C136.737 581.464 136.257 582.44 136.097 583.64H141.929V584.744H136.049C136.113 586.024 136.553 587.096 137.369 587.96C138.201 588.808 139.273 589.232 140.585 589.232C141.881 589.232 142.953 588.752 143.801 587.792L144.737 588.56C143.729 589.728 142.345 590.312 140.585 590.312ZM147.475 590V578.816H149.419L153.859 588.08L158.323 578.816H160.219V590H158.923V580.328H158.875L154.195 590H153.499L148.795 580.328V590H147.475ZM164.748 590V578.816H166.068V583.64H172.932V578.816H174.228V590H172.932V584.744H166.068V590H164.748ZM183.804 590.312C182.092 590.312 180.676 589.752 179.556 588.632C178.452 587.512 177.9 586.104 177.9 584.408C177.9 582.696 178.452 581.288 179.556 580.184C180.66 579.08 182.076 578.528 183.804 578.528C185.532 578.528 186.948 579.08 188.052 580.184C189.172 581.288 189.732 582.696 189.732 584.408C189.732 586.104 189.172 587.512 188.052 588.632C186.948 589.752 185.532 590.312 183.804 590.312ZM183.804 589.184C185.18 589.184 186.284 588.728 187.116 587.816C187.948 586.904 188.364 585.768 188.364 584.408C188.364 583.048 187.948 581.912 187.116 581C186.284 580.072 185.18 579.608 183.804 579.608C182.444 579.608 181.348 580.072 180.516 581C179.684 581.912 179.268 583.048 179.268 584.408C179.268 585.768 179.684 586.904 180.516 587.816C181.348 588.728 182.444 589.184 183.804 589.184ZM193.389 590V578.816H194.709V583.64H197.421C197.597 582.152 198.197 580.928 199.221 579.968C200.261 579.008 201.549 578.528 203.085 578.528C204.765 578.528 206.133 579.088 207.189 580.208C208.245 581.328 208.773 582.736 208.773 584.432C208.773 586.128 208.237 587.536 207.165 588.656C206.109 589.776 204.749 590.336 203.085 590.336C201.469 590.336 200.133 589.808 199.077 588.752C198.037 587.696 197.477 586.368 197.397 584.768L194.709 584.744V590H193.389ZM203.085 589.232C204.381 589.232 205.421 588.776 206.205 587.864C207.005 586.936 207.405 585.792 207.405 584.432C207.405 583.072 207.005 581.936 206.205 581.024C205.421 580.096 204.381 579.632 203.085 579.632C201.773 579.632 200.725 580.088 199.941 581C199.157 581.912 198.765 583.056 198.765 584.432C198.765 585.808 199.157 586.952 199.941 587.864C200.725 588.776 201.773 589.232 203.085 589.232ZM228.332 593.672V590H218.42V578.816H219.74V588.872H226.436V578.816H227.732V588.872H229.556V593.672H228.332ZM232.67 590V578.816H233.99V590H232.67ZM233.99 575.072C233.798 575.264 233.574 575.36 233.318 575.36C233.062 575.36 232.838 575.264 232.646 575.072C232.454 574.88 232.358 574.648 232.358 574.376C232.358 574.104 232.454 573.872 232.646 573.68C232.838 573.488 233.062 573.392 233.318 573.392C233.574 573.392 233.798 573.488 233.99 573.68C234.198 573.872 234.302 574.104 234.302 574.376C234.302 574.648 234.198 574.88 233.99 575.072ZM238.506 590V578.816H239.826V583.64H246.69V578.816H247.986V590H246.69V584.744H239.826V590H238.506ZM257.562 590.312C255.85 590.312 254.434 589.752 253.314 588.632C252.21 587.512 251.658 586.104 251.658 584.408C251.658 582.696 252.21 581.288 253.314 580.184C254.418 579.08 255.834 578.528 257.562 578.528C259.29 578.528 260.706 579.08 261.81 580.184C262.93 581.288 263.49 582.696 263.49 584.408C263.49 586.104 262.93 587.512 261.81 588.632C260.706 589.752 259.29 590.312 257.562 590.312ZM257.562 589.184C258.938 589.184 260.042 588.728 260.874 587.816C261.706 586.904 262.122 585.768 262.122 584.408C262.122 583.048 261.706 581.912 260.874 581C260.042 580.072 258.938 579.608 257.562 579.608C256.202 579.608 255.106 580.072 254.274 581C253.442 581.912 253.026 583.048 253.026 584.408C253.026 585.768 253.442 586.904 254.274 587.816C255.106 588.728 256.202 589.184 257.562 589.184ZM267.147 590V578.816H268.467V583.64H271.179C271.355 582.152 271.955 580.928 272.979 579.968C274.019 579.008 275.307 578.528 276.843 578.528C278.523 578.528 279.891 579.088 280.947 580.208C282.003 581.328 282.531 582.736 282.531 584.432C282.531 586.128 281.995 587.536 280.923 588.656C279.867 589.776 278.507 590.336 276.843 590.336C275.227 590.336 273.891 589.808 272.835 588.752C271.795 587.696 271.235 586.368 271.155 584.768L268.467 584.744V590H267.147ZM276.843 589.232C278.139 589.232 279.179 588.776 279.963 587.864C280.763 586.936 281.163 585.792 281.163 584.432C281.163 583.072 280.763 581.936 279.963 581.024C279.179 580.096 278.139 579.632 276.843 579.632C275.531 579.632 274.483 580.088 273.699 581C272.915 581.912 272.523 583.056 272.523 584.432C272.523 585.808 272.915 586.952 273.699 587.864C274.483 588.776 275.531 589.232 276.843 589.232ZM288.05 589.04C288.05 589.344 287.946 589.608 287.738 589.832C287.53 590.04 287.274 590.144 286.97 590.144C286.666 590.144 286.41 590.04 286.202 589.832C285.994 589.608 285.89 589.344 285.89 589.04C285.89 588.752 285.994 588.504 286.202 588.296C286.41 588.072 286.666 587.96 286.97 587.96C287.274 587.96 287.53 588.072 287.738 588.296C287.946 588.504 288.05 588.752 288.05 589.04Z" fill="#424242"/>
<mask id="mask0" mask-type="alpha" maskUnits="userSpaceOnUse" x="40" y="40" width="540" height="350">
<path d="M40 80C40 57.9086 57.9086 40 80 40H540C562.091 40 580 57.9086 580 80V390H40V80Z" fill="#CDCDCD"/>
</mask>
<g mask="url(#mask0)">
<rect x="-133" y="-21" width="886" height="591"/>
<path opacity="0.2" d="M40 80C40 57.9086 57.9086 40 80 40H540C562.091 40 580 57.9086 580 80V390H40V80Z" fill="url(#paint0_linear)"/>
</g>
<defs>
<filter id="filter0_d" x="0" y="0" width="620" height="670" filterUnits="userSpaceOnUse" color-interpolation-filters="sRGB">
<feFlood flood-opacity="0" result="BackgroundImageFix"/>
<feColorMatrix in="SourceAlpha" type="matrix" values="0 0 0 0 0 0 0 0 0 0 0 0 0 0 0 0 0 0 127 0"/>
<feOffset/>
<feGaussianBlur stdDeviation="20"/>
<feColorMatrix type="matrix" values="0 0 0 0 0.497817 0 0 0 0 0.497817 0 0 0 0 0.497817 0 0 0 0.4 0"/>
<feBlend mode="normal" in2="BackgroundImageFix" result="effect1_dropShadow"/>
<feBlend mode="normal" in="SourceGraphic" in2="effect1_dropShadow" result="shape"/>
</filter>
<linearGradient id="paint0_linear" x1="40" y1="215" x2="379.545" y2="-45.8898" gradientUnits="userSpaceOnUse">
<stop stop-color="#2D8550"/>
<stop offset="1" stop-color="#5E6EC2"/>
</linearGradient>
</defs>
</svg>
