<?xml version="1.0" standalone="no"?>
<!DOCTYPE svg PUBLIC "-//W3C//DTD SVG 20010904//EN"
 "http://www.w3.org/TR/2001/REC-SVG-20010904/DTD/svg10.dtd">
<svg version="1.0" xmlns="http://www.w3.org/2000/svg"
 width="36" height="32" viewBox="0 0 225.000000 225.000000"
 preserveAspectRatio="xMidYMid meet">
<metadata>
Created by potrace 1.16, written by Peter Selinger 2001-2019
</metadata>
<g transform="translate(0.000000,225.000000) scale(0.100000,-0.100000)"
fill="#000000" stroke="none">
<path d="M1015 1968 c-123 -13 -246 -56 -350 -120 -27 -17 -56 -38 -63 -47
-29 -35 0 -91 47 -91 13 0 36 9 51 20 149 106 419 150 614 100 237 -60 424
-240 495 -475 19 -62 43 -245 33 -245 -2 0 -55 47 -118 105 -119 110 -145 123
-177 87 -20 -22 -22 -52 -4 -74 6 -9 84 -79 171 -157 217 -192 195 -193 381
19 77 87 144 170 149 184 12 33 -15 66 -54 66 -22 0 -48 -22 -129 -110 -55
-61 -101 -107 -101 -103 -1 40 -24 198 -34 233 -73 244 -234 431 -462 536
-131 61 -303 88 -449 72z" fill="#FF5864"/>
<path d="M282 1278 c-123 -131 -273 -305 -278 -326 -4 -15 0 -30 11 -42 32
-35 57 -25 117 48 31 37 74 84 96 105 l39 38 7 -63 c18 -163 92 -342 190 -459
204 -245 555 -356 868 -275 104 26 258 94 295 128 28 26 30 59 5 81 -27 24
-55 21 -109 -13 -60 -39 -180 -85 -261 -100 -78 -16 -299 -7 -362 13 -127 42
-230 107 -318 201 -71 77 -112 145 -146 248 -25 74 -55 272 -43 284 3 4 61
-44 128 -105 67 -61 129 -111 138 -111 30 0 61 30 61 59 0 23 -26 51 -162 172
-159 142 -192 168 -214 169 -7 0 -34 -24 -62 -52z" fill="#FF5864"/>
</g>
</svg>
